{
.appVersion = "1060";
copyright = "Copyright 2017 Google Inc. All Rights Reserved.";
customParameters = (
{
name = licenseURL;
value = "http://scripts.sil.org/OFL";
},
{
name = description;
value = "Designed by Monotype design team.";
},
{
name = panose;
value = (
"2",
"11",
"5",
"2",
"4",
"5",
"4",
"2",
"2",
"4"
);
},
{
name = fsType;
value = (
);
},
{
name = trademark;
value = "Noto is a trademark of Google Inc.";
},
{
name = versionString;
value = "Version 2.000";
},
{
name = "Has WWS Names";
value = 1;
},
{
name = "Don't use Production Names";
value = 1;
},
{
name = license;
value = "This Font Software is licensed under the SIL Open Font License, Version 1.1. This Font Software is distributed on an \"AS IS\" BASIS, WITHOUT WARRANTIES OR CONDITIONS OF ANY KIND, either express or implied. See the SIL Open Font License for the specific language, permissions and limitations governing your use of this Font Software.";
},
{
name = glyphOrder;
value = (
.notdef,
NULL,
CR,
space,
uni00A0,
uni25CC,
mark_marc,
shad_marc,
ka_marc,
kha_marc,
ga_marc,
nga_marc,
ca_marc,
cha_marc,
ja_marc,
nya_marc,
ta_marc,
tha_marc,
da_marc,
na_marc,
pa_marc,
pha_marc,
ba_marc,
ma_marc,
tsa_marc,
tsha_marc,
dza_marc,
wa_marc,
zha_marc,
za_marc,
aa_marc,
ya_marc,
ra_marc,
la_marc,
sha_marc,
sa_marc,
ha_marc,
a_marc,
i_marc,
u_marc,
e_marc,
o_marc,
anusvara_marc,
candrabindu_marc,
candrabindu_marc.narrow,
ka_marc.sub,
kha_marc.sub,
ga_marc.sub,
nga_marc.sub,
ca_marc.sub,
cha_marc.sub,
ja_marc.sub,
nya_marc.sub,
ta_marc.sub,
tha_marc.sub,
da_marc.sub,
na_marc.sub,
pa_marc.sub,
pha_marc.sub,
ba_marc.sub,
ma_marc.sub,
tsa_marc.sub,
tsha_marc.sub,
dza_marc.sub,
wa_marc.sub,
zha_marc.sub,
za_marc.sub,
aa_marc.sub,
ra_marc.sub,
la_marc.sub,
sha_marc.sub,
sa_marc.sub,
ha_marc.sub,
a_marc.sub,
ya_marc.sub,
a_aa_marc.sub,
a_aa_o_marc,
a_e_marc,
a_i_marc,
a_o_marc,
a_ra.sub,
a_u_marc,
aa_i_marc,
aa_o_marc,
aa_u_marc,
ba_aa_marc.sub,
ba_e_marc,
ba_i_marc,
ba_la.sub,
ba_la.sub_e_marc,

glyphs = (
{
glyphname = .notdef;
lastChange = "2017-12-13 22:26:47 +0000";
layers = (
{
layerId = "76B3AF2C-89AC-4CB1-B1C9-F754B2D43151";
paths = (
{
closed = 1;
nodes = (
"505 0 LINE",
"505 714 LINE",
"94 714 LINE",
"94 0 LINE"
);
},
{
closed = 1;
nodes = (
"454 663 LINE",
"454 51 LINE",
"145 51 LINE",
"145 663 LINE"
);
}
);
width = 600;
}
);
},
{
glyphname = uni25CC;
lastChange = "2017-12-13 22:26:47 +0000";
layers = (
{
layerId = "76B3AF2C-89AC-4CB1-B1C9-F754B2D43151";
paths = (
{
closed = 1;
nodes = (
"329 462 OFFCURVE",
"340 473 OFFCURVE",
"340 486 CURVE SMOOTH",
"340 499 OFFCURVE",
"329 510 OFFCURVE",
"316 510 CURVE SMOOTH",
"303 510 OFFCURVE",
"292 499 OFFCURVE",
"292 486 CURVE SMOOTH",
"292 473 OFFCURVE",
"303 462 OFFCURVE",
"316 462 CURVE SMOOTH"
);
},
{
closed = 1;
nodes = (
"232 438 OFFCURVE",
"243 449 OFFCURVE",
"243 462 CURVE SMOOTH",
"243 475 OFFCURVE",
"232 486 OFFCURVE",
"219 486 CURVE SMOOTH",
"206 486 OFFCURVE",
"195 475 OFFCURVE",
"195 462 CURVE SMOOTH",
"195 449 OFFCURVE",
"206 438 OFFCURVE",
"219 438 CURVE SMOOTH"
);
},
{
closed = 1;
nodes = (
"426 438 OFFCURVE",
"437 449 OFFCURVE",
"437 462 CURVE SMOOTH",
"437 475 OFFCURVE",
"426 486 OFFCURVE",
"413 486 CURVE SMOOTH",
"400 486 OFFCURVE",
"389 475 OFFCURVE",
"389 462 CURVE SMOOTH",
"389 449 OFFCURVE",
"400 438 OFFCURVE",
"413 438 CURVE SMOOTH"
);
},
{
closed = 1;
nodes = (
"161 368 OFFCURVE",
"172 379 OFFCURVE",
"172 392 CURVE SMOOTH",
"172 405 OFFCURVE",
"161 416 OFFCURVE",
"148 416 CURVE SMOOTH",
"135 416 OFFCURVE",
"124 405 OFFCURVE",
"124 392 CURVE SMOOTH",
"124 379 OFFCURVE",
"135 368 OFFCURVE",
"148 368 CURVE SMOOTH"
);
},
{
closed = 1;
nodes = (
"496 366 OFFCURVE",
"507 377 OFFCURVE",
"507 390 CURVE SMOOTH",
"507 403 OFFCURVE",
"496 414 OFFCURVE",
"483 414 CURVE SMOOTH",
"470 414 OFFCURVE",
"459 403 OFFCURVE",
"459 390 CURVE SMOOTH",
"459 377 OFFCURVE",
"470 366 OFFCURVE",
"483 366 CURVE SMOOTH"
);
},
{
closed = 1;
nodes = (
"135 267 OFFCURVE",
"146 278 OFFCURVE",
"146 291 CURVE SMOOTH",
"146 304 OFFCURVE",
"135 315 OFFCURVE",
"122 315 CURVE SMOOTH",
"109 315 OFFCURVE",
"98 304 OFFCURVE",
"98 291 CURVE SMOOTH",
"98 278 OFFCURVE",
"109 267 OFFCURVE",
"122 267 CURVE SMOOTH"
);
},
{
closed = 1;
nodes = (
"526 267 OFFCURVE",
"537 278 OFFCURVE",
"537 291 CURVE SMOOTH",
"537 304 OFFCURVE",
"526 315 OFFCURVE",
"513 315 CURVE SMOOTH",
"500 315 OFFCURVE",
"489 304 OFFCURVE",
"489 291 CURVE SMOOTH",
"489 278 OFFCURVE",
"500 267 OFFCURVE",
"513 267 CURVE SMOOTH"
);
},
{
closed = 1;
nodes = (
"498 173 OFFCURVE",
"509 184 OFFCURVE",
"509 197 CURVE SMOOTH",
"509 210 OFFCURVE",
"498 221 OFFCURVE",
"485 221 CURVE SMOOTH",
"472 221 OFFCURVE",
"461 210 OFFCURVE",
"461 197 CURVE SMOOTH",
"461 184 OFFCURVE",
"472 173 OFFCURVE",
"485 173 CURVE SMOOTH"
);
},
{
closed = 1;
nodes = (
"159 172 OFFCURVE",
"170 183 OFFCURVE",
"170 196 CURVE SMOOTH",
"170 209 OFFCURVE",
"159 220 OFFCURVE",
"146 220 CURVE SMOOTH",
"133 220 OFFCURVE",
"122 209 OFFCURVE",
"122 196 CURVE SMOOTH",
"122 183 OFFCURVE",
"133 172 OFFCURVE",
"146 172 CURVE SMOOTH"
);
},
{
closed = 1;
nodes = (
"427 101 OFFCURVE",
"438 112 OFFCURVE",
"438 125 CURVE SMOOTH",
"438 138 OFFCURVE",
"427 149 OFFCURVE",
"414 149 CURVE SMOOTH",
"401 149 OFFCURVE",
"390 138 OFFCURVE",
"390 125 CURVE SMOOTH",
"390 112 OFFCURVE",
"401 101 OFFCURVE",
"414 101 CURVE SMOOTH"
);
},
{
closed = 1;
nodes = (
"232 100 OFFCURVE",
"243 111 OFFCURVE",
"243 124 CURVE SMOOTH",
"243 137 OFFCURVE",
"232 148 OFFCURVE",
"219 148 CURVE SMOOTH",
"206 148 OFFCURVE",
"195 137 OFFCURVE",
"195 124 CURVE SMOOTH",
"195 111 OFFCURVE",
"206 100 OFFCURVE",
"219 100 CURVE SMOOTH"
);
},
{
closed = 1;
nodes = (
"329 73 OFFCURVE",
"340 84 OFFCURVE",
"340 97 CURVE SMOOTH",
"340 110 OFFCURVE",
"329 121 OFFCURVE",
"316 121 CURVE SMOOTH",
"303 121 OFFCURVE",
"292 110 OFFCURVE",
"292 97 CURVE SMOOTH",
"292 84 OFFCURVE",
"303 73 OFFCURVE",
"316 73 CURVE SMOOTH"
);
}
);
width = 635;
}
);
unicode = 25CC;
category = Letter;
},
{
glyphname = mark_marc;
lastChange = "2017-12-13 22:26:47 +0000";
layers = (
{
layerId = "76B3AF2C-89AC-4CB1-B1C9-F754B2D43151";
paths = (
{
closed = 1;
nodes = (
"488 366 LINE",
"488 436 LINE",
"654 436 LINE",
"654 678 LINE",
"558 678 LINE",
"558 522 LINE",
"488 522 LINE",
"488 678 LINE",
"226 678 LINE",
"226 592 LINE",
"392 592 LINE",
"392 522 LINE",
"226 522 LINE",
"226 280 LINE",
"322 280 LINE",
"322 436 LINE",
"392 436 LINE",
"392 280 LINE",
"558 280 LINE",
"558 210 LINE",
"156 210 LINE",
"156 678 LINE",
"60 708 LINE",
"60 124 LINE",
"654 124 LINE",
"654 366 LINE"
);
}
);
width = 715;
}
);
unicode = 11C70;
script = marc;
category = Letter;
},
{
glyphname = shad_marc;
lastChange = "2017-12-13 22:26:47 +0000";
layers = (
{
layerId = "76B3AF2C-89AC-4CB1-B1C9-F754B2D43151";
paths = (
{
closed = 1;
nodes = (
"370 419 LINE",
"370 661 LINE",
"60 661 LINE",
"60 419 LINE"
);
},
{
closed = 1;
nodes = (
"110 575 LINE",
"320 575 LINE",
"320 505 LINE",
"110 505 LINE"
);
},
{
closed = 1;
nodes = (
"370 117 LINE",
"370 359 LINE",
"60 359 LINE",
"60 117 LINE"
);
},
{
closed = 1;
nodes = (
"110 273 LINE",
"320 273 LINE",
"320 203 LINE",
"110 203 LINE"
);
}
);
width = 430;
}
);
unicode = 11C71;
script = marc;
category = Letter;
},
{
glyphname = ka_marc;
lastChange = "2017-12-13 22:26:47 +0000";
layers = (
{
layerId = "76B3AF2C-89AC-4CB1-B1C9-F754B2D43151";
paths = (
{
closed = 1;
nodes = (
"60 592 LINE",
"226 592 LINE",
"226 471 LINE",
"179 493 OFFCURVE",
"117 504 OFFCURVE",
"60 501 CURVE",
"60 200 LINE",
"156 141 LINE",
"156 417 LINE",
"180 419 OFFCURVE",
"202 414 OFFCURVE",
"226 402 CURVE",
"226 160 LINE",
"322 101 LINE",
"322 592 LINE",
"392 592 LINE",
"392 137 LINE",
"488 78 LINE",
"488 678 LINE",
"60 678 LINE"
);
}
);
width = 548;
}
);
unicode = 11C72;
script = marc;
category = Letter;
},
{
glyphname = kha_marc;
lastChange = "2017-12-13 22:26:47 +0000";
layers = (
{
layerId = "76B3AF2C-89AC-4CB1-B1C9-F754B2D43151";
paths = (
{
closed = 1;
nodes = (
"322 436 LINE",
"481 436 LINE",
"481 522 LINE",
"322 522 LINE",
"322 592 LINE",
"481 592 LINE",
"481 678 LINE",
"60 678 LINE",
"60 592 LINE",
"226 592 LINE",
"226 522 LINE",
"60 522 LINE",
"60 138 LINE",
"156 79 LINE",
"156 436 LINE",
"226 436 LINE",
"226 229 LINE",
"308 229 OFFCURVE",
"418 224 OFFCURVE",
"492 113 CURVE",
"538 121 LINE",
"488 236 OFFCURVE",
"406 291 OFFCURVE",
"322 311 CURVE"
);
}
);
width = 558;
}
);
unicode = 11C73;
script = marc;
category = Letter;
},
{
glyphname = ga_marc;
lastChange = "2017-12-13 22:26:47 +0000";
layers = (
{
layerId = "76B3AF2C-89AC-4CB1-B1C9-F754B2D43151";
paths = (
{
closed = 1;
nodes = (
"60 592 LINE",
"226 592 LINE",
"226 522 LINE",
"60 522 LINE",
"60 280 LINE",
"108 280 LINE",
"38 148 LINE",
"50 102 LINE",
"74 121 OFFCURVE",
"113 138 OFFCURVE",
"162 138 CURVE SMOOTH",
"209 138 OFFCURVE",
"254 122 OFFCURVE",
"292 84 CURVE",
"338 92 LINE",
"297 171 OFFCURVE",
"217 217 OFFCURVE",
"155 217 CURVE SMOOTH",
"149 217 OFFCURVE",
"141 217 OFFCURVE",
"133 215 CURVE",
"167 280 LINE",
"293 280 LINE",
"311 366 LINE",
"156 366 LINE",
"156 436 LINE",
"312 436 LINE",
"312 592 LINE",
"382 592 LINE",
"382 137 LINE",
"478 78 LINE",
"478 678 LINE",
"60 678 LINE"
);
}
);
width = 538;
}
);
unicode = 11C74;
script = marc;
category = Letter;
},
{
glyphname = nga_marc;
lastChange = "2017-12-13 22:26:47 +0000";
layers = (
{
layerId = "76B3AF2C-89AC-4CB1-B1C9-F754B2D43151";
paths = (
{
closed = 1;
nodes = (
"157 436 LINE",
"412 436 LINE",
"430 522 LINE",
"294 522 LINE",
"294 592 LINE",
"430 592 LINE",
"430 678 LINE",
"60 678 LINE",
"60 592 LINE",
"198 592 LINE",
"198 522 LINE",
"60 522 LINE",
"60 188 LINE",
"331 188 OFFCURVE",
"401 146 OFFCURVE",
"462 92 CURVE",
"508 100 LINE",
"394 243 OFFCURVE",
"288 271 OFFCURVE",
"157 274 CURVE"
);
}
);
width = 516;
}
);
unicode = 11C75;
script = marc;
category = Letter;
},
{
glyphname = ca_marc;
lastChange = "2017-12-13 22:26:47 +0000";
layers = (
{
layerId = "76B3AF2C-89AC-4CB1-B1C9-F754B2D43151";
paths = (
{
closed = 1;
nodes = (
"60 592 LINE",
"203 592 LINE",
"203 522 LINE",
"60 522 LINE",
"60 128 LINE",
"156 69 LINE",
"156 436 LINE",
"349 436 LINE",
"349 366 LINE",
"230 366 LINE",
"230 144 LINE",
"294 144 OFFCURVE",
"363 145 OFFCURVE",
"433 78 CURVE",
"479 86 LINE",
"438 166 OFFCURVE",
"378 220 OFFCURVE",
"316 230 CURVE",
"316 280 LINE",
"445 280 LINE",
"445 522 LINE",
"299 522 LINE",
"299 592 LINE",
"515 592 LINE",
"515 54 LINE",
"611 -5 LINE",
"611 678 LINE",
"60 678 LINE"
);
}
);
width = 671;
}
);
unicode = 11C76;
script = marc;
category = Letter;
},
{
glyphname = cha_marc;
lastChange = "2017-12-13 22:26:47 +0000";
layers = (
{
layerId = "76B3AF2C-89AC-4CB1-B1C9-F754B2D43151";
paths = (
{
closed = 1;
nodes = (
"300 216 OFFCURVE",
"292 216 OFFCURVE",
"284 214 CURVE",
"319 280 LINE",
"432 280 LINE",
"432 522 LINE",
"291 522 LINE",
"291 592 LINE",
"432 592 LINE",
"432 678 LINE",
"60 678 LINE",
"60 592 LINE",
"195 592 LINE",
"195 522 LINE",
"60 522 LINE",
"60 137 LINE",
"156 78 LINE",
"156 436 LINE",
"336 436 LINE",
"336 366 LINE",
"226 366 LINE",
"226 280 LINE",
"260 280 LINE",
"189 147 LINE",
"201 101 LINE",
"225 120 OFFCURVE",
"264 137 OFFCURVE",
"313 137 CURVE SMOOTH",
"360 137 OFFCURVE",
"405 121 OFFCURVE",
"443 83 CURVE",
"489 91 LINE",
"448 170 OFFCURVE",
"368 216 OFFCURVE",
"306 216 CURVE SMOOTH"
);
}
);
width = 494;
}
);
unicode = 11C77;
script = marc;
category = Letter;
},
{
glyphname = ja_marc;
lastChange = "2017-12-13 22:26:47 +0000";
layers = (
{
layerId = "76B3AF2C-89AC-4CB1-B1C9-F754B2D43151";
paths = (
{
closed = 1;
nodes = (
"320 219 OFFCURVE",
"312 219 OFFCURVE",
"304 217 CURVE",
"337 280 LINE",
"451 280 LINE",
"451 522 LINE",
"205 522 LINE",
"205 592 LINE",
"451 592 LINE",
"451 678 LINE",
"60 678 LINE",
"60 592 LINE",
"109 592 LINE",
"109 436 LINE",
"355 436 LINE",
"355 366 LINE",
"70 366 LINE",
"70 137 LINE",
"166 78 LINE",
"166 280 LINE",
"278 280 LINE",
"209 150 LINE",
"221 104 LINE",
"245 123 OFFCURVE",
"284 140 OFFCURVE",
"333 140 CURVE SMOOTH",
"380 140 OFFCURVE",
"425 124 OFFCURVE",
"463 86 CURVE",
"509 94 LINE",
"468 173 OFFCURVE",
"388 219 OFFCURVE",
"326 219 CURVE SMOOTH"
);
}
);
width = 513;
}
);
unicode = 11C78;
script = marc;
category = Letter;
},
{
glyphname = nya_marc;
lastChange = "2017-12-13 22:26:47 +0000";
layers = (
{
layerId = "76B3AF2C-89AC-4CB1-B1C9-F754B2D43151";
paths = (
{
closed = 1;
nodes = (
"60 436 LINE",
"226 436 LINE",
"226 366 LINE",
"60 366 LINE",
"60 124 LINE",
"156 124 LINE",
"156 280 LINE",
"226 280 LINE",
"226 124 LINE",
"494 124 LINE",
"494 210 LINE",
"322 210 LINE",
"322 280 LINE",
"488 280 LINE",
"488 522 LINE",
"392 522 LINE",
"392 366 LINE",
"322 366 LINE",
"322 522 LINE",
"156 522 LINE",
"156 592 LINE",
"558 592 LINE",
"558 123 LINE",
"654 64 LINE",
"654 678 LINE",
"60 678 LINE"
);
}
);
width = 714;
}
);
unicode = 11C79;
script = marc;
category = Letter;
},
{
glyphname = ta_marc;
lastChange = "2017-12-13 22:26:47 +0000";
layers = (
{
layerId = "76B3AF2C-89AC-4CB1-B1C9-F754B2D43151";
paths = (
{
closed = 1;
nodes = (
"60 592 LINE",
"156 592 LINE",
"156 522 LINE",
"60 522 LINE",
"60 286 LINE",
"151 286 LINE",
"151 226 LINE",
"60 226 LINE",
"60 141 LINE",
"237 141 LINE",
"237 286 LINE",
"307 286 LINE",
"307 142 LINE",
"393 89 LINE",
"393 372 LINE",
"156 372 LINE",
"156 436 LINE",
"393 436 LINE",
"393 522 LINE",
"252 522 LINE",
"252 592 LINE",
"463 592 LINE",
"463 87 LINE",
"559 28 LINE",
"559 678 LINE",
"60 678 LINE"
);
}
);
width = 619;
}
);
unicode = 11C7A;
script = marc;
category = Letter;
},
{
glyphname = tha_marc;
lastChange = "2017-12-13 22:26:47 +0000";
layers = (
{
layerId = "76B3AF2C-89AC-4CB1-B1C9-F754B2D43151";
paths = (
{
closed = 1;
nodes = (
"60 592 LINE",
"392 592 LINE",
"392 204 LINE",
"322 204 LINE",
"322 522 LINE",
"60 522 LINE",
"60 436 LINE",
"226 436 LINE",
"226 366 LINE",
"60 366 LINE",
"60 177 LINE",
"156 118 LINE",
"156 280 LINE",
"226 280 LINE",
"226 118 LINE",
"488 118 LINE",
"488 678 LINE",
"60 678 LINE"
);
}
);
width = 548;
}
);
unicode = 11C7B;
script = marc;
category = Letter;
},
{
glyphname = da_marc;
lastChange = "2017-12-13 22:26:47 +0000";
layers = (
{
layerId = "76B3AF2C-89AC-4CB1-B1C9-F754B2D43151";
paths = (
{
closed = 1;
nodes = (
"60 678 LINE",
"60 440 LINE",
"229 440 LINE",
"229 370 LINE",
"60 370 LINE",
"60 150 LINE",
"136 150 OFFCURVE",
"207 149 OFFCURVE",
"277 84 CURVE",
"323 92 LINE",
"280 172 OFFCURVE",
"216 226 OFFCURVE",
"146 236 CURVE",
"146 285 LINE",
"325 285 LINE",
"325 522 LINE",
"156 522 LINE",
"156 592 LINE",
"395 592 LINE",
"395 139 LINE",
"491 80 LINE",
"491 678 LINE"
);
}
);
width = 551;
}
);
unicode = 11C7C;
script = marc;
category = Letter;
},
{
glyphname = na_marc;
lastChange = "2017-12-13 22:26:47 +0000";
layers = (
{
layerId = "76B3AF2C-89AC-4CB1-B1C9-F754B2D43151";
paths = (
{
closed = 1;
nodes = (
"478 678 LINE",
"60 678 LINE",
"60 592 LINE",
"216 592 LINE",
"216 522 LINE",
"60 522 LINE",
"60 436 LINE",
"216 436 LINE",
"216 366 LINE",
"60 366 LINE",
"60 280 LINE",
"216 280 LINE",
"216 210 LINE",
"60 210 LINE",
"60 124 LINE",
"312 124 LINE",
"312 436 LINE",
"382 436 LINE",
"382 137 LINE",
"478 78 LINE",
"478 522 LINE",
"312 522 LINE",
"312 592 LINE",
"478 592 LINE"
);
}
);
width = 538;
}
);
unicode = 11C7D;
script = marc;
category = Letter;
},
{
glyphname = pa_marc;
lastChange = "2017-12-13 22:26:47 +0000";
layers = (
{
layerId = "76B3AF2C-89AC-4CB1-B1C9-F754B2D43151";
paths = (
{
closed = 1;
nodes = (
"218 678 LINE",
"218 446 LINE",
"335 446 LINE",
"335 384 LINE",
"156 384 LINE",
"156 678 LINE",
"60 678 LINE",
"60 298 LINE",
"201 298 LINE",
"201 228 LINE",
"63 228 LINE",
"63 142 LINE",
"431 142 LINE",
"431 228 LINE",
"297 228 LINE",
"297 298 LINE",
"431 298 LINE",
"431 532 LINE",
"314 532 LINE",
"314 592 LINE",
"501 592 LINE",
"501 141 LINE",
"597 82 LINE",
"597 678 LINE"
);
}
);
width = 657;
}
);
unicode = 11C7E;
script = marc;
category = Letter;
},
{
glyphname = pha_marc;
lastChange = "2017-12-13 22:26:47 +0000";
layers = (
{
layerId = "76B3AF2C-89AC-4CB1-B1C9-F754B2D43151";
paths = (
{
closed = 1;
nodes = (
"60 299 LINE",
"196 299 LINE",
"196 229 LINE",
"60 229 LINE",
"60 143 LINE",
"420 143 LINE",
"420 229 LINE",
"282 229 LINE",
"282 299 LINE",
"420 299 LINE",
"420 522 LINE",
"146 522 LINE",
"146 592 LINE",
"490 592 LINE",
"490 144 LINE",
"586 85 LINE",
"586 678 LINE",
"60 678 LINE"
);
},
{
closed = 1;
nodes = (
"334 385 LINE",
"146 385 LINE",
"146 436 LINE",
"334 436 LINE"
);
}
);
width = 646;
}
);
unicode = 11C7F;
script = marc;
category = Letter;
},
{
glyphname = ba_marc;
lastChange = "2017-12-13 22:26:47 +0000";
layers = (
{
layerId = "76B3AF2C-89AC-4CB1-B1C9-F754B2D43151";
paths = (
{
closed = 1;
nodes = (
"60 446 LINE",
"168 446 LINE",
"168 386 LINE",
"60 386 LINE",
"60 164 LINE",
"359 164 LINE",
"359 386 LINE",
"254 386 LINE",
"254 446 LINE",
"359 446 LINE",
"359 532 LINE",
"146 532 LINE",
"146 592 LINE",
"419 592 LINE",
"419 138 LINE",
"515 79 LINE",
"515 678 LINE",
"60 678 LINE"
);
},
{
closed = 1;
nodes = (
"110 250 LINE",
"110 300 LINE",
"309 300 LINE",
"309 250 LINE"
);
}
);
width = 575;
}
);
unicode = 11C80;
script = marc;
category = Letter;
},
{
glyphname = ma_marc;
lastChange = "2017-12-13 22:26:47 +0000";
layers = (
{
layerId = "76B3AF2C-89AC-4CB1-B1C9-F754B2D43151";
paths = (
{
closed = 1;
nodes = (
"60 592 LINE",
"170 592 LINE",
"170 522 LINE",
"60 522 LINE",
"60 292 LINE",
"253 292 LINE",
"253 222 LINE",
"60 222 LINE",
"60 142 LINE",
"339 142 LINE",
"339 372 LINE",
"146 372 LINE",
"146 442 LINE",
"339 442 LINE",
"339 522 LINE",
"266 522 LINE",
"266 592 LINE",
"409 592 LINE",
"409 141 LINE",
"505 82 LINE",
"505 678 LINE",
"60 678 LINE"
);
}
);
width = 565;
}
);
unicode = 11C81;
script = marc;
category = Letter;
},
{
glyphname = tsa_marc;
lastChange = "2017-12-13 22:26:47 +0000";
layers = (
{
layerId = "76B3AF2C-89AC-4CB1-B1C9-F754B2D43151";
paths = (
{
closed = 1;
nodes = (
"390 293 LINE",
"495 293 LINE",
"495 379 LINE",
"312 379 LINE",
"312 439 LINE",
"495 439 LINE",
"495 525 LINE",
"402 525 LINE",
"402 592 LINE",
"495 592 LINE",
"495 678 LINE",
"60 678 LINE",
"60 154 LINE",
"156 95 LINE",
"156 592 LINE",
"315 592 LINE",
"315 525 LINE",
"216 525 LINE",
"216 293 LINE",
"314 293 LINE",
"314 239 LINE",
"285 236 OFFCURVE",
"248 228 OFFCURVE",
"207 208 CURVE",
"199 126 LINE",
"234 147 OFFCURVE",
"301 169 OFFCURVE",
"356 169 CURVE SMOOTH",
"408 169 OFFCURVE",
"456 149 OFFCURVE",
"498 105 CURVE",
"544 113 LINE",
"507 180 OFFCURVE",
"457 223 OFFCURVE",
"390 237 CURVE"
);
}
);
width = 556;
}
);
unicode = 11C82;
script = marc;
category = Letter;
},
{
glyphname = tsha_marc;
lastChange = "2017-12-13 22:26:47 +0000";
layers = (
{
layerId = "76B3AF2C-89AC-4CB1-B1C9-F754B2D43151";
paths = (
{
closed = 1;
nodes = (
"497 678 LINE",
"64 678 LINE",
"64 592 LINE",
"227 592 LINE",
"227 532 LINE",
"64 532 LINE",
"64 300 LINE",
"155 300 LINE",
"155 255 LINE",
"129 251 OFFCURVE",
"99 241 OFFCURVE",
"68 224 CURVE",
"60 142 LINE",
"93 164 OFFCURVE",
"135 185 OFFCURVE",
"183 185 CURVE SMOOTH",
"229 185 OFFCURVE",
"277 165 OFFCURVE",
"319 121 CURVE",
"365 129 LINE",
"330 192 OFFCURVE",
"283 234 OFFCURVE",
"231 250 CURVE",
"231 300 LINE",
"331 300 LINE",
"331 386 LINE",
"160 386 LINE",
"160 446 LINE",
"401 446 LINE",
"401 138 LINE",
"497 79 LINE",
"497 532 LINE",
"323 532 LINE",
"323 592 LINE",
"497 592 LINE"
);
}
);
width = 557;
}
);
unicode = 11C83;
script = marc;
category = Letter;
},
{
glyphname = dza_marc;
lastChange = "2017-12-13 22:26:47 +0000";
layers = (
{
layerId = "76B3AF2C-89AC-4CB1-B1C9-F754B2D43151";
paths = (
{
closed = 1;
nodes = (
"474 442 LINE",
"492 522 LINE",
"388 522 LINE",
"388 592 LINE",
"491 592 LINE",
"491 678 LINE",
"60 678 LINE",
"60 138 LINE",
"156 79 LINE",
"156 592 LINE",
"292 592 LINE",
"292 522 LINE",
"226 522 LINE",
"226 292 LINE",
"405 292 LINE",
"405 200 LINE",
"341 218 OFFCURVE",
"285 225 OFFCURVE",
"226 225 CURVE",
"226 145 LINE",
"317 144 OFFCURVE",
"386 130 OFFCURVE",
"491 88 CURVE",
"491 372 LINE",
"312 372 LINE",
"312 442 LINE"
);
}
);
width = 552;
}
);
unicode = 11C84;
script = marc;
category = Letter;
},
{
glyphname = wa_marc;
lastChange = "2017-12-13 22:26:47 +0000";
layers = (
{
layerId = "76B3AF2C-89AC-4CB1-B1C9-F754B2D43151";
paths = (
{
closed = 1;
nodes = (
"60 592 LINE",
"308 592 LINE",
"308 532 LINE",
"60 532 LINE",
"60 448 LINE",
"308 448 LINE",
"308 388 LINE",
"60 388 LINE",
"60 170 LINE",
"358 170 LINE",
"358 448 LINE",
"428 448 LINE",
"428 163 LINE",
"524 104 LINE",
"524 678 LINE",
"60 678 LINE"
);
},
{
closed = 1;
nodes = (
"358 592 LINE",
"428 592 LINE",
"428 532 LINE",
"358 532 LINE"
);
},
{
closed = 1;
nodes = (
"110 256 LINE",
"110 302 LINE",
"307 302 LINE",
"307 256 LINE"
);
}
);
width = 584;
}
);
unicode = 11C85;
script = marc;
category = Letter;
},
{
glyphname = zha_marc;
lastChange = "2017-12-13 22:26:47 +0000";
layers = (
{
layerId = "76B3AF2C-89AC-4CB1-B1C9-F754B2D43151";
paths = (
{
closed = 1;
nodes = (
"316 280 LINE",
"445 280 LINE",
"445 522 LINE",
"299 522 LINE",
"299 592 LINE",
"444 592 LINE",
"444 678 LINE",
"60 678 LINE",
"60 592 LINE",
"203 592 LINE",
"203 522 LINE",
"63 522 LINE",
"63 128 LINE",
"159 69 LINE",
"159 436 LINE",
"349 436 LINE",
"349 366 LINE",
"230 366 LINE",
"230 144 LINE",
"306 144 OFFCURVE",
"377 143 OFFCURVE",
"447 78 CURVE",
"493 86 LINE",
"450 166 OFFCURVE",
"386 220 OFFCURVE",
"316 230 CURVE"
);
}
);
width = 505;
}
);
unicode = 11C86;
script = marc;
category = Letter;
},
{
glyphname = za_marc;
lastChange = "2017-12-13 22:26:47 +0000";
layers = (
{
layerId = "76B3AF2C-89AC-4CB1-B1C9-F754B2D43151";
paths = (
{
closed = 1;
nodes = (
"60 592 LINE",
"209 592 LINE",
"209 522 LINE",
"60 522 LINE",
"60 436 LINE",
"301 436 LINE",
"301 366 LINE",
"60 366 LINE",
"60 137 LINE",
"156 78 LINE",
"156 280 LINE",
"216 280 LINE",
"216 124 LINE",
"387 124 LINE",
"387 210 LINE",
"302 210 LINE",
"302 280 LINE",
"387 280 LINE",
"387 522 LINE",
"305 522 LINE",
"305 592 LINE",
"457 592 LINE",
"457 137 LINE",
"553 78 LINE",
"553 678 LINE",
"60 678 LINE"
);
}
);
width = 613;
}
);
unicode = 11C87;
script = marc;
category = Letter;
},
{
glyphname = aa_marc;
lastChange = "2017-12-13 22:26:47 +0000";
layers = (
{
layerId = "76B3AF2C-89AC-4CB1-B1C9-F754B2D43151";
paths = (
{
closed = 1;
nodes = (
"60 592 LINE",
"392 592 LINE",
"392 532 LINE",
"60 532 LINE",
"60 446 LINE",
"226 446 LINE",
"226 345 LINE",
"179 367 OFFCURVE",
"117 378 OFFCURVE",
"60 375 CURVE",
"60 180 LINE",
"156 121 LINE",
"156 291 LINE",
"180 293 OFFCURVE",
"202 288 OFFCURVE",
"226 276 CURVE",
"226 138 LINE",
"322 79 LINE",
"322 446 LINE",
"392 446 LINE",
"392 108 LINE",
"488 49 LINE",
"488 678 LINE",
"60 678 LINE"
);
}
);
width = 548;
}
);
unicode = 11C88;
script = marc;
category = Letter;
},
{
glyphname = ya_marc;
lastChange = "2017-12-13 22:26:47 +0000";
layers = (
{
layerId = "76B3AF2C-89AC-4CB1-B1C9-F754B2D43151";
paths = (
{
closed = 1;
nodes = (
"468 678 LINE",
"60 678 LINE",
"60 592 LINE",
"372 592 LINE",
"372 532 LINE",
"60 532 LINE",
"60 300 LINE",
"216 300 LINE",
"216 240 LINE",
"60 240 LINE",
"60 154 LINE",
"302 154 LINE",
"302 300 LINE",
"372 300 LINE",
"372 148 LINE",
"468 89 LINE",
"468 386 LINE",
"156 386 LINE",
"156 446 LINE",
"468 446 LINE"
);
}
);
width = 528;
}
);
unicode = 11C89;
script = marc;
category = Letter;
},
{
glyphname = ra_marc;
lastChange = "2017-12-13 22:26:47 +0000";
layers = (
{
layerId = "76B3AF2C-89AC-4CB1-B1C9-F754B2D43151";
paths = (
{
closed = 1;
nodes = (
"302 451 LINE",
"441 451 LINE",
"441 678 LINE",
"60 678 LINE",
"60 137 LINE",
"156 78 LINE",
"156 592 LINE",
"345 592 LINE",
"345 532 LINE",
"216 532 LINE",
"216 302 LINE",
"292 302 OFFCURVE",
"363 301 OFFCURVE",
"433 236 CURVE",
"479 244 LINE",
"436 324 OFFCURVE",
"372 378 OFFCURVE",
"302 388 CURVE"
);
}
);
width = 502;
}
);
unicode = 11C8A;
script = marc;
category = Letter;
},
{
glyphname = la_marc;
lastChange = "2017-12-13 22:26:47 +0000";
layers = (
{
layerId = "76B3AF2C-89AC-4CB1-B1C9-F754B2D43151";
paths = (
{
closed = 1;
nodes = (
"226 522 LINE",
"156 522 LINE",
"156 678 LINE",
"60 678 LINE",
"60 436 LINE",
"274 436 LINE",
"274 366 LINE",
"60 366 LINE",
"60 280 LINE",
"370 280 LINE",
"370 522 LINE",
"322 522 LINE",
"322 592 LINE",
"440 592 LINE",
"440 200 LINE",
"536 141 LINE",
"536 678 LINE",
"226 678 LINE"
);
}
);
width = 596;
}
);
unicode = 11C8B;
script = marc;
category = Letter;
},
{
glyphname = sha_marc;
lastChange = "2017-12-13 22:26:47 +0000";
layers = (
{
layerId = "76B3AF2C-89AC-4CB1-B1C9-F754B2D43151";
paths = (
{
closed = 1;
nodes = (
"72 592 LINE",
"158 592 LINE",
"158 532 LINE",
"72 532 LINE",
"72 446 LINE",
"231 446 LINE",
"231 386 LINE",
"72 386 LINE",
"72 300 LINE",
"145 300 LINE",
"145 245 LINE",
"118 241 OFFCURVE",
"85 232 OFFCURVE",
"50 214 CURVE",
"42 132 LINE",
"76 154 OFFCURVE",
"128 175 OFFCURVE",
"179 175 CURVE SMOOTH",
"227 175 OFFCURVE",
"275 155 OFFCURVE",
"317 111 CURVE",
"363 119 LINE",
"327 184 OFFCURVE",
"279 227 OFFCURVE",
"221 241 CURVE",
"221 300 LINE",
"327 300 LINE",
"327 532 LINE",
"254 532 LINE",
"254 592 LINE",
"387 592 LINE",
"387 138 LINE",
"483 79 LINE",
"483 678 LINE",
"72 678 LINE"
);
}
);
width = 543;
}
);
unicode = 11C8C;
script = marc;
category = Letter;
},
{
glyphname = sa_marc;
lastChange = "2017-12-13 22:26:47 +0000";
layers = (
{
layerId = "76B3AF2C-89AC-4CB1-B1C9-F754B2D43151";
paths = (
{
closed = 1;
nodes = (
"450 678 LINE",
"60 678 LINE",
"60 436 LINE",
"196 436 LINE",
"196 366 LINE",
"60 366 LINE",
"60 173 LINE",
"156 114 LINE",
"156 281 LINE",
"284 281 LINE",
"284 436 LINE",
"354 436 LINE",
"354 162 LINE",
"450 103 LINE",
"450 522 LINE",
"156 522 LINE",
"156 592 LINE",
"450 592 LINE"
);
}
);
width = 510;
}
);
unicode = 11C8D;
script = marc;
category = Letter;
},
{
glyphname = ha_marc;
lastChange = "2017-12-13 22:26:47 +0000";
layers = (
{
layerId = "76B3AF2C-89AC-4CB1-B1C9-F754B2D43151";
paths = (
{
closed = 1;
nodes = (
"481 678 LINE",
"60 678 LINE",
"60 436 LINE",
"229 436 LINE",
"229 366 LINE",
"60 366 LINE",
"60 280 LINE",
"315 280 LINE",
"315 436 LINE",
"385 436 LINE",
"385 170 LINE",
"481 111 LINE",
"481 522 LINE",
"156 522 LINE",
"156 592 LINE",
"481 592 LINE"
);
}
);
width = 541;
}
);
unicode = 11C8E;
script = marc;
category = Letter;
},
{
glyphname = a_marc;
lastChange = "2017-12-13 22:26:47 +0000";
layers = (
{
layerId = "76B3AF2C-89AC-4CB1-B1C9-F754B2D43151";
paths = (
{
closed = 1;
nodes = (
"60 592 LINE",
"674 592 LINE",
"674 98 LINE",
"770 39 LINE",
"770 678 LINE",
"60 678 LINE"
);
},
{
closed = 1;
nodes = (
"504 329 OFFCURVE",
"471 400 OFFCURVE",
"442 450 CURVE",
"461 532 LINE",
"256 532 LINE",
"236 446 LINE",
"257 446 LINE",
"237 414 OFFCURVE",
"221 376 OFFCURVE",
"217 328 CURVE",
"268 327 OFFCURVE",
"316 301 OFFCURVE",
"316 268 CURVE SMOOTH",
"316 240 OFFCURVE",
"283 223 OFFCURVE",
"241 223 CURVE SMOOTH",
"175 223 OFFCURVE",
"115 265 OFFCURVE",
"115 353 CURVE SMOOTH",
"115 390 OFFCURVE",
"126 424 OFFCURVE",
"149 446 CURVE",
"172 446 LINE",
"192 532 LINE",
"86 532 LINE",
"66 446 LINE",
"93 446 LINE",
"71 419 OFFCURVE",
"52 377 OFFCURVE",
"52 323 CURVE SMOOTH",
"52 213 OFFCURVE",
"133 137 OFFCURVE",
"225 137 CURVE SMOOTH",
"317 137 OFFCURVE",
"378 204 OFFCURVE",
"378 293 CURVE SMOOTH",
"378 354 OFFCURVE",
"346 401 OFFCURVE",
"300 415 CURVE",
"300 425 OFFCURVE",
"303 435 OFFCURVE",
"309 446 CURVE",
"355 446 LINE",
"422 366 OFFCURVE",
"505 206 OFFCURVE",
"526 115 CURVE",
"604 99 LINE",
"604 452 LINE SMOOTH",
"604 486 OFFCURVE",
"609 516 OFFCURVE",
"612 532 CURVE",
"508 532 LINE",
"524 487 OFFCURVE",
"529 365 OFFCURVE",
"529 257 CURVE"
);
}
);
width = 830;
}
);
unicode = 11C8F;
script = marc;
category = Letter;
},
{
glyphname = i_marc;
lastChange = "2017-12-13 22:26:47 +0000";
layers = (
{
layerId = "76B3AF2C-89AC-4CB1-B1C9-F754B2D43151";
paths = (
{
closed = 1;
nodes = (
"108 869 OFFCURVE",
"60 808 OFFCURVE",
"60 714 CURVE SMOOTH",
"60 -122 LINE",
"156 -181 LINE",
"156 717 LINE SMOOTH",
"156 768 OFFCURVE",
"169 797 OFFCURVE",
"215 797 CURVE SMOOTH",
"289 797 OFFCURVE",
"350 723 OFFCURVE",
"379 669 CURVE",
"411 669 LINE",
"377 751 OFFCURVE",
"300 869 OFFCURVE",
"188 869 CURVE SMOOTH"
);
}
);
width = 164;
}
);
leftMetricsKey = i_marc;
unicode = 11CB1;
script = marc;
category = Mark;
},
{
glyphname = u_marc;
lastChange = "2017-12-13 22:26:47 +0000";
layers = (
{
layerId = "76B3AF2C-89AC-4CB1-B1C9-F754B2D43151";
paths = (
{
closed = 1;
nodes = (
"-107 99 LINE",
"-107 -64 LINE",
"-428 -64 LINE",
"-428 -150 LINE",
"-11 -150 LINE",
"-11 99 LINE"
);
}
);
width = 0;
}
);
unicode = 11CB2;
script = marc;
category = Mark;
},
{
glyphname = e_marc;
lastChange = "2017-12-13 22:26:47 +0000";
layers = (
{
layerId = "76B3AF2C-89AC-4CB1-B1C9-F754B2D43151";
paths = (
{
closed = 1;
nodes = (
"490 678 LINE",
"60 678 LINE",
"60 592 LINE",
"394 592 LINE",
"394 520 LINE",
"490 520 LINE"
);
}
);
width = 0;
}
);
unicode = 11CB3;
script = marc;
category = Mark;
},
{
glyphname = o_marc;
lastChange = "2017-12-13 22:26:47 +0000";
layers = (
{
layerId = "76B3AF2C-89AC-4CB1-B1C9-F754B2D43151";
paths = (
{
closed = 1;
nodes = (
"-667 592 LINE",
"-156 592 LINE",
"-156 59 LINE",
"-60 0 LINE",
"-60 678 LINE",
"-667 678 LINE"
);
}
);
width = 0;
}
);
rightMetricsKey = o_marc;
unicode = 11CB4;
script = marc;
category = Mark;
},
{
glyphname = anusvara_marc;
lastChange = "2017-12-13 22:26:47 +0000";
layers = (
{
layerId = "76B3AF2C-89AC-4CB1-B1C9-F754B2D43151";
paths = (
{
closed = 1;
nodes = (
"-291 593 LINE",
"-116 505 LINE",
"21 664 LINE",
"-154 752 LINE"
);
},
{
closed = 1;
nodes = (
"-77 653 LINE",
"-142 577 LINE",
"-195 603 LINE",
"-129 679 LINE"
);
}
);
width = 0;
}
);
unicode = 11CB5;
script = marc;
category = Mark;
},
{
glyphname = candrabindu_marc;
lastChange = "2017-12-13 22:26:47 +0000";
layers = (
{
layerId = "76B3AF2C-89AC-4CB1-B1C9-F754B2D43151";
paths = (
{
closed = 1;
nodes = (
"-269 708 LINE",
"-94 620 LINE",
"43 779 LINE",
"-132 867 LINE"
);
},
{
closed = 1;
nodes = (
"-55 768 LINE",
"-120 692 LINE",
"-173 718 LINE",
"-107 794 LINE"
);
},
{
closed = 1;
nodes = (
"83 705 OFFCURVE",
"18 565 OFFCURVE",
"-117 565 CURVE SMOOTH",
"-207 565 OFFCURVE",
"-285 625 OFFCURVE",
"-312 653 CURVE",
"-360 637 LINE",
"-331 591 OFFCURVE",
"-240 492 OFFCURVE",
"-95 492 CURVE SMOOTH",
"88 492 OFFCURVE",
"169 663 OFFCURVE",
"190 715 CURVE",
"99 746 LINE"
);
}
);
width = 0;
}
);
unicode = 11CB6;
script = marc;
category = Mark;
},
{
glyphname = candrabindu_marc.narrow;
lastChange = "2017-12-13 22:26:47 +0000";
layers = (
{
layerId = "76B3AF2C-89AC-4CB1-B1C9-F754B2D43151";
paths = (
{
closed = 1;
nodes = (
"-269 708 LINE",
"-94 620 LINE",
"43 779 LINE",
"-132 867 LINE"
);
},
{
closed = 1;
nodes = (
"-55 768 LINE",
"-120 692 LINE",
"-173 718 LINE",
"-107 794 LINE"
);
},
{
closed = 1;
nodes = (
"55 694 OFFCURVE",
"8 565 OFFCURVE",
"-117 565 CURVE SMOOTH",
"-183 565 OFFCURVE",
"-241 598 OFFCURVE",
"-272 626 CURVE",
"-320 610 LINE",
"-291 564 OFFCURVE",
"-207 492 OFFCURVE",
"-102 492 CURVE SMOOTH",
"71 492 OFFCURVE",
"140 653 OFFCURVE",
"160 705 CURVE",
"69 736 LINE"
);
}
);
width = 0;
}
);
script = marc;
category = Mark;
},
{
glyphname = ka_marc.sub;
lastChange = "2017-12-13 22:26:47 +0000";
layers = (
{
layerId = "76B3AF2C-89AC-4CB1-B1C9-F754B2D43151";
paths = (
{
closed = 1;
nodes = (
"-461 -18 LINE",
"-295 -18 LINE",
"-295 -139 LINE",
"-342 -117 OFFCURVE",
"-404 -106 OFFCURVE",
"-461 -109 CURVE",
"-461 -410 LINE",
"-365 -469 LINE",
"-365 -193 LINE",
"-341 -191 OFFCURVE",
"-319 -196 OFFCURVE",
"-295 -208 CURVE",
"-295 -450 LINE",
"-199 -509 LINE",
"-199 -18 LINE",
"-129 -18 LINE",
"-129 -473 LINE",
"-33 -532 LINE",
"-33 68 LINE",
"-461 68 LINE"
);
}
);
width = 0;
}
);
unicode = 11C92;
script = marc;
category = Mark;
},
{
glyphname = kha_marc.sub;
lastChange = "2017-12-13 22:26:47 +0000";
layers = (
{
layerId = "76B3AF2C-89AC-4CB1-B1C9-F754B2D43151";
paths = (
{
closed = 1;
nodes = (
"-221 -174 LINE",
"-62 -174 LINE",
"-62 -88 LINE",
"-221 -88 LINE",
"-221 -18 LINE",
"-62 -18 LINE",
"-62 68 LINE",
"-483 68 LINE",
"-483 -18 LINE",
"-317 -18 LINE",
"-317 -88 LINE",
"-483 -88 LINE",
"-483 -531 LINE",
"-387 -531 LINE",
"-387 -174 LINE",
"-317 -174 LINE",
"-317 -381 LINE",
"-235 -381 OFFCURVE",
"-125 -386 OFFCURVE",
"-51 -497 CURVE",
"-5 -489 LINE",
"-55 -374 OFFCURVE",
"-137 -319 OFFCURVE",
"-221 -299 CURVE"
);
}
);
width = 0;
}
);
unicode = 11C93;
script = marc;
category = Mark;
},
{
glyphname = ga_marc.sub;
lastChange = "2017-12-13 22:26:47 +0000";
layers = (
{
layerId = "76B3AF2C-89AC-4CB1-B1C9-F754B2D43151";
paths = (
{
closed = 1;
nodes = (
"-443 -18 LINE",
"-277 -18 LINE",
"-277 -88 LINE",
"-443 -88 LINE",
"-443 -330 LINE",
"-395 -330 LINE",
"-465 -462 LINE",
"-453 -508 LINE",
"-429 -489 OFFCURVE",
"-390 -472 OFFCURVE",
"-341 -472 CURVE SMOOTH",
"-294 -472 OFFCURVE",
"-249 -488 OFFCURVE",
"-211 -526 CURVE",
"-165 -518 LINE",
"-206 -439 OFFCURVE",
"-286 -393 OFFCURVE",
"-348 -393 CURVE SMOOTH",
"-354 -393 OFFCURVE",
"-362 -393 OFFCURVE",
"-370 -395 CURVE",
"-336 -330 LINE",
"-210 -330 LINE",
"-192 -244 LINE",
"-347 -244 LINE",
"-347 -174 LINE",
"-191 -174 LINE",
"-191 -18 LINE",
"-121 -18 LINE",
"-121 -532 LINE",
"-25 -532 LINE",
"-25 68 LINE",
"-443 68 LINE"
);
}
);
width = 0;
}
);
unicode = 11C94;
script = marc;
category = Mark;
},
{
glyphname = nga_marc.sub;
lastChange = "2017-12-13 22:26:47 +0000";
layers = (
{
layerId = "76B3AF2C-89AC-4CB1-B1C9-F754B2D43151";
paths = (
{
closed = 1;
nodes = (
"-373 -174 LINE",
"-118 -174 LINE",
"-100 -88 LINE",
"-236 -88 LINE",
"-236 -18 LINE",
"-100 -18 LINE",
"-100 68 LINE",
"-470 68 LINE",
"-470 -18 LINE",
"-332 -18 LINE",
"-332 -88 LINE",
"-470 -88 LINE",
"-470 -422 LINE",
"-199 -422 OFFCURVE",
"-129 -464 OFFCURVE",
"-68 -518 CURVE",
"-22 -510 LINE",
"-136 -367 OFFCURVE",
"-242 -339 OFFCURVE",
"-373 -336 CURVE"
);
}
);
width = 0;
}
);
unicode = 11C95;
script = marc;
category = Mark;
},
{
glyphname = ca_marc.sub;
lastChange = "2017-12-13 22:26:47 +0000";
layers = (
{
layerId = "76B3AF2C-89AC-4CB1-B1C9-F754B2D43151";
paths = (
{
closed = 1;
nodes = (
"-525 -18 LINE",
"-382 -18 LINE",
"-382 -88 LINE",
"-522 -88 LINE",
"-522 -482 LINE",
"-426 -541 LINE",
"-426 -174 LINE",
"-236 -174 LINE",
"-236 -244 LINE",
"-355 -244 LINE",
"-355 -466 LINE",
"-291 -466 OFFCURVE",
"-222 -465 OFFCURVE",
"-152 -532 CURVE",
"-106 -524 LINE",
"-147 -444 OFFCURVE",
"-207 -390 OFFCURVE",
"-269 -380 CURVE",
"-269 -330 LINE",
"-140 -330 LINE",
"-140 -88 LINE",
"-286 -88 LINE",
"-286 -18 LINE",
"-70 -18 LINE",
"-70 -534 LINE",
"26 -593 LINE",
"26 68 LINE",
"-525 68 LINE"
);
}
);
width = 0;
}
);
unicode = 11C96;
script = marc;
category = Mark;
},
{
glyphname = cha_marc.sub;
lastChange = "2017-12-13 22:26:47 +0000";
layers = (
{
layerId = "76B3AF2C-89AC-4CB1-B1C9-F754B2D43151";
paths = (
{
closed = 1;
nodes = (
"-218 -394 OFFCURVE",
"-226 -394 OFFCURVE",
"-234 -396 CURVE",
"-199 -330 LINE",
"-86 -330 LINE",
"-86 -88 LINE",
"-227 -88 LINE",
"-227 -18 LINE",
"-86 -18 LINE",
"-86 68 LINE",
"-458 68 LINE",
"-458 -18 LINE",
"-323 -18 LINE",
"-323 -88 LINE",
"-458 -88 LINE",
"-458 -532 LINE",
"-362 -532 LINE",
"-362 -174 LINE",
"-182 -174 LINE",
"-182 -244 LINE",
"-292 -244 LINE",
"-292 -330 LINE",
"-258 -330 LINE",
"-329 -463 LINE",
"-317 -509 LINE",
"-293 -490 OFFCURVE",
"-254 -473 OFFCURVE",
"-205 -473 CURVE SMOOTH",
"-158 -473 OFFCURVE",
"-113 -489 OFFCURVE",
"-75 -527 CURVE",
"-29 -519 LINE",
"-70 -440 OFFCURVE",
"-150 -394 OFFCURVE",
"-212 -394 CURVE SMOOTH"
);
}
);
width = 0;
}
);
unicode = 11C97;
script = marc;
category = Mark;
},
{
glyphname = ja_marc.sub;
lastChange = "2017-12-13 22:26:47 +0000";
layers = (
{
layerId = "76B3AF2C-89AC-4CB1-B1C9-F754B2D43151";
paths = (
{
closed = 1;
nodes = (
"-207 -391 OFFCURVE",
"-215 -391 OFFCURVE",
"-223 -393 CURVE",
"-190 -330 LINE",
"-76 -330 LINE",
"-76 -88 LINE",
"-322 -88 LINE",
"-322 -18 LINE",
"-76 -18 LINE",
"-76 68 LINE",
"-467 68 LINE",
"-467 -18 LINE",
"-418 -18 LINE",
"-418 -174 LINE",
"-172 -174 LINE",
"-172 -244 LINE",
"-457 -244 LINE",
"-457 -532 LINE",
"-361 -532 LINE",
"-361 -330 LINE",
"-249 -330 LINE",
"-318 -460 LINE",
"-306 -506 LINE",
"-282 -487 OFFCURVE",
"-243 -470 OFFCURVE",
"-194 -470 CURVE SMOOTH",
"-147 -470 OFFCURVE",
"-102 -486 OFFCURVE",
"-64 -524 CURVE",
"-18 -516 LINE",
"-59 -437 OFFCURVE",
"-139 -391 OFFCURVE",
"-201 -391 CURVE SMOOTH"
);
}
);
width = 0;
}
);
unicode = 11C98;
script = marc;
category = Mark;
},
{
glyphname = nya_marc.sub;
lastChange = "2017-12-13 22:26:47 +0000";
layers = (
{
layerId = "76B3AF2C-89AC-4CB1-B1C9-F754B2D43151";
paths = (
{
closed = 1;
nodes = (
"-534 -174 LINE",
"-378 -174 LINE",
"-378 -244 LINE",
"-534 -244 LINE",
"-534 -486 LINE",
"-438 -486 LINE",
"-438 -330 LINE",
"-378 -330 LINE",
"-378 -486 LINE",
"-120 -486 LINE",
"-120 -400 LINE",
"-282 -400 LINE",
"-282 -330 LINE",
"-126 -330 LINE",
"-126 -88 LINE",
"-222 -88 LINE",
"-222 -244 LINE",
"-282 -244 LINE",
"-282 -88 LINE",
"-438 -88 LINE",
"-438 -18 LINE",
"-56 -18 LINE",
"-56 -486 LINE",
"40 -486 LINE",
"40 68 LINE",
"-534 68 LINE"
);
}
);
width = 0;
}
);
unicode = 11C99;
script = marc;
category = Mark;
},
{
glyphname = ta_marc.sub;
lastChange = "2017-12-13 22:26:47 +0000";
layers = (
{
layerId = "76B3AF2C-89AC-4CB1-B1C9-F754B2D43151";
paths = (
{
closed = 1;
nodes = (
"-494 -18 LINE",
"-398 -18 LINE",
"-398 -88 LINE",
"-494 -88 LINE",
"-494 -324 LINE",
"-403 -324 LINE",
"-403 -384 LINE",
"-494 -384 LINE",
"-494 -469 LINE",
"-317 -469 LINE",
"-317 -324 LINE",
"-247 -324 LINE",
"-247 -469 LINE",
"-161 -469 LINE",
"-161 -238 LINE",
"-398 -238 LINE",
"-398 -174 LINE",
"-161 -174 LINE",
"-161 -88 LINE",
"-302 -88 LINE",
"-302 -18 LINE",
"-91 -18 LINE",
"-91 -469 LINE",
"5 -469 LINE",
"5 68 LINE",
"-494 68 LINE"
);
}
);
width = 0;
}
);
unicode = 11C9A;
script = marc;
category = Mark;
},
{
glyphname = tha_marc.sub;
lastChange = "2017-12-13 22:26:47 +0000";
layers = (
{
layerId = "76B3AF2C-89AC-4CB1-B1C9-F754B2D43151";
paths = (
{
closed = 1;
nodes = (
"-459 -18 LINE",
"-127 -18 LINE",
"-127 -406 LINE",
"-197 -406 LINE",
"-197 -88 LINE",
"-459 -88 LINE",
"-459 -174 LINE",
"-293 -174 LINE",
"-293 -244 LINE",
"-459 -244 LINE",
"-459 -492 LINE",
"-363 -492 LINE",
"-363 -330 LINE",
"-293 -330 LINE",
"-293 -492 LINE",
"-31 -492 LINE",
"-31 68 LINE",
"-459 68 LINE"
);
}
);
width = 0;
}
);
unicode = 11C9B;
script = marc;
category = Mark;
},
{
glyphname = da_marc.sub;
lastChange = "2017-12-13 22:26:47 +0000";
layers = (
{
layerId = "76B3AF2C-89AC-4CB1-B1C9-F754B2D43151";
paths = (
{
closed = 1;
nodes = (
"-464 68 LINE",
"-464 -170 LINE",
"-295 -170 LINE",
"-295 -240 LINE",
"-464 -240 LINE",
"-464 -460 LINE",
"-388 -460 OFFCURVE",
"-317 -461 OFFCURVE",
"-247 -526 CURVE",
"-201 -518 LINE",
"-244 -438 OFFCURVE",
"-308 -384 OFFCURVE",
"-378 -374 CURVE",
"-378 -325 LINE",
"-199 -325 LINE",
"-199 -88 LINE",
"-368 -88 LINE",
"-368 -18 LINE",
"-129 -18 LINE",
"-129 -530 LINE",
"-33 -530 LINE",
"-33 68 LINE"
);
}
);
width = 0;
}
);
unicode = 11C9C;
script = marc;
category = Mark;
},
{
glyphname = na_marc.sub;
lastChange = "2017-12-13 22:26:47 +0000";
layers = (
{
layerId = "76B3AF2C-89AC-4CB1-B1C9-F754B2D43151";
paths = (
{
closed = 1;
nodes = (
"-38 68 LINE",
"-456 68 LINE",
"-456 -18 LINE",
"-300 -18 LINE",
"-300 -88 LINE",
"-456 -88 LINE",
"-456 -174 LINE",
"-300 -174 LINE",
"-300 -244 LINE",
"-456 -244 LINE",
"-456 -330 LINE",
"-300 -330 LINE",
"-300 -400 LINE",
"-456 -400 LINE",
"-456 -486 LINE",
"-204 -486 LINE",
"-204 -174 LINE",
"-134 -174 LINE",
"-134 -486 LINE",
"-38 -486 LINE",
"-38 -88 LINE",
"-204 -88 LINE",
"-204 -18 LINE",
"-38 -18 LINE"
);
}
);
width = 0;
}
);
unicode = 11C9D;
script = marc;
category = Mark;
},
{
glyphname = pa_marc.sub;
lastChange = "2017-12-13 22:26:47 +0000";
layers = (
{
layerId = "76B3AF2C-89AC-4CB1-B1C9-F754B2D43151";
paths = (
{
closed = 1;
nodes = (
"-358 68 LINE",
"-358 -164 LINE",
"-241 -164 LINE",
"-241 -226 LINE",
"-420 -226 LINE",
"-420 68 LINE",
"-516 68 LINE",
"-516 -312 LINE",
"-375 -312 LINE",
"-375 -382 LINE",
"-513 -382 LINE",
"-513 -468 LINE",
"-145 -468 LINE",
"-145 -382 LINE",
"-279 -382 LINE",
"-279 -312 LINE",
"-145 -312 LINE",
"-145 -78 LINE",
"-262 -78 LINE",
"-262 -18 LINE",
"-75 -18 LINE",
"-75 -468 LINE",
"21 -468 LINE",
"21 68 LINE"
);
}
);
width = 0;
}
);
unicode = 11C9E;
script = marc;
category = Mark;
},
{
glyphname = pha_marc.sub;
lastChange = "2017-12-13 22:26:47 +0000";
layers = (
{
layerId = "76B3AF2C-89AC-4CB1-B1C9-F754B2D43151";
paths = (
{
closed = 1;
nodes = (
"-480 -311 LINE",
"-344 -311 LINE",
"-344 -381 LINE",
"-480 -381 LINE",
"-480 -467 LINE",
"-120 -467 LINE",
"-120 -381 LINE",
"-258 -381 LINE",
"-258 -311 LINE",
"-120 -311 LINE",
"-120 -88 LINE",
"-394 -88 LINE",
"-394 -18 LINE",
"-50 -18 LINE",
"-50 -465 LINE",
"46 -465 LINE",
"46 68 LINE",
"-480 68 LINE"
);
},
{
closed = 1;
nodes = (
"-206 -225 LINE",
"-394 -225 LINE",
"-394 -174 LINE",
"-206 -174 LINE"
);
}
);
width = 0;
}
);
unicode = 11C9F;
script = marc;
category = Mark;
},
{
glyphname = ba_marc.sub;
lastChange = "2017-12-13 22:26:47 +0000";
layers = (
{
layerId = "76B3AF2C-89AC-4CB1-B1C9-F754B2D43151";
paths = (
{
closed = 1;
nodes = (
"-473 -164 LINE",
"-365 -164 LINE",
"-365 -224 LINE",
"-473 -224 LINE",
"-473 -446 LINE",
"-174 -446 LINE",
"-174 -224 LINE",
"-279 -224 LINE",
"-279 -164 LINE",
"-174 -164 LINE",
"-174 -78 LINE",
"-387 -78 LINE",
"-387 -18 LINE",
"-114 -18 LINE",
"-114 -472 LINE",
"-18 -531 LINE",
"-18 68 LINE",
"-473 68 LINE"
);
},
{
closed = 1;
nodes = (
"-423 -360 LINE",
"-423 -310 LINE",
"-224 -310 LINE",
"-224 -360 LINE"
);
}
);
width = 0;
}
);
unicode = 11CA0;
script = marc;
category = Mark;
},
{
glyphname = ma_marc.sub;
lastChange = "2017-12-13 22:26:47 +0000";
layers = (
{
layerId = "76B3AF2C-89AC-4CB1-B1C9-F754B2D43151";
paths = (
{
closed = 1;
nodes = (
"-470 -18 LINE",
"-360 -18 LINE",
"-360 -88 LINE",
"-470 -88 LINE",
"-470 -318 LINE",
"-277 -318 LINE",
"-277 -388 LINE",
"-470 -388 LINE",
"-470 -468 LINE",
"-191 -468 LINE",
"-191 -238 LINE",
"-384 -238 LINE",
"-384 -168 LINE",
"-191 -168 LINE",
"-191 -88 LINE",
"-264 -88 LINE",
"-264 -18 LINE",
"-121 -18 LINE",
"-121 -468 LINE",
"-25 -468 LINE",
"-25 68 LINE",
"-470 68 LINE"
);
}
);
width = 0;
}
);
unicode = 11CA1;
script = marc;
category = Mark;
},
{
glyphname = tsa_marc.sub;
lastChange = "2017-12-13 22:26:47 +0000";
layers = (
{
layerId = "76B3AF2C-89AC-4CB1-B1C9-F754B2D43151";
paths = (
{
closed = 1;
nodes = (
"-158 -317 LINE",
"-53 -317 LINE",
"-53 -231 LINE",
"-236 -231 LINE",
"-236 -171 LINE",
"-53 -171 LINE",
"-53 -85 LINE",
"-146 -85 LINE",
"-146 -18 LINE",
"-53 -18 LINE",
"-53 68 LINE",
"-488 68 LINE",
"-488 -515 LINE",
"-392 -515 LINE",
"-392 -18 LINE",
"-233 -18 LINE",
"-233 -85 LINE",
"-332 -85 LINE",
"-332 -317 LINE",
"-234 -317 LINE",
"-234 -371 LINE",
"-263 -374 OFFCURVE",
"-300 -382 OFFCURVE",
"-341 -402 CURVE",
"-349 -484 LINE",
"-314 -463 OFFCURVE",
"-247 -441 OFFCURVE",
"-192 -441 CURVE SMOOTH",
"-140 -441 OFFCURVE",
"-92 -461 OFFCURVE",
"-50 -505 CURVE",
"-4 -497 LINE",
"-41 -430 OFFCURVE",
"-91 -387 OFFCURVE",
"-158 -373 CURVE"
);
}
);
width = 0;
}
);
unicode = 11CA2;
script = marc;
category = Mark;
},
{
glyphname = tsha_marc.sub;
lastChange = "2017-12-13 22:26:47 +0000";
layers = (
{
layerId = "76B3AF2C-89AC-4CB1-B1C9-F754B2D43151";
paths = (
{
closed = 1;
nodes = (
"-14 68 LINE",
"-447 68 LINE",
"-447 -18 LINE",
"-284 -18 LINE",
"-284 -78 LINE",
"-447 -78 LINE",
"-447 -310 LINE",
"-356 -310 LINE",
"-356 -355 LINE",
"-382 -359 OFFCURVE",
"-412 -369 OFFCURVE",
"-443 -386 CURVE",
"-451 -468 LINE",
"-418 -446 OFFCURVE",
"-376 -425 OFFCURVE",
"-328 -425 CURVE SMOOTH",
"-282 -425 OFFCURVE",
"-234 -445 OFFCURVE",
"-192 -489 CURVE",
"-146 -481 LINE",
"-181 -418 OFFCURVE",
"-228 -376 OFFCURVE",
"-280 -360 CURVE",
"-280 -310 LINE",
"-180 -310 LINE",
"-180 -224 LINE",
"-351 -224 LINE",
"-351 -164 LINE",
"-110 -164 LINE",
"-110 -491 LINE",
"-14 -491 LINE",
"-14 -78 LINE",
"-188 -78 LINE",
"-188 -18 LINE",
"-14 -18 LINE"
);
}
);
width = 0;
}
);
unicode = 11CA3;
script = marc;
category = Mark;
},
{
glyphname = dza_marc.sub;
lastChange = "2017-12-13 22:26:47 +0000";
layers = (
{
layerId = "76B3AF2C-89AC-4CB1-B1C9-F754B2D43151";
paths = (
{
closed = 1;
nodes = (
"-53 -168 LINE",
"-35 -88 LINE",
"-139 -88 LINE",
"-139 -18 LINE",
"-36 -18 LINE",
"-36 68 LINE",
"-467 68 LINE",
"-467 -531 LINE",
"-371 -531 LINE",
"-371 -18 LINE",
"-235 -18 LINE",
"-235 -88 LINE",
"-301 -88 LINE",
"-301 -318 LINE",
"-122 -318 LINE",
"-122 -410 LINE",
"-186 -392 OFFCURVE",
"-242 -385 OFFCURVE",
"-301 -385 CURVE",
"-301 -465 LINE",
"-210 -466 OFFCURVE",
"-141 -480 OFFCURVE",
"-36 -522 CURVE",
"-36 -238 LINE",
"-215 -238 LINE",
"-215 -168 LINE"
);
}
);
width = 0;
}
);
unicode = 11CA4;
script = marc;
category = Mark;
},
{
glyphname = wa_marc.sub;
lastChange = "2017-12-13 22:26:47 +0000";
layers = (
{
layerId = "76B3AF2C-89AC-4CB1-B1C9-F754B2D43151";
paths = (
{
closed = 1;
nodes = (
"-99 55 LINE",
"-440 55 LINE",
"-440 -160 LINE",
"-3 -160 LINE",
"-3 180 LINE",
"-99 180 LINE"
);
},
{
closed = 1;
nodes = (
"-390 -31 LINE",
"-99 -31 LINE",
"-99 -74 LINE",
"-390 -74 LINE"
);
}
);
width = 0;
}
);
unicode = 11CA5;
script = marc;
category = Mark;
},
{
glyphname = zha_marc.sub;
lastChange = "2017-12-13 22:26:47 +0000";
layers = (
{
layerId = "76B3AF2C-89AC-4CB1-B1C9-F754B2D43151";
paths = (
{
closed = 1;
nodes = (
"-202 -330 LINE",
"-73 -330 LINE",
"-73 -88 LINE",
"-219 -88 LINE",
"-219 -18 LINE",
"-74 -18 LINE",
"-74 68 LINE",
"-458 68 LINE",
"-458 -18 LINE",
"-315 -18 LINE",
"-315 -88 LINE",
"-455 -88 LINE",
"-455 -541 LINE",
"-359 -541 LINE",
"-359 -174 LINE",
"-169 -174 LINE",
"-169 -244 LINE",
"-288 -244 LINE",
"-288 -466 LINE",
"-212 -466 OFFCURVE",
"-141 -467 OFFCURVE",
"-71 -532 CURVE",
"-25 -524 LINE",
"-68 -444 OFFCURVE",
"-132 -390 OFFCURVE",
"-202 -380 CURVE"
);
}
);
width = 0;
}
);
unicode = 11CA6;
script = marc;
category = Mark;
},
{
glyphname = za_marc.sub;
lastChange = "2017-12-13 22:26:47 +0000";
layers = (
{
layerId = "76B3AF2C-89AC-4CB1-B1C9-F754B2D43151";
paths = (
{
closed = 1;
nodes = (
"-493 -17 LINE",
"-344 -17 LINE",
"-344 -87 LINE",
"-493 -87 LINE",
"-493 -173 LINE",
"-252 -173 LINE",
"-252 -243 LINE",
"-493 -243 LINE",
"-493 -531 LINE",
"-397 -531 LINE",
"-397 -329 LINE",
"-337 -329 LINE",
"-337 -485 LINE",
"-166 -485 LINE",
"-166 -399 LINE",
"-251 -399 LINE",
"-251 -329 LINE",
"-166 -329 LINE",
"-166 -87 LINE",
"-248 -87 LINE",
"-248 -17 LINE",
"-96 -17 LINE",
"-96 -531 LINE",
"0 -531 LINE",
"0 69 LINE",
"-493 69 LINE"
);
}
);
width = 0;
}
);
unicode = 11CA7;
script = marc;
category = Mark;
},
{
glyphname = aa_marc.sub;
lastChange = "2017-12-13 22:26:47 +0000";
layers = (
{
layerId = "76B3AF2C-89AC-4CB1-B1C9-F754B2D43151";
paths = (
{
closed = 1;
nodes = (
"-461 -18 LINE",
"-129 -18 LINE",
"-129 -78 LINE",
"-461 -78 LINE",
"-461 -164 LINE",
"-295 -164 LINE",
"-295 -265 LINE",
"-342 -243 OFFCURVE",
"-404 -232 OFFCURVE",
"-461 -235 CURVE",
"-461 -392 LINE",
"-365 -451 LINE",
"-365 -319 LINE",
"-341 -317 OFFCURVE",
"-319 -322 OFFCURVE",
"-295 -334 CURVE",
"-295 -452 LINE",
"-199 -511 LINE",
"-199 -164 LINE",
"-129 -164 LINE",
"-129 -492 LINE",
"-33 -551 LINE",
"-33 68 LINE",
"-461 68 LINE"
);
}
);
width = 0;
}
);
unicode = 11CB0;
script = marc;
category = Mark;
subCategory = Nonspacing;
},
{
glyphname = ra_marc.sub;
lastChange = "2017-12-13 22:26:47 +0000";
layers = (
{
layerId = "76B3AF2C-89AC-4CB1-B1C9-F754B2D43151";
paths = (
{
closed = 1;
nodes = (
"-11 -150 LINE",
"-11 100 LINE",
"-107 100 LINE",
"-107 -114 LINE",
"-203 -64 LINE",
"-428 -64 LINE",
"-428 -150 LINE"
);
}
);
width = 0;
}
);
unicode = 11CAA;
script = marc;
category = Mark;
},
{
glyphname = la_marc.sub;
lastChange = "2017-12-13 22:26:47 +0000";
layers = (
{
layerId = "76B3AF2C-89AC-4CB1-B1C9-F754B2D43151";
paths = (
{
closed = 1;
nodes = (
"-319 -88 LINE",
"-389 -88 LINE",
"-389 68 LINE",
"-485 68 LINE",
"-485 -174 LINE",
"-271 -174 LINE",
"-271 -244 LINE",
"-485 -244 LINE",
"-485 -330 LINE",
"-175 -330 LINE",
"-175 -88 LINE",
"-223 -88 LINE",
"-223 -18 LINE",
"-105 -18 LINE",
"-105 -469 LINE",
"-9 -469 LINE",
"-9 68 LINE",
"-319 68 LINE"
);
}
);
width = 0;
}
);
unicode = 11CAB;
script = marc;
category = Mark;
},
{
glyphname = sha_marc.sub;
lastChange = "2017-12-13 22:26:47 +0000";
layers = (
{
layerId = "76B3AF2C-89AC-4CB1-B1C9-F754B2D43151";
paths = (
{
closed = 1;
nodes = (
"-431 -18 LINE",
"-345 -18 LINE",
"-345 -78 LINE",
"-431 -78 LINE",
"-431 -164 LINE",
"-272 -164 LINE",
"-272 -224 LINE",
"-431 -224 LINE",
"-431 -310 LINE",
"-358 -310 LINE",
"-358 -365 LINE",
"-385 -369 OFFCURVE",
"-418 -378 OFFCURVE",
"-453 -396 CURVE",
"-461 -478 LINE",
"-427 -456 OFFCURVE",
"-375 -435 OFFCURVE",
"-324 -435 CURVE SMOOTH",
"-276 -435 OFFCURVE",
"-228 -455 OFFCURVE",
"-186 -499 CURVE",
"-140 -491 LINE",
"-176 -426 OFFCURVE",
"-224 -383 OFFCURVE",
"-282 -369 CURVE",
"-282 -310 LINE",
"-176 -310 LINE",
"-176 -78 LINE",
"-249 -78 LINE",
"-249 -18 LINE",
"-116 -18 LINE",
"-116 -531 LINE",
"-20 -531 LINE",
"-20 68 LINE",
"-431 68 LINE"
);
}
);
width = 0;
}
);
unicode = 11CAC;
script = marc;
category = Mark;
},
{
glyphname = sa_marc.sub;
lastChange = "2017-12-13 22:26:47 +0000";
layers = (
{
layerId = "76B3AF2C-89AC-4CB1-B1C9-F754B2D43151";
paths = (
{
closed = 1;
nodes = (
"-52 68 LINE",
"-442 68 LINE",
"-442 -174 LINE",
"-306 -174 LINE",
"-306 -244 LINE",
"-442 -244 LINE",
"-442 -469 LINE",
"-346 -469 LINE",
"-346 -329 LINE",
"-218 -329 LINE",
"-218 -174 LINE",
"-148 -174 LINE",
"-148 -469 LINE",
"-52 -469 LINE",
"-52 -88 LINE",
"-346 -88 LINE",
"-346 -18 LINE",
"-52 -18 LINE"
);
}
);
width = 0;
}
);
unicode = 11CAD;
script = marc;
category = Mark;
},
{
glyphname = ha_marc.sub;
lastChange = "2017-12-13 22:26:47 +0000";
layers = (
{
layerId = "76B3AF2C-89AC-4CB1-B1C9-F754B2D43151";
paths = (
{
closed = 1;
nodes = (
"-36 68 LINE",
"-457 68 LINE",
"-457 -174 LINE",
"-288 -174 LINE",
"-288 -244 LINE",
"-457 -244 LINE",
"-457 -330 LINE",
"-202 -330 LINE",
"-202 -174 LINE",
"-132 -174 LINE",
"-132 -469 LINE",
"-36 -469 LINE",
"-36 -88 LINE",
"-361 -88 LINE",
"-361 -18 LINE",
"-36 -18 LINE"
);
}
);
width = 0;
}
);
unicode = 11CAE;
script = marc;
category = Mark;
},
{
glyphname = a_marc.sub;
lastChange = "2017-12-13 22:26:47 +0000";
layers = (
{
layerId = "76B3AF2C-89AC-4CB1-B1C9-F754B2D43151";
paths = (
{
closed = 1;
nodes = (
"-542 -76 LINE",
"72 -76 LINE",
"72 -570 LINE",
"168 -629 LINE",
"168 10 LINE",
"-542 10 LINE"
);
},
{
closed = 1;
nodes = (
"-98 -339 OFFCURVE",
"-131 -268 OFFCURVE",
"-160 -218 CURVE",
"-141 -136 LINE",
"-346 -136 LINE",
"-366 -222 LINE",
"-345 -222 LINE",
"-365 -254 OFFCURVE",
"-381 -292 OFFCURVE",
"-385 -340 CURVE",
"-334 -341 OFFCURVE",
"-286 -367 OFFCURVE",
"-286 -400 CURVE SMOOTH",
"-286 -428 OFFCURVE",
"-319 -445 OFFCURVE",
"-361 -445 CURVE SMOOTH",
"-427 -445 OFFCURVE",
"-487 -403 OFFCURVE",
"-487 -315 CURVE SMOOTH",
"-487 -278 OFFCURVE",
"-476 -244 OFFCURVE",
"-453 -222 CURVE",
"-430 -222 LINE",
"-410 -136 LINE",
"-516 -136 LINE",
"-536 -222 LINE",
"-509 -222 LINE",
"-531 -249 OFFCURVE",
"-550 -291 OFFCURVE",
"-550 -345 CURVE SMOOTH",
"-550 -455 OFFCURVE",
"-469 -531 OFFCURVE",
"-377 -531 CURVE SMOOTH",
"-285 -531 OFFCURVE",
"-224 -464 OFFCURVE",
"-224 -375 CURVE SMOOTH",
"-224 -314 OFFCURVE",
"-256 -267 OFFCURVE",
"-302 -253 CURVE",
"-302 -243 OFFCURVE",
"-299 -233 OFFCURVE",
"-293 -222 CURVE",
"-247 -222 LINE",
"-180 -302 OFFCURVE",
"-97 -462 OFFCURVE",
"-76 -553 CURVE",
"2 -569 LINE",
"2 -216 LINE SMOOTH",
"2 -182 OFFCURVE",
"7 -152 OFFCURVE",
"10 -136 CURVE",
"-94 -136 LINE",
"-78 -181 OFFCURVE",
"-73 -303 OFFCURVE",
"-73 -411 CURVE"
);
}
);
width = 0;
}
);
unicode = 11CAF;
script = marc;
category = Mark;
},
{
glyphname = ya_marc.sub;
lastChange = "2017-12-13 22:26:47 +0000";
layers = (
{
layerId = "76B3AF2C-89AC-4CB1-B1C9-F754B2D43151";
paths = (
{
closed = 1;
nodes = (
"151 -46 LINE",
"81 -46 LINE",
"81 480 LINE",
"-76 480 LINE",
"-76 394 LINE",
"-15 394 LINE",
"-15 -120 LINE",
"247 -120 LINE",
"247 678 LINE",
"151 678 LINE"
);
}
);
width = 307;
}
);
unicode = 11CA9;
script = marc;
category = Mark;
},
{
glyphname = a_aa_marc.sub;
lastChange = "2017-12-13 22:26:47 +0000";
layers = (
{
layerId = "76B3AF2C-89AC-4CB1-B1C9-F754B2D43151";
paths = (
{
closed = 1;
nodes = (
"60 592 LINE",
"674 592 LINE",
"674 -628 LINE",
"770 -687 LINE",
"770 678 LINE",
"60 678 LINE"
);
},
{
closed = 1;
nodes = (
"504 329 OFFCURVE",
"471 400 OFFCURVE",
"442 450 CURVE",
"461 532 LINE",
"256 532 LINE",
"236 446 LINE",
"257 446 LINE",
"237 414 OFFCURVE",
"221 376 OFFCURVE",
"217 328 CURVE",
"268 327 OFFCURVE",
"316 301 OFFCURVE",
"316 268 CURVE SMOOTH",
"316 240 OFFCURVE",
"283 223 OFFCURVE",
"241 223 CURVE SMOOTH",
"175 223 OFFCURVE",
"115 265 OFFCURVE",
"115 353 CURVE SMOOTH",
"115 390 OFFCURVE",
"126 424 OFFCURVE",
"149 446 CURVE",
"172 446 LINE",
"192 532 LINE",
"86 532 LINE",
"66 446 LINE",
"93 446 LINE",
"71 419 OFFCURVE",
"52 377 OFFCURVE",
"52 323 CURVE SMOOTH",
"52 213 OFFCURVE",
"133 137 OFFCURVE",
"225 137 CURVE SMOOTH",
"317 137 OFFCURVE",
"378 204 OFFCURVE",
"378 293 CURVE SMOOTH",
"378 354 OFFCURVE",
"346 401 OFFCURVE",
"300 415 CURVE",
"300 425 OFFCURVE",
"303 435 OFFCURVE",
"309 446 CURVE",
"355 446 LINE",
"422 366 OFFCURVE",
"505 206 OFFCURVE",
"526 115 CURVE",
"604 99 LINE",
"604 452 LINE SMOOTH",
"604 486 OFFCURVE",
"609 516 OFFCURVE",
"612 532 CURVE",
"508 532 LINE",
"524 487 OFFCURVE",
"529 365 OFFCURVE",
"529 257 CURVE"
);
},
{
closed = 1;
nodes = (
"508 -37 LINE",
"508 -97 LINE",
"146 -97 LINE",
"146 -183 LINE",
"327 -183 LINE",
"327 -284 LINE",
"280 -262 OFFCURVE",
"203 -251 OFFCURVE",
"146 -254 CURVE",
"146 -449 LINE",
"242 -508 LINE",
"242 -338 LINE",
"266 -336 OFFCURVE",
"303 -341 OFFCURVE",
"327 -353 CURVE",
"327 -491 LINE",
"423 -550 LINE",
"423 -183 LINE",
"508 -183 LINE",
"508 -551 LINE",
"604 -610 LINE",
"604 49 LINE",
"146 49 LINE",
"146 -37 LINE"
);
}
);
width = 830;
}
);
leftMetricsKey = a_marc;
rightMetricsKey = a_marc;
script = marc;
category = Letter;
},
{
glyphname = a_aa_o_marc;
lastChange = "2017-12-13 22:26:47 +0000";
layers = (
{
layerId = "76B3AF2C-89AC-4CB1-B1C9-F754B2D43151";
paths = (
{
closed = 1;
nodes = (
"59 592 LINE",
"840 592 LINE",
"840 -805 LINE",
"936 -864 LINE",
"936 678 LINE",
"59 678 LINE"
);
},
{
closed = 1;
nodes = (
"674 446 LINE",
"674 -758 LINE",
"770 -817 LINE",
"770 532 LINE",
"60 532 LINE",
"60 446 LINE"
);
},
{
closed = 1;
nodes = (
"504 183 OFFCURVE",
"471 254 OFFCURVE",
"442 304 CURVE",
"461 386 LINE",
"256 386 LINE",
"236 300 LINE",
"257 300 LINE",
"237 268 OFFCURVE",
"221 230 OFFCURVE",
"217 182 CURVE",
"268 181 OFFCURVE",
"316 155 OFFCURVE",
"316 122 CURVE SMOOTH",
"316 94 OFFCURVE",
"283 77 OFFCURVE",
"241 77 CURVE SMOOTH",
"175 77 OFFCURVE",
"115 119 OFFCURVE",
"115 207 CURVE SMOOTH",
"115 244 OFFCURVE",
"126 278 OFFCURVE",
"149 300 CURVE",
"172 300 LINE",
"192 386 LINE",
"86 386 LINE",
"66 300 LINE",
"93 300 LINE",
"71 273 OFFCURVE",
"52 231 OFFCURVE",
"52 177 CURVE SMOOTH",
"52 67 OFFCURVE",
"133 -9 OFFCURVE",
"225 -9 CURVE SMOOTH",
"317 -9 OFFCURVE",
"378 58 OFFCURVE",
"378 147 CURVE SMOOTH",
"378 208 OFFCURVE",
"346 255 OFFCURVE",
"300 269 CURVE",
"300 279 OFFCURVE",
"303 289 OFFCURVE",
"309 300 CURVE",
"355 300 LINE",
"422 220 OFFCURVE",
"505 60 OFFCURVE",
"526 -31 CURVE",
"604 -47 LINE",
"604 306 LINE SMOOTH",
"604 340 OFFCURVE",
"609 370 OFFCURVE",
"612 386 CURVE",
"508 386 LINE",
"524 341 OFFCURVE",
"529 219 OFFCURVE",
"529 111 CURVE"
);
},
{
closed = 1;
nodes = (
"508 -177 LINE",
"508 -237 LINE",
"146 -237 LINE",
"146 -323 LINE",
"327 -323 LINE",
"327 -424 LINE",
"280 -402 OFFCURVE",
"203 -391 OFFCURVE",
"146 -394 CURVE",
"146 -589 LINE",
"242 -648 LINE",
"242 -478 LINE",
"266 -476 OFFCURVE",
"303 -481 OFFCURVE",
"327 -493 CURVE",
"327 -621 LINE",
"423 -680 LINE",
"423 -323 LINE",
"508 -323 LINE",
"508 -681 LINE",
"604 -740 LINE",
"604 -91 LINE",
"146 -91 LINE",
"146 -177 LINE"
);
}
);
width = 996;
}
);
leftMetricsKey = a_marc;
rightMetricsKey = o_marc;
script = marc;
category = Letter;
},
{
glyphname = a_e_marc;
lastChange = "2017-12-13 22:26:47 +0000";
layers = (
{
layerId = "76B3AF2C-89AC-4CB1-B1C9-F754B2D43151";
paths = (
{
closed = 1;
nodes = (
"60 592 LINE",
"674 592 LINE",
"674 532 LINE",
"60 532 LINE",
"60 446 LINE",
"674 446 LINE",
"674 -48 LINE",
"770 -107 LINE",
"770 678 LINE",
"60 678 LINE"
);
},
{
closed = 1;
nodes = (
"504 183 OFFCURVE",
"471 254 OFFCURVE",
"442 304 CURVE",
"461 386 LINE",
"256 386 LINE",
"236 300 LINE",
"257 300 LINE",
"237 268 OFFCURVE",
"221 230 OFFCURVE",
"217 182 CURVE",
"268 181 OFFCURVE",
"316 155 OFFCURVE",
"316 122 CURVE SMOOTH",
"316 94 OFFCURVE",
"283 77 OFFCURVE",
"241 77 CURVE SMOOTH",
"175 77 OFFCURVE",
"115 119 OFFCURVE",
"115 207 CURVE SMOOTH",
"115 244 OFFCURVE",
"126 278 OFFCURVE",
"149 300 CURVE",
"172 300 LINE",
"192 386 LINE",
"86 386 LINE",
"66 300 LINE",
"93 300 LINE",
"71 273 OFFCURVE",
"52 231 OFFCURVE",
"52 177 CURVE SMOOTH",
"52 67 OFFCURVE",
"133 -9 OFFCURVE",
"225 -9 CURVE SMOOTH",
"317 -9 OFFCURVE",
"378 58 OFFCURVE",
"378 147 CURVE SMOOTH",
"378 208 OFFCURVE",
"346 255 OFFCURVE",
"300 269 CURVE",
"300 279 OFFCURVE",
"303 289 OFFCURVE",
"309 300 CURVE",
"355 300 LINE",
"422 220 OFFCURVE",
"505 60 OFFCURVE",
"526 -31 CURVE",
"604 -47 LINE",
"604 306 LINE SMOOTH",
"604 340 OFFCURVE",
"609 370 OFFCURVE",
"612 386 CURVE",
"508 386 LINE",
"524 341 OFFCURVE",
"529 219 OFFCURVE",
"529 111 CURVE"
);
}
);
width = 830;
}
);
leftMetricsKey = a_marc;
rightMetricsKey = a_marc;
script = marc;
category = Letter;
},
{
glyphname = a_i_marc;
lastChange = "2017-12-13 22:26:47 +0000";
layers = (
{
layerId = "76B3AF2C-89AC-4CB1-B1C9-F754B2D43151";
paths = (
{
closed = 1;
nodes = (
"371 759 OFFCURVE",
"296 869 OFFCURVE",
"188 869 CURVE SMOOTH",
"108 869 OFFCURVE",
"60 808 OFFCURVE",
"60 714 CURVE SMOOTH",
"60 138 LINE",
"156 79 LINE",
"156 717 LINE SMOOTH",
"156 768 OFFCURVE",
"169 797 OFFCURVE",
"215 797 CURVE SMOOTH",
"285 797 OFFCURVE",
"343 731 OFFCURVE",
"374 678 CURVE",
"226 678 LINE",
"226 592 LINE",
"840 592 LINE",
"840 98 LINE",
"936 39 LINE",
"936 678 LINE",
"407 678 LINE"
);
},
{
closed = 1;
nodes = (
"670 329 OFFCURVE",
"637 400 OFFCURVE",
"608 450 CURVE",
"627 532 LINE",
"422 532 LINE",
"402 446 LINE",
"423 446 LINE",
"403 414 OFFCURVE",
"387 376 OFFCURVE",
"383 328 CURVE",
"434 327 OFFCURVE",
"482 301 OFFCURVE",
"482 268 CURVE SMOOTH",
"482 240 OFFCURVE",
"449 223 OFFCURVE",
"407 223 CURVE SMOOTH",
"341 223 OFFCURVE",
"281 265 OFFCURVE",
"281 353 CURVE SMOOTH",
"281 390 OFFCURVE",
"292 424 OFFCURVE",
"315 446 CURVE",
"338 446 LINE",
"358 532 LINE",
"252 532 LINE",
"232 446 LINE",
"259 446 LINE",
"237 419 OFFCURVE",
"218 377 OFFCURVE",
"218 323 CURVE SMOOTH",
"218 213 OFFCURVE",
"299 137 OFFCURVE",
"391 137 CURVE SMOOTH",
"483 137 OFFCURVE",
"544 204 OFFCURVE",
"544 293 CURVE SMOOTH",
"544 354 OFFCURVE",
"512 401 OFFCURVE",
"466 415 CURVE",
"466 425 OFFCURVE",
"469 435 OFFCURVE",
"475 446 CURVE",
"521 446 LINE",
"588 366 OFFCURVE",
"671 206 OFFCURVE",
"692 115 CURVE",
"770 99 LINE",
"770 452 LINE SMOOTH",
"770 486 OFFCURVE",
"775 516 OFFCURVE",
"778 532 CURVE",
"674 532 LINE",
"690 487 OFFCURVE",
"695 365 OFFCURVE",
"695 257 CURVE"
);
}
);
width = 996;
}
);
leftMetricsKey = i_marc;
rightMetricsKey = a_marc;
script = marc;
category = Letter;
},
{
glyphname = a_o_marc;
lastChange = "2017-12-13 22:26:47 +0000";
layers = (
{
layerId = "76B3AF2C-89AC-4CB1-B1C9-F754B2D43151";
paths = (
{
closed = 1;
nodes = (
"59 592 LINE",
"840 592 LINE",
"840 -107 LINE",
"936 -166 LINE",
"936 678 LINE",
"59 678 LINE"
);
},
{
closed = 1;
nodes = (
"674 446 LINE",
"674 -48 LINE",
"770 -107 LINE",
"770 532 LINE",
"60 532 LINE",
"60 446 LINE"
);
},
{
closed = 1;
nodes = (
"504 183 OFFCURVE",
"471 254 OFFCURVE",
"442 304 CURVE",
"461 386 LINE",
"256 386 LINE",
"236 300 LINE",
"257 300 LINE",
"237 268 OFFCURVE",
"221 230 OFFCURVE",
"217 182 CURVE",
"268 181 OFFCURVE",
"316 155 OFFCURVE",
"316 122 CURVE SMOOTH",
"316 94 OFFCURVE",
"283 77 OFFCURVE",
"241 77 CURVE SMOOTH",
"175 77 OFFCURVE",
"115 119 OFFCURVE",
"115 207 CURVE SMOOTH",
"115 244 OFFCURVE",
"126 278 OFFCURVE",
"149 300 CURVE",
"172 300 LINE",
"192 386 LINE",
"86 386 LINE",
"66 300 LINE",
"93 300 LINE",
"71 273 OFFCURVE",
"52 231 OFFCURVE",
"52 177 CURVE SMOOTH",
"52 67 OFFCURVE",
"133 -9 OFFCURVE",
"225 -9 CURVE SMOOTH",
"317 -9 OFFCURVE",
"378 58 OFFCURVE",
"378 147 CURVE SMOOTH",
"378 208 OFFCURVE",
"346 255 OFFCURVE",
"300 269 CURVE",
"300 279 OFFCURVE",
"303 289 OFFCURVE",
"309 300 CURVE",
"355 300 LINE",
"422 220 OFFCURVE",
"505 60 OFFCURVE",
"526 -31 CURVE",
"604 -47 LINE",
"604 306 LINE SMOOTH",
"604 340 OFFCURVE",
"609 370 OFFCURVE",
"612 386 CURVE",
"508 386 LINE",
"524 341 OFFCURVE",
"529 219 OFFCURVE",
"529 111 CURVE"
);
}
);
width = 996;
}
);
leftMetricsKey = a_marc;
rightMetricsKey = o_marc;
script = marc;
category = Letter;
},
{
glyphname = a_ra.sub;
lastChange = "2017-12-13 22:26:47 +0000";
layers = (
{
layerId = "76B3AF2C-89AC-4CB1-B1C9-F754B2D43151";
paths = (
{
closed = 1;
nodes = (
"60 592 LINE",
"674 592 LINE",
"674 -11 LINE",
"578 39 LINE",
"60 39 LINE",
"60 -47 LINE",
"770 -47 LINE",
"770 678 LINE",
"60 678 LINE"
);
},
{
closed = 1;
nodes = (
"317 137 OFFCURVE",
"378 204 OFFCURVE",
"378 293 CURVE SMOOTH",
"378 354 OFFCURVE",
"346 401 OFFCURVE",
"300 415 CURVE",
"300 425 OFFCURVE",
"303 435 OFFCURVE",
"309 446 CURVE",
"355 446 LINE",
"422 366 OFFCURVE",
"505 206 OFFCURVE",
"526 115 CURVE",
"604 99 LINE",
"604 452 LINE SMOOTH",
"604 486 OFFCURVE",
"609 516 OFFCURVE",
"612 532 CURVE",
"508 532 LINE",
"524 487 OFFCURVE",
"529 365 OFFCURVE",
"529 257 CURVE",
"504 329 OFFCURVE",
"471 400 OFFCURVE",
"442 450 CURVE",
"461 532 LINE",
"256 532 LINE",
"236 446 LINE",
"257 446 LINE",
"237 414 OFFCURVE",
"221 376 OFFCURVE",
"217 328 CURVE",
"268 327 OFFCURVE",
"316 301 OFFCURVE",
"316 268 CURVE SMOOTH",
"316 240 OFFCURVE",
"283 223 OFFCURVE",
"241 223 CURVE SMOOTH",
"175 223 OFFCURVE",
"115 265 OFFCURVE",
"115 353 CURVE SMOOTH",
"115 390 OFFCURVE",
"126 424 OFFCURVE",
"149 446 CURVE",
"172 446 LINE",
"192 532 LINE",
"86 532 LINE",
"66 446 LINE",
"93 446 LINE",
"71 419 OFFCURVE",
"52 377 OFFCURVE",
"52 323 CURVE SMOOTH",
"52 213 OFFCURVE",
"133 137 OFFCURVE",
"225 137 CURVE SMOOTH"
);
}
);
width = 830;
}
);
leftMetricsKey = a_marc;
rightMetricsKey = a_marc;
script = marc;
category = Letter;
},
{
glyphname = a_u_marc;
lastChange = "2017-12-13 22:26:47 +0000";
layers = (
{
layerId = "76B3AF2C-89AC-4CB1-B1C9-F754B2D43151";
paths = (
{
closed = 1;
nodes = (
"60 592 LINE",
"674 592 LINE",
"674 39 LINE",
"60 39 LINE",
"60 -47 LINE",
"770 -47 LINE",
"770 678 LINE",
"60 678 LINE"
);
},
{
closed = 1;
nodes = (
"317 137 OFFCURVE",
"378 204 OFFCURVE",
"378 293 CURVE SMOOTH",
"378 354 OFFCURVE",
"346 401 OFFCURVE",
"300 415 CURVE",
"300 425 OFFCURVE",
"303 435 OFFCURVE",
"309 446 CURVE",
"355 446 LINE",
"422 366 OFFCURVE",
"505 206 OFFCURVE",
"526 115 CURVE",
"604 99 LINE",
"604 452 LINE SMOOTH",
"604 486 OFFCURVE",
"609 516 OFFCURVE",
"612 532 CURVE",
"508 532 LINE",
"524 487 OFFCURVE",
"529 365 OFFCURVE",
"529 257 CURVE",
"504 329 OFFCURVE",
"471 400 OFFCURVE",
"442 450 CURVE",
"461 532 LINE",
"256 532 LINE",
"236 446 LINE",
"257 446 LINE",
"237 414 OFFCURVE",
"221 376 OFFCURVE",
"217 328 CURVE",
"268 327 OFFCURVE",
"316 301 OFFCURVE",
"316 268 CURVE SMOOTH",
"316 240 OFFCURVE",
"283 223 OFFCURVE",
"241 223 CURVE SMOOTH",
"175 223 OFFCURVE",
"115 265 OFFCURVE",
"115 353 CURVE SMOOTH",
"115 390 OFFCURVE",
"126 424 OFFCURVE",
"149 446 CURVE",
"172 446 LINE",
"192 532 LINE",
"86 532 LINE",
"66 446 LINE",
"93 446 LINE",
"71 419 OFFCURVE",
"52 377 OFFCURVE",
"52 323 CURVE SMOOTH",
"52 213 OFFCURVE",
"133 137 OFFCURVE",
"225 137 CURVE SMOOTH"
);
}
);
width = 830;
}
);
leftMetricsKey = a_marc;
rightMetricsKey = a_marc;
script = marc;
category = Letter;
},
{
glyphname = aa_i_marc;
lastChange = "2017-12-13 22:26:47 +0000";
layers = (
{
layerId = "76B3AF2C-89AC-4CB1-B1C9-F754B2D43151";
paths = (
{
closed = 1;
nodes = (
"342 759 OFFCURVE",
"276 869 OFFCURVE",
"181 869 CURVE SMOOTH",
"108 869 OFFCURVE",
"60 808 OFFCURVE",
"60 714 CURVE SMOOTH",
"60 138 LINE",
"156 79 LINE",
"156 717 LINE SMOOTH",
"156 768 OFFCURVE",
"169 797 OFFCURVE",
"207 797 CURVE SMOOTH",
"266 797 OFFCURVE",
"314 731 OFFCURVE",
"342 678 CURVE",
"226 678 LINE",
"226 592 LINE",
"558 592 LINE",
"558 532 LINE",
"226 532 LINE",
"226 446 LINE",
"392 446 LINE",
"392 345 LINE",
"345 367 OFFCURVE",
"283 378 OFFCURVE",
"226 375 CURVE",
"226 180 LINE",
"322 121 LINE",
"322 291 LINE",
"346 293 OFFCURVE",
"368 288 OFFCURVE",
"392 276 CURVE",
"392 138 LINE",
"488 79 LINE",
"488 446 LINE",
"558 446 LINE",
"558 88 LINE",
"654 29 LINE",
"654 678 LINE",
"375 678 LINE"
);
}
);
width = 714;
}
);
leftMetricsKey = i_marc;
rightMetricsKey = a_marc;
script = marc;
category = Letter;
},
{
glyphname = aa_o_marc;
lastChange = "2017-12-13 22:26:47 +0000";
layers = (
{
layerId = "76B3AF2C-89AC-4CB1-B1C9-F754B2D43151";
paths = (
{
closed = 1;
nodes = (
"53 592 LINE",
"550 592 LINE",
"550 -141 LINE",
"646 -200 LINE",
"646 678 LINE",
"53 678 LINE"
);
},
{
closed = 1;
nodes = (
"384 446 LINE",
"384 386 LINE",
"52 386 LINE",
"52 300 LINE",
"218 300 LINE",
"218 199 LINE",
"171 221 OFFCURVE",
"109 232 OFFCURVE",
"52 229 CURVE",
"52 34 LINE",
"148 -25 LINE",
"148 145 LINE",
"172 147 OFFCURVE",
"194 142 OFFCURVE",
"218 130 CURVE",
"218 -8 LINE",
"314 -67 LINE",
"314 300 LINE",
"384 300 LINE",
"384 -68 LINE",
"480 -127 LINE",
"480 532 LINE",
"52 532 LINE",
"52 446 LINE"
);
}
);
width = 706;
}
);
leftMetricsKey = a_marc;
rightMetricsKey = o_marc;
script = marc;
category = Letter;
},
{
glyphname = aa_u_marc;
lastChange = "2017-12-13 22:26:47 +0000";
layers = (
{
layerId = "76B3AF2C-89AC-4CB1-B1C9-F754B2D43151";
paths = (
{
closed = 1;
nodes = (
"68 592 LINE",
"400 592 LINE",
"400 532 LINE",
"68 532 LINE",
"68 446 LINE",
"234 446 LINE",
"234 345 LINE",
"187 367 OFFCURVE",
"125 378 OFFCURVE",
"68 375 CURVE",
"68 180 LINE",
"164 121 LINE",
"164 291 LINE",
"188 293 OFFCURVE",
"210 288 OFFCURVE",
"234 276 CURVE",
"234 138 LINE",
"330 79 LINE",
"330 446 LINE",
"400 446 LINE",
"400 10 LINE",
"60 10 LINE",
"60 -76 LINE",
"496 -76 LINE",
"496 678 LINE",
"68 678 LINE"
);
}
);
width = 556;
}
);
leftMetricsKey = aa_marc;
rightMetricsKey = aa_marc;
script = marc;
category = Letter;
},
{
glyphname = ba_aa_marc.sub;
lastChange = "2017-12-13 22:26:47 +0000";
layers = (
{
layerId = "76B3AF2C-89AC-4CB1-B1C9-F754B2D43151";
paths = (
{
closed = 1;
nodes = (
"60 446 LINE",
"168 446 LINE",
"168 386 LINE",
"60 386 LINE",
"60 164 LINE",
"359 164 LINE",
"359 386 LINE",
"254 386 LINE",
"254 446 LINE",
"359 446 LINE",
"359 532 LINE",
"146 532 LINE",
"146 592 LINE",
"419 592 LINE",
"419 141 LINE",
"515 141 LINE",
"515 678 LINE",
"60 678 LINE"
);
},
{
closed = 1;
nodes = (
"110 250 LINE",
"110 300 LINE",
"309 300 LINE",
"309 250 LINE"
);
},
{
closed = 1;
nodes = (
"419 -5 LINE",
"419 -65 LINE",
"60 -65 LINE",
"60 -151 LINE",
"240 -151 LINE",
"240 -252 LINE",
"193 -230 OFFCURVE",
"117 -219 OFFCURVE",
"60 -222 CURVE",
"60 -417 LINE",
"156 -476 LINE",
"156 -306 LINE",
"180 -304 OFFCURVE",
"216 -309 OFFCURVE",
"240 -321 CURVE",
"240 -459 LINE",
"336 -518 LINE",
"336 -151 LINE",
"419 -151 LINE",
"419 -529 LINE",
"515 -588 LINE",
"515 81 LINE",
"60 81 LINE",
"60 -5 LINE"
);
}
);
width = 575;
}
);
leftMetricsKey = ba_marc;
rightMetricsKey = ba_marc;
script = marc;
category = Letter;
},
{
glyphname = ba_e_marc;
lastChange = "2017-12-13 22:26:47 +0000";
layers = (
{
layerId = "76B3AF2C-89AC-4CB1-B1C9-F754B2D43151";
paths = (
{
closed = 1;
nodes = (
"60 592 LINE",
"419 592 LINE",
"419 532 LINE",
"60 532 LINE",
"60 300 LINE",
"168 300 LINE",
"168 240 LINE",
"60 240 LINE",
"60 18 LINE",
"359 18 LINE",
"359 240 LINE",
"254 240 LINE",
"254 300 LINE",
"359 300 LINE",
"359 386 LINE",
"146 386 LINE",
"146 446 LINE",
"419 446 LINE",
"419 -8 LINE",
"515 -67 LINE",
"515 678 LINE",
"60 678 LINE"
);
},
{
closed = 1;
nodes = (
"110 104 LINE",
"110 154 LINE",
"309 154 LINE",
"309 104 LINE"
);
}
);
width = 575;
}
);
leftMetricsKey = ba_marc;
rightMetricsKey = ba_marc;
script = marc;
category = Letter;
},
{
glyphname = ba_i_marc;
lastChange = "2017-12-13 22:26:47 +0000";
layers = (
{
layerId = "76B3AF2C-89AC-4CB1-B1C9-F754B2D43151";
paths = (
{
closed = 1;
nodes = (
"342 759 OFFCURVE",
"276 869 OFFCURVE",
"181 869 CURVE SMOOTH",
"108 869 OFFCURVE",
"60 808 OFFCURVE",
"60 714 CURVE SMOOTH",
"60 138 LINE",
"156 79 LINE",
"156 717 LINE SMOOTH",
"156 768 OFFCURVE",
"169 797 OFFCURVE",
"207 797 CURVE SMOOTH",
"266 797 OFFCURVE",
"314 731 OFFCURVE",
"342 678 CURVE",
"226 678 LINE",
"226 446 LINE",
"334 446 LINE",
"334 386 LINE",
"226 386 LINE",
"226 164 LINE",
"525 164 LINE",
"525 386 LINE",
"420 386 LINE",
"420 446 LINE",
"525 446 LINE",
"525 532 LINE",
"312 532 LINE",
"312 592 LINE",
"585 592 LINE",
"585 138 LINE",
"681 79 LINE",
"681 678 LINE",
"375 678 LINE"
);
},
{
closed = 1;
nodes = (
"276 250 LINE",
"276 300 LINE",
"475 300 LINE",
"475 250 LINE"
);
}
);
width = 741;
}
);
leftMetricsKey = i_marc;
rightMetricsKey = ba_marc;
script = marc;
category = Letter;
},
{
glyphname = ba_la.sub;
lastChange = "2017-12-13 22:26:47 +0000";
layers = (
{
layerId = "76B3AF2C-89AC-4CB1-B1C9-F754B2D43151";
paths = (
{
closed = 1;
nodes = (
"60 446 LINE",
"175 446 LINE",
"175 386 LINE",
"60 386 LINE",
"60 164 LINE",
"374 164 LINE",
"374 386 LINE",
"261 386 LINE",
"261 446 LINE",
"374 446 LINE",
"374 532 LINE",
"146 532 LINE",
"146 592 LINE",
"442 592 LINE",
"442 141 LINE",
"538 141 LINE",
"538 678 LINE",
"60 678 LINE"
);
},
{
closed = 1;
nodes = (
"110 250 LINE",
"110 300 LINE",
"324 300 LINE",
"324 250 LINE"
);
},
{
closed = 1;
nodes = (
"158 -75 LINE",
"158 81 LINE",
"62 81 LINE",
"62 -161 LINE",
"276 -161 LINE",
"276 -231 LINE",
"62 -231 LINE",
"62 -317 LINE",
"372 -317 LINE",
"372 -75 LINE",
"324 -75 LINE",
"324 -5 LINE",
"442 -5 LINE",
"442 -397 LINE",
"538 -456 LINE",
"538 81 LINE",
"228 81 LINE",
"228 -75 LINE"
);
}
);
width = 598;
}
);
leftMetricsKey = ba_marc;
rightMetricsKey = ba_marc;
script = marc;
category = Letter;
},
{
glyphname = ba_la.sub_e_marc;
lastChange = "2017-12-13 22:26:47 +0000";
layers = (
{
layerId = "76B3AF2C-89AC-4CB1-B1C9-F754B2D43151";
paths = (
{
closed = 1;
nodes = (
"60 592 LINE",
"442 592 LINE",
"442 532 LINE",
"60 532 LINE",
"60 300 LINE",
"175 300 LINE",
"175 240 LINE",
"60 240 LINE",
"60 18 LINE",
"374 18 LINE",
"374 240 LINE",
"261 240 LINE",
"261 300 LINE",
"374 300 LINE",
"374 386 LINE",
"146 386 LINE",
"146 446 LINE",
"442 446 LINE",
"442 -5 LINE",
"538 -5 LINE",
"538 678 LINE",
"60 678 LINE"
);
},
{
closed = 1;
nodes = (
"110 104 LINE",
"110 154 LINE",
"324 154 LINE",
"324 104 LINE"
);
},
{
closed = 1;
nodes = (
"158 -221 LINE",
"158 -65 LINE",
"62 -65 LINE",
"62 -307 LINE",
"276 -307 LINE",
"276 -377 LINE",
"62 -377 LINE",
"62 -463 LINE",
"372 -463 LINE",
"372 -221 LINE",
"324 -221 LINE",
"324 -151 LINE",
"442 -151 LINE",
"442 -543 LINE",
"538 -602 LINE",
"538 -65 LINE",
"228 -65 LINE",
"228 -221 LINE"
);
}
);
width = 598;
}
);
leftMetricsKey = ba_marc;
rightMetricsKey = ba_marc;
script = marc;
category = Letter;
},
{
glyphname = ba_la.sub_i_marc;
lastChange = "2017-12-13 22:26:47 +0000";
layers = (
{
layerId = "76B3AF2C-89AC-4CB1-B1C9-F754B2D43151";
paths = (
{
closed = 1;
nodes = (
"342 759 OFFCURVE",
"276 869 OFFCURVE",
"181 869 CURVE SMOOTH",
"108 869 OFFCURVE",
"60 808 OFFCURVE",
"60 714 CURVE SMOOTH",
"60 -248 LINE",
"156 -307 LINE",
"156 717 LINE SMOOTH",
"156 768 OFFCURVE",
"169 797 OFFCURVE",
"207 797 CURVE SMOOTH",
"266 797 OFFCURVE",
"314 731 OFFCURVE",
"342 678 CURVE",
"226 678 LINE",
"226 446 LINE",
"341 446 LINE",
"341 386 LINE",
"226 386 LINE",
"226 164 LINE",
"540 164 LINE",
"540 386 LINE",
"427 386 LINE",
"427 446 LINE",
"540 446 LINE",
"540 532 LINE",
"312 532 LINE",
"312 592 LINE",
"608 592 LINE",
"608 141 LINE",
"704 141 LINE",
"704 678 LINE",
"375 678 LINE"
);
},
{
closed = 1;
nodes = (
"276 250 LINE",
"276 300 LINE",
"490 300 LINE",
"490 250 LINE"
);
},
{
closed = 1;
nodes = (
"324 -75 LINE",
"324 81 LINE",
"228 81 LINE",
"228 -161 LINE",
"442 -161 LINE",
"442 -231 LINE",
"228 -231 LINE",
"228 -317 LINE",
"538 -317 LINE",
"538 -75 LINE",
"490 -75 LINE",
"490 -5 LINE",
"608 -5 LINE",
"608 -397 LINE",
"704 -456 LINE",
"704 81 LINE",
"394 81 LINE",
"394 -75 LINE"
);
}
);
width = 764;
}
);
leftMetricsKey = i_marc;
rightMetricsKey = ba_marc;
script = marc;
category = Letter;
},
{
glyphname = ba_la.sub_i_marc_short;
lastChange = "2017-12-13 22:26:47 +0000";
layers = (
{
layerId = "76B3AF2C-89AC-4CB1-B1C9-F754B2D43151";
paths = (
{
closed = 1;
nodes = (
"342 759 OFFCURVE",
"276 869 OFFCURVE",
"181 869 CURVE SMOOTH",
"108 869 OFFCURVE",
"60 808 OFFCURVE",
"60 714 CURVE SMOOTH",
"60 138 LINE",
"156 79 LINE",
"156 717 LINE SMOOTH",
"156 768 OFFCURVE",
"169 797 OFFCURVE",
"207 797 CURVE SMOOTH",
"266 797 OFFCURVE",
"314 731 OFFCURVE",
"342 678 CURVE",
"226 678 LINE",
"226 446 LINE",
"341 446 LINE",
"341 386 LINE",
"226 386 LINE",
"226 164 LINE",
"540 164 LINE",
"540 386 LINE",
"427 386 LINE",
"427 446 LINE",
"540 446 LINE",
"540 532 LINE",
"312 532 LINE",
"312 592 LINE",
"608 592 LINE",
"608 141 LINE",
"704 141 LINE",
"704 678 LINE",
"375 678 LINE"
);
},
{
closed = 1;
nodes = (
"276 250 LINE",
"276 300 LINE",
"490 300 LINE",
"490 250 LINE"
);
},
{
closed = 1;
nodes = (
"324 -75 LINE",
"324 81 LINE",
"228 81 LINE",
"228 -161 LINE",
"442 -161 LINE",
"442 -231 LINE",
"228 -231 LINE",
"228 -317 LINE",
"538 -317 LINE",
"538 -75 LINE",
"490 -75 LINE",
"490 -5 LINE",
"608 -5 LINE",
"608 -397 LINE",
"704 -456 LINE",
"704 81 LINE",
"394 81 LINE",
"394 -75 LINE"
);
}
);
width = 764;
}
);
leftMetricsKey = i_marc;
rightMetricsKey = ba_marc;
script = marc;
category = Letter;
},
{
glyphname = ba_la.sub_o_marc;
lastChange = "2017-12-13 22:26:47 +0000";
layers = (
{
layerId = "76B3AF2C-89AC-4CB1-B1C9-F754B2D43151";
paths = (
{
closed = 1;
nodes = (
"60 592 LINE",
"608 592 LINE",
"608 -603 LINE",
"704 -662 LINE",
"704 678 LINE",
"60 678 LINE"
);
},
{
closed = 1;
nodes = (
"60 300 LINE",
"175 300 LINE",
"175 240 LINE",
"60 240 LINE",
"60 18 LINE",
"374 18 LINE",
"374 240 LINE",
"261 240 LINE",
"261 300 LINE",
"374 300 LINE",
"374 386 LINE",
"146 386 LINE",
"146 446 LINE",
"442 446 LINE",
"442 -5 LINE",
"538 -5 LINE",
"538 532 LINE",
"60 532 LINE"
);
},
{
closed = 1;
nodes = (
"110 104 LINE",
"110 154 LINE",
"324 154 LINE",
"324 104 LINE"
);
},
{
closed = 1;
nodes = (
"158 -221 LINE",
"158 -65 LINE",
"62 -65 LINE",
"62 -307 LINE",
"276 -307 LINE",
"276 -377 LINE",
"62 -377 LINE",
"62 -463 LINE",
"372 -463 LINE",
"372 -221 LINE",
"324 -221 LINE",
"324 -151 LINE",
"442 -151 LINE",
"442 -543 LINE",
"538 -602 LINE",
"538 -65 LINE",
"228 -65 LINE",
"228 -221 LINE"
);
}
);
width = 764;
}
);
leftMetricsKey = ba_marc;
rightMetricsKey = o_marc;
script = marc;
category = Letter;
},
{
glyphname = ba_la.sub_u_marc;
lastChange = "2017-12-13 22:26:47 +0000";
layers = (
{
layerId = "76B3AF2C-89AC-4CB1-B1C9-F754B2D43151";
paths = (
{
closed = 1;
nodes = (
"60 446 LINE",
"175 446 LINE",
"175 386 LINE",
"60 386 LINE",
"60 164 LINE",
"374 164 LINE",
"374 386 LINE",
"261 386 LINE",
"261 446 LINE",
"374 446 LINE",
"374 532 LINE",
"146 532 LINE",
"146 592 LINE",
"442 592 LINE",
"442 141 LINE",
"538 141 LINE",
"538 678 LINE",
"60 678 LINE"
);
},
{
closed = 1;
nodes = (
"110 250 LINE",
"110 300 LINE",
"324 300 LINE",
"324 250 LINE"
);
},
{
closed = 1;
nodes = (
"158 -75 LINE",
"158 81 LINE",
"62 81 LINE",
"62 -161 LINE",
"276 -161 LINE",
"276 -231 LINE",
"62 -231 LINE",
"62 -317 LINE",
"372 -317 LINE",
"372 -75 LINE",
"324 -75 LINE",
"324 -5 LINE",
"442 -5 LINE",
"442 -387 LINE",
"62 -387 LINE",
"62 -473 LINE",
"538 -473 LINE",
"538 81 LINE",
"228 81 LINE",
"228 -75 LINE"
);
}
);
width = 598;
}
);
leftMetricsKey = ba_marc;
rightMetricsKey = ba_marc;
script = marc;
category = Letter;
},
{
glyphname = ba_o_marc;
lastChange = "2017-12-13 22:26:47 +0000";
layers = (
{
layerId = "76B3AF2C-89AC-4CB1-B1C9-F754B2D43151";
paths = (
{
closed = 1;
nodes = (
"61 592 LINE",
"585 592 LINE",
"585 -82 LINE",
"681 -141 LINE",
"681 678 LINE",
"61 678 LINE"
);
},
{
closed = 1;
nodes = (
"60 300 LINE",
"168 300 LINE",
"168 240 LINE",
"60 240 LINE",
"60 18 LINE",
"359 18 LINE",
"359 240 LINE",
"254 240 LINE",
"254 300 LINE",
"359 300 LINE",
"359 386 LINE",
"146 386 LINE",
"146 446 LINE",
"419 446 LINE",
"419 -8 LINE",
"515 -67 LINE",
"515 532 LINE",
"60 532 LINE"
);
},
{
closed = 1;
nodes = (
"110 104 LINE",
"110 154 LINE",
"309 154 LINE",
"309 104 LINE"
);
}
);
width = 741;
}
);
leftMetricsKey = ba_marc;
rightMetricsKey = o_marc;
script = marc;
category = Letter;
},
{
glyphname = ba_ra.sub;
lastChange = "2017-12-13 22:26:47 +0000";
layers = (
{
layerId = "76B3AF2C-89AC-4CB1-B1C9-F754B2D43151";
paths = (
{
closed = 1;
nodes = (
"60 446 LINE",
"168 446 LINE",
"168 386 LINE",
"60 386 LINE",
"60 164 LINE",
"359 164 LINE",
"359 386 LINE",
"254 386 LINE",
"254 446 LINE",
"359 446 LINE",
"359 532 LINE",
"146 532 LINE",
"146 592 LINE",
"419 592 LINE",
"419 44 LINE",
"323 94 LINE",
"60 94 LINE",
"60 8 LINE",
"515 8 LINE",
"515 678 LINE",
"60 678 LINE"
);
},
{
closed = 1;
nodes = (
"110 250 LINE",
"110 300 LINE",
"309 300 LINE",
"309 250 LINE"
);
}
);
width = 575;
}
);
leftMetricsKey = ba_marc;
rightMetricsKey = ba_marc;
script = marc;
category = Letter;
},
{
glyphname = ba_ra.sub_e_marc;
lastChange = "2017-12-13 22:26:47 +0000";
layers = (
{
layerId = "76B3AF2C-89AC-4CB1-B1C9-F754B2D43151";
paths = (
{
closed = 1;
nodes = (
"60 592 LINE",
"419 592 LINE",
"419 532 LINE",
"60 532 LINE",
"60 300 LINE",
"168 300 LINE",
"168 240 LINE",
"60 240 LINE",
"60 18 LINE",
"359 18 LINE",
"359 240 LINE",
"254 240 LINE",
"254 300 LINE",
"359 300 LINE",
"359 386 LINE",
"146 386 LINE",
"146 446 LINE",
"419 446 LINE",
"419 -102 LINE",
"323 -52 LINE",
"60 -52 LINE",
"60 -138 LINE",
"515 -138 LINE",
"515 678 LINE",
"60 678 LINE"
);
},
{
closed = 1;
nodes = (
"110 104 LINE",
"110 154 LINE",
"309 154 LINE",
"309 104 LINE"
);
}
);
width = 575;
}
);
leftMetricsKey = ba_marc;
rightMetricsKey = ba_marc;
script = marc;
category = Letter;
},
{
glyphname = ba_ra.sub_i_marc;
lastChange = "2017-12-13 22:26:47 +0000";
layers = (
{
layerId = "76B3AF2C-89AC-4CB1-B1C9-F754B2D43151";
paths = (
{
closed = 1;
nodes = (
"342 759 OFFCURVE",
"276 869 OFFCURVE",
"181 869 CURVE SMOOTH",
"108 869 OFFCURVE",
"60 808 OFFCURVE",
"60 714 CURVE SMOOTH",
"60 -3 LINE",
"156 -62 LINE",
"156 717 LINE SMOOTH",
"156 768 OFFCURVE",
"169 797 OFFCURVE",
"207 797 CURVE SMOOTH",
"266 797 OFFCURVE",
"314 731 OFFCURVE",
"342 678 CURVE",
"226 678 LINE",
"226 446 LINE",
"334 446 LINE",
"334 386 LINE",
"226 386 LINE",
"226 164 LINE",
"525 164 LINE",
"525 386 LINE",
"420 386 LINE",
"420 446 LINE",
"525 446 LINE",
"525 532 LINE",
"312 532 LINE",
"312 592 LINE",
"585 592 LINE",
"585 44 LINE",
"489 94 LINE",
"226 94 LINE",
"226 8 LINE",
"681 8 LINE",
"681 678 LINE",
"375 678 LINE"
);
},
{
closed = 1;
nodes = (
"276 250 LINE",
"276 300 LINE",
"475 300 LINE",
"475 250 LINE"
);
}
);
width = 741;
}
);
leftMetricsKey = i_marc;
rightMetricsKey = ba_marc;
script = marc;
category = Letter;
},
{
glyphname = ba_ra.sub_o_marc;
lastChange = "2017-12-13 22:26:47 +0000";
layers = (
{
layerId = "76B3AF2C-89AC-4CB1-B1C9-F754B2D43151";
paths = (
{
closed = 1;
nodes = (
"60 592 LINE",
"585 592 LINE",
"585 -139 LINE",
"681 -198 LINE",
"681 678 LINE",
"60 678 LINE"
);
},
{
closed = 1;
nodes = (
"60 300 LINE",
"168 300 LINE",
"168 240 LINE",
"60 240 LINE",
"60 18 LINE",
"359 18 LINE",
"359 240 LINE",
"254 240 LINE",
"254 300 LINE",
"359 300 LINE",
"359 386 LINE",
"146 386 LINE",
"146 446 LINE",
"419 446 LINE",
"419 -102 LINE",
"323 -52 LINE",
"60 -52 LINE",
"60 -138 LINE",
"515 -138 LINE",
"515 532 LINE",
"60 532 LINE"
);
},
{
closed = 1;
nodes = (
"110 104 LINE",
"110 154 LINE",
"309 154 LINE",
"309 104 LINE"
);
}
);
width = 741;
}
);
leftMetricsKey = ba_marc;
rightMetricsKey = o_marc;
script = marc;
category = Letter;
},
{
glyphname = ba_ra.sub_u_marc;
lastChange = "2017-12-13 22:26:47 +0000";
layers = (
{
layerId = "76B3AF2C-89AC-4CB1-B1C9-F754B2D43151";
paths = (
{
closed = 1;
nodes = (
"60 446 LINE",
"168 446 LINE",
"168 386 LINE",
"60 386 LINE",
"60 164 LINE",
"359 164 LINE",
"359 386 LINE",
"254 386 LINE",
"254 446 LINE",
"359 446 LINE",
"359 532 LINE",
"146 532 LINE",
"146 592 LINE",
"419 592 LINE",
"419 44 LINE",
"323 94 LINE",
"60 94 LINE",
"60 8 LINE",
"419 8 LINE",
"419 -62 LINE",
"60 -62 LINE",
"60 -148 LINE",
"515 -148 LINE",
"515 678 LINE",
"60 678 LINE"
);
},
{
closed = 1;
nodes = (
"110 250 LINE",
"110 300 LINE",
"309 300 LINE",
"309 250 LINE"
);
}
);
width = 575;
}
);
leftMetricsKey = ba_marc;
rightMetricsKey = ba_marc;
script = marc;
category = Letter;
},
{
glyphname = ba_u_marc;
lastChange = "2017-12-13 22:26:47 +0000";
layers = (
{
layerId = "76B3AF2C-89AC-4CB1-B1C9-F754B2D43151";
paths = (
{
closed = 1;
nodes = (
"60 446 LINE",
"168 446 LINE",
"168 386 LINE",
"60 386 LINE",
"60 164 LINE",
"359 164 LINE",
"359 386 LINE",
"254 386 LINE",
"254 446 LINE",
"359 446 LINE",
"359 532 LINE",
"146 532 LINE",
"146 592 LINE",
"419 592 LINE",
"419 94 LINE",
"60 94 LINE",
"60 8 LINE",
"515 8 LINE",
"515 678 LINE",
"60 678 LINE"
);
},
{
closed = 1;
nodes = (
"110 250 LINE",
"110 300 LINE",
"309 300 LINE",
"309 250 LINE"
);
}
);
width = 575;
}
);
leftMetricsKey = ba_marc;
rightMetricsKey = ba_marc;
script = marc;
category = Letter;
},
{
glyphname = ba_ya.sub;
lastChange = "2017-12-13 22:26:47 +0000";
layers = (
{
layerId = "76B3AF2C-89AC-4CB1-B1C9-F754B2D43151";
paths = (
{
closed = 1;
nodes = (
"585 152 LINE",
"515 152 LINE",
"515 678 LINE",
"60 678 LINE",
"60 446 LINE",
"168 446 LINE",
"168 386 LINE",
"60 386 LINE",
"60 164 LINE",
"359 164 LINE",
"359 386 LINE",
"254 386 LINE",
"254 446 LINE",
"359 446 LINE",
"359 532 LINE",
"146 532 LINE",
"146 592 LINE",
"419 592 LINE",
"419 78 LINE",
"681 78 LINE",
"681 678 LINE",
"585 678 LINE"
);
},
{
closed = 1;
nodes = (
"110 250 LINE",
"110 300 LINE",
"309 300 LINE",
"309 250 LINE"
);
}
);
width = 741;
}
);
leftMetricsKey = ba_marc;
rightMetricsKey = ya_marc.sub;
script = marc;
category = Letter;
},
{
glyphname = ba_ya.sub_e_marc;
lastChange = "2017-12-13 22:26:47 +0000";
layers = (
{
layerId = "76B3AF2C-89AC-4CB1-B1C9-F754B2D43151";
paths = (
{
closed = 1;
nodes = (
"585 6 LINE",
"515 6 LINE",
"515 678 LINE",
"60 678 LINE",
"60 592 LINE",
"419 592 LINE",
"419 532 LINE",
"60 532 LINE",
"60 300 LINE",
"168 300 LINE",
"168 240 LINE",
"60 240 LINE",
"60 18 LINE",
"359 18 LINE",
"359 240 LINE",
"254 240 LINE",
"254 300 LINE",
"359 300 LINE",
"359 386 LINE",
"146 386 LINE",
"146 446 LINE",
"419 446 LINE",
"419 -68 LINE",
"681 -68 LINE",
"681 678 LINE",
"585 678 LINE"
);
},
{
closed = 1;
nodes = (
"110 104 LINE",
"110 154 LINE",
"309 154 LINE",
"309 104 LINE"
);
}
);
width = 741;
}
);
leftMetricsKey = ba_marc;
rightMetricsKey = ya_marc.sub;
script = marc;
category = Letter;
},
{
glyphname = ba_ya.sub_i_marc;
lastChange = "2017-12-13 22:26:47 +0000";
layers = (
{
layerId = "76B3AF2C-89AC-4CB1-B1C9-F754B2D43151";
paths = (
{
closed = 1;
nodes = (
"751 152 LINE",
"681 152 LINE",
"681 678 LINE",
"375 678 LINE",
"342 759 OFFCURVE",
"276 869 OFFCURVE",
"181 869 CURVE SMOOTH",
"108 869 OFFCURVE",
"60 808 OFFCURVE",
"60 714 CURVE SMOOTH",
"60 138 LINE",
"156 79 LINE",
"156 717 LINE SMOOTH",
"156 768 OFFCURVE",
"169 797 OFFCURVE",
"207 797 CURVE SMOOTH",
"266 797 OFFCURVE",
"314 731 OFFCURVE",
"342 678 CURVE",
"226 678 LINE",
"226 446 LINE",
"334 446 LINE",
"334 386 LINE",
"226 386 LINE",
"226 164 LINE",
"525 164 LINE",
"525 386 LINE",
"420 386 LINE",
"420 446 LINE",
"525 446 LINE",
"525 532 LINE",
"312 532 LINE",
"312 592 LINE",
"585 592 LINE",
"585 78 LINE",
"847 78 LINE",
"847 678 LINE",
"751 678 LINE"
);
},
{
closed = 1;
nodes = (
"276 250 LINE",
"276 300 LINE",
"475 300 LINE",
"475 250 LINE"
);
}
);
width = 907;
}
);
leftMetricsKey = i_marc;
rightMetricsKey = ya_marc.sub;
script = marc;
category = Letter;
},
{
glyphname = ba_ya.sub_o_marc;
lastChange = "2017-12-13 22:26:47 +0000";
layers = (
{
layerId = "76B3AF2C-89AC-4CB1-B1C9-F754B2D43151";
paths = (
{
closed = 1;
nodes = (
"60 592 LINE",
"751 592 LINE",
"751 -67 LINE",
"847 -126 LINE",
"847 678 LINE",
"60 678 LINE"
);
},
{
closed = 1;
nodes = (
"515 6 LINE",
"515 532 LINE",
"60 532 LINE",
"60 300 LINE",
"168 300 LINE",
"168 240 LINE",
"60 240 LINE",
"60 18 LINE",
"359 18 LINE",
"359 240 LINE",
"254 240 LINE",
"254 300 LINE",
"359 300 LINE",
"359 386 LINE",
"146 386 LINE",
"146 446 LINE",
"419 446 LINE",
"419 -68 LINE",
"681 -68 LINE",
"681 532 LINE",
"585 532 LINE",
"585 6 LINE"
);
},
{
closed = 1;
nodes = (
"110 104 LINE",
"110 154 LINE",
"309 154 LINE",
"309 104 LINE"
);
}
);
width = 907;
}
);
leftMetricsKey = ba_marc;
rightMetricsKey = o_marc;
script = marc;
category = Letter;
},
{
glyphname = ba_ya.sub_u_marc;
lastChange = "2017-12-13 22:26:47 +0000";
layers = (
{
layerId = "76B3AF2C-89AC-4CB1-B1C9-F754B2D43151";
paths = (
{
closed = 1;
nodes = (
"585 152 LINE",
"515 152 LINE",
"515 678 LINE",
"60 678 LINE",
"60 446 LINE",
"168 446 LINE",
"168 386 LINE",
"60 386 LINE",
"60 164 LINE",
"359 164 LINE",
"359 386 LINE",
"254 386 LINE",
"254 446 LINE",
"359 446 LINE",
"359 532 LINE",
"146 532 LINE",
"146 592 LINE",
"419 592 LINE",
"419 78 LINE",
"585 78 LINE",
"585 8 LINE",
"60 8 LINE",
"60 -78 LINE",
"681 -78 LINE",
"681 678 LINE",
"585 678 LINE"
);
},
{
closed = 1;
nodes = (
"110 250 LINE",
"110 300 LINE",
"309 300 LINE",
"309 250 LINE"
);
}
);
width = 741;
}
);
leftMetricsKey = ba_marc;
rightMetricsKey = ya_marc.sub;
script = marc;
category = Letter;
},
{
glyphname = ca_aa_marc.sub;
lastChange = "2017-12-13 22:26:47 +0000";
layers = (
{
layerId = "76B3AF2C-89AC-4CB1-B1C9-F754B2D43151";
paths = (
{
closed = 1;
nodes = (
"60 592 LINE",
"203 592 LINE",
"203 522 LINE",
"60 522 LINE",
"60 78 LINE",
"156 78 LINE",
"156 436 LINE",
"349 436 LINE",
"349 366 LINE",
"230 366 LINE",
"230 144 LINE",
"294 144 OFFCURVE",
"363 145 OFFCURVE",
"433 78 CURVE",
"479 86 LINE",
"438 166 OFFCURVE",
"378 220 OFFCURVE",
"316 230 CURVE",
"316 280 LINE",
"445 280 LINE",
"445 522 LINE",
"299 522 LINE",
"299 592 LINE",
"515 592 LINE",
"515 78 LINE",
"611 78 LINE",
"611 678 LINE",
"60 678 LINE"
);
},
{
closed = 1;
nodes = (
"515 -68 LINE",
"515 -128 LINE",
"153 -128 LINE",
"153 -214 LINE",
"334 -214 LINE",
"334 -315 LINE",
"287 -293 OFFCURVE",
"210 -282 OFFCURVE",
"153 -285 CURVE",
"153 -480 LINE",
"249 -539 LINE",
"249 -369 LINE",
"273 -367 OFFCURVE",
"310 -372 OFFCURVE",
"334 -384 CURVE",
"334 -522 LINE",
"430 -581 LINE",
"430 -214 LINE",
"515 -214 LINE",
"515 -592 LINE",
"611 -651 LINE",
"611 18 LINE",
"153 18 LINE",
"153 -68 LINE"
);
}
);
width = 671;
}
);
leftMetricsKey = ca_marc;
rightMetricsKey = ca_marc;
script = marc;
category = Letter;
},
{
glyphname = ca_e_marc;
lastChange = "2017-12-13 22:26:47 +0000";
layers = (
{
layerId = "76B3AF2C-89AC-4CB1-B1C9-F754B2D43151";
paths = (
{
closed = 1;
nodes = (
"60 592 LINE",
"515 592 LINE",
"515 532 LINE",
"60 532 LINE",
"60 446 LINE",
"203 446 LINE",
"203 376 LINE",
"60 376 LINE",
"60 -18 LINE",
"156 -77 LINE",
"156 290 LINE",
"349 290 LINE",
"349 220 LINE",
"230 220 LINE",
"230 -2 LINE",
"294 -2 OFFCURVE",
"363 -1 OFFCURVE",
"433 -68 CURVE",
"479 -60 LINE",
"438 20 OFFCURVE",
"378 74 OFFCURVE",
"316 84 CURVE",
"316 134 LINE",
"445 134 LINE",
"445 376 LINE",
"299 376 LINE",
"299 446 LINE",
"515 446 LINE",
"515 -92 LINE",
"611 -151 LINE",
"611 678 LINE",
"60 678 LINE"
);
}
);
width = 671;
}
);
leftMetricsKey = ca_marc;
rightMetricsKey = ca_marc;
script = marc;
category = Letter;
},
{
glyphname = ca_i_marc;
lastChange = "2017-12-13 22:26:47 +0000";
layers = (
{
layerId = "76B3AF2C-89AC-4CB1-B1C9-F754B2D43151";
paths = (
{
closed = 1;
nodes = (
"387 759 OFFCURVE",
"307 869 OFFCURVE",
"191 869 CURVE SMOOTH",
"108 869 OFFCURVE",
"60 808 OFFCURVE",
"60 714 CURVE SMOOTH",
"60 119 LINE",
"156 60 LINE",
"156 717 LINE SMOOTH",
"156 768 OFFCURVE",
"169 797 OFFCURVE",
"220 797 CURVE SMOOTH",
"296 797 OFFCURVE",
"359 731 OFFCURVE",
"392 678 CURVE",
"226 678 LINE",
"226 592 LINE",
"369 592 LINE",
"369 522 LINE",
"226 522 LINE",
"226 98 LINE",
"322 39 LINE",
"322 436 LINE",
"515 436 LINE",
"515 366 LINE",
"396 366 LINE",
"396 144 LINE",
"460 144 OFFCURVE",
"529 145 OFFCURVE",
"599 78 CURVE",
"645 86 LINE",
"604 166 OFFCURVE",
"544 220 OFFCURVE",
"482 230 CURVE",
"482 280 LINE",
"611 280 LINE",
"611 522 LINE",
"465 522 LINE",
"465 592 LINE",
"681 592 LINE",
"681 54 LINE",
"777 -5 LINE",
"777 678 LINE",
"425 678 LINE"
);
}
);
width = 837;
}
);
leftMetricsKey = i_marc;
rightMetricsKey = ca_marc;
script = marc;
category = Letter;
},
{
glyphname = ca_o_marc;
lastChange = "2017-12-13 22:26:47 +0000";
layers = (
{
layerId = "76B3AF2C-89AC-4CB1-B1C9-F754B2D43151";
paths = (
{
closed = 1;
nodes = (
"60 592 LINE",
"681 592 LINE",
"681 -161 LINE",
"777 -220 LINE",
"777 678 LINE",
"60 678 LINE"
);
},
{
closed = 1;
nodes = (
"203 446 LINE",
"203 376 LINE",
"60 376 LINE",
"60 -48 LINE",
"156 -107 LINE",
"156 290 LINE",
"349 290 LINE",
"349 220 LINE",
"230 220 LINE",
"230 -2 LINE",
"294 -2 OFFCURVE",
"363 -1 OFFCURVE",
"433 -68 CURVE",
"479 -60 LINE",
"438 20 OFFCURVE",
"378 74 OFFCURVE",
"316 84 CURVE",
"316 134 LINE",
"445 134 LINE",
"445 376 LINE",
"299 376 LINE",
"299 446 LINE",
"515 446 LINE",
"515 -92 LINE",
"611 -151 LINE",
"611 532 LINE",
"60 532 LINE",
"60 446 LINE"
);
}
);
width = 837;
}
);
leftMetricsKey = ca_marc;
rightMetricsKey = o_marc;
script = marc;
category = Letter;
},
{
glyphname = ca_ra.sub;
lastChange = "2017-12-13 22:26:47 +0000";
layers = (
{
layerId = "76B3AF2C-89AC-4CB1-B1C9-F754B2D43151";
paths = (
{
closed = 1;
nodes = (
"60 592 LINE",
"203 592 LINE",
"203 522 LINE",
"60 522 LINE",
"60 69 LINE",
"156 69 LINE",
"156 436 LINE",
"349 436 LINE",
"349 366 LINE",
"230 366 LINE",
"230 144 LINE",
"306 144 OFFCURVE",
"377 143 OFFCURVE",
"447 78 CURVE",
"493 86 LINE",
"450 166 OFFCURVE",
"386 220 OFFCURVE",
"316 230 CURVE",
"316 280 LINE",
"445 280 LINE",
"445 522 LINE",
"299 522 LINE",
"299 592 LINE",
"515 592 LINE",
"515 -51 LINE",
"419 -1 LINE",
"60 -1 LINE",
"60 -87 LINE",
"611 -87 LINE",
"611 678 LINE",
"60 678 LINE"
);
}
);
width = 671;
}
);
leftMetricsKey = ca_marc;
rightMetricsKey = ca_marc;
script = marc;
category = Letter;
},
{
glyphname = ca_u_marc;
lastChange = "2017-12-13 22:26:47 +0000";
layers = (
{
layerId = "76B3AF2C-89AC-4CB1-B1C9-F754B2D43151";
paths = (
{
closed = 1;
nodes = (
"60 592 LINE",
"203 592 LINE",
"203 522 LINE",
"60 522 LINE",
"60 69 LINE",
"156 69 LINE",
"156 436 LINE",
"349 436 LINE",
"349 366 LINE",
"230 366 LINE",
"230 144 LINE",
"294 144 OFFCURVE",
"363 145 OFFCURVE",
"433 78 CURVE",
"479 86 LINE",
"438 166 OFFCURVE",
"378 220 OFFCURVE",
"316 230 CURVE",
"316 280 LINE",
"445 280 LINE",
"445 522 LINE",
"299 522 LINE",
"299 592 LINE",
"515 592 LINE",
"515 -1 LINE",
"60 -1 LINE",
"60 -87 LINE",
"611 -87 LINE",
"611 678 LINE",
"60 678 LINE"
);
}
);
width = 671;
}
);
leftMetricsKey = ca_marc;
rightMetricsKey = ca_marc;
script = marc;
category = Letter;
},
{
glyphname = ca_wa.sub;
lastChange = "2017-12-13 22:26:47 +0000";
layers = (
{
layerId = "76B3AF2C-89AC-4CB1-B1C9-F754B2D43151";
paths = (
{
closed = 1;
nodes = (
"60 592 LINE",
"203 592 LINE",
"203 522 LINE",
"60 522 LINE",
"60 69 LINE",
"156 69 LINE",
"156 436 LINE",
"349 436 LINE",
"349 366 LINE",
"230 366 LINE",
"230 144 LINE",
"294 144 OFFCURVE",
"363 145 OFFCURVE",
"433 78 CURVE",
"479 86 LINE",
"438 166 OFFCURVE",
"378 220 OFFCURVE",
"316 230 CURVE",
"316 280 LINE",
"445 280 LINE",
"445 522 LINE",
"299 522 LINE",
"299 592 LINE",
"515 592 LINE",
"515 9 LINE",
"60 9 LINE",
"60 -206 LINE",
"611 -206 LINE",
"611 678 LINE",
"60 678 LINE"
);
},
{
closed = 1;
nodes = (
"110 -120 LINE",
"110 -77 LINE",
"515 -77 LINE",
"515 -120 LINE"
);
}
);
width = 671;
}
);
leftMetricsKey = ca_marc;
rightMetricsKey = ca_marc;
script = marc;
category = Letter;
},
{
glyphname = ca_wa.sub_e_marc;
lastChange = "2017-12-13 22:26:47 +0000";
layers = (
{
layerId = "76B3AF2C-89AC-4CB1-B1C9-F754B2D43151";
paths = (
{
closed = 1;
nodes = (
"60 592 LINE",
"515 592 LINE",
"515 532 LINE",
"60 532 LINE",
"60 446 LINE",
"203 446 LINE",
"203 376 LINE",
"60 376 LINE",
"60 -77 LINE",
"156 -77 LINE",
"156 290 LINE",
"349 290 LINE",
"349 220 LINE",
"230 220 LINE",
"230 -2 LINE",
"294 -2 OFFCURVE",
"363 -1 OFFCURVE",
"433 -68 CURVE",
"479 -60 LINE",
"438 20 OFFCURVE",
"378 74 OFFCURVE",
"316 84 CURVE",
"316 134 LINE",
"445 134 LINE",
"445 376 LINE",
"299 376 LINE",
"299 446 LINE",
"515 446 LINE",
"515 -137 LINE",
"60 -137 LINE",
"60 -352 LINE",
"611 -352 LINE",
"611 678 LINE",
"60 678 LINE"
);
},
{
closed = 1;
nodes = (
"110 -266 LINE",
"110 -223 LINE",
"515 -223 LINE",
"515 -266 LINE"
);
}
);
width = 671;
}
);
leftMetricsKey = ca_marc;
rightMetricsKey = ca_marc;
script = marc;
category = Letter;
},
{
glyphname = ca_wa.sub_i_marc;
lastChange = "2017-12-13 22:26:47 +0000";
layers = (
{
layerId = "76B3AF2C-89AC-4CB1-B1C9-F754B2D43151";
paths = (
{
closed = 1;
nodes = (
"392 759 OFFCURVE",
"310 869 OFFCURVE",
"192 869 CURVE SMOOTH",
"108 869 OFFCURVE",
"60 808 OFFCURVE",
"60 714 CURVE SMOOTH",
"60 -38 LINE",
"156 -97 LINE",
"156 717 LINE SMOOTH",
"156 768 OFFCURVE",
"169 797 OFFCURVE",
"221 797 CURVE SMOOTH",
"299 797 OFFCURVE",
"364 731 OFFCURVE",
"397 678 CURVE",
"226 678 LINE",
"226 592 LINE",
"369 592 LINE",
"369 522 LINE",
"226 522 LINE",
"226 69 LINE",
"322 69 LINE",
"322 436 LINE",
"515 436 LINE",
"515 366 LINE",
"396 366 LINE",
"396 144 LINE",
"460 144 OFFCURVE",
"529 145 OFFCURVE",
"599 78 CURVE",
"645 86 LINE",
"604 166 OFFCURVE",
"544 220 OFFCURVE",
"482 230 CURVE",
"482 280 LINE",
"611 280 LINE",
"611 522 LINE",
"465 522 LINE",
"465 592 LINE",
"681 592 LINE",
"681 9 LINE",
"226 9 LINE",
"226 -206 LINE",
"777 -206 LINE",
"777 678 LINE",
"431 678 LINE"
);
},
{
closed = 1;
nodes = (
"276 -120 LINE",
"276 -77 LINE",
"681 -77 LINE",
"681 -120 LINE"
);
}
);
width = 837;
}
);
leftMetricsKey = i_marc;
rightMetricsKey = ca_marc;
script = marc;
category = Letter;
},
{
glyphname = ca_wa.sub_o_marc;
lastChange = "2017-12-13 22:26:47 +0000";
layers = (
{
layerId = "76B3AF2C-89AC-4CB1-B1C9-F754B2D43151";
paths = (
{
closed = 1;
nodes = (
"60 592 LINE",
"681 592 LINE",
"681 -353 LINE",
"777 -412 LINE",
"777 678 LINE",
"60 678 LINE"
);
},
{
closed = 1;
nodes = (
"203 446 LINE",
"203 376 LINE",
"60 376 LINE",
"60 -77 LINE",
"156 -77 LINE",
"156 290 LINE",
"349 290 LINE",
"349 220 LINE",
"230 220 LINE",
"230 -2 LINE",
"294 -2 OFFCURVE",
"363 -1 OFFCURVE",
"433 -68 CURVE",
"479 -60 LINE",
"438 20 OFFCURVE",
"378 74 OFFCURVE",
"316 84 CURVE",
"316 134 LINE",
"445 134 LINE",
"445 376 LINE",
"299 376 LINE",
"299 446 LINE",
"515 446 LINE",
"515 -137 LINE",
"60 -137 LINE",
"60 -352 LINE",
"611 -352 LINE",
"611 532 LINE",
"60 532 LINE",
"60 446 LINE"
);
},
{
closed = 1;
nodes = (
"110 -266 LINE",
"110 -223 LINE",
"515 -223 LINE",
"515 -266 LINE"
);
}
);
width = 837;
}
);
leftMetricsKey = ca_marc;
rightMetricsKey = o_marc;
script = marc;
category = Letter;
},
{
glyphname = ca_wa.sub_u_marc;
lastChange = "2017-12-13 22:26:47 +0000";
layers = (
{
layerId = "76B3AF2C-89AC-4CB1-B1C9-F754B2D43151";
paths = (
{
closed = 1;
nodes = (
"60 592 LINE",
"203 592 LINE",
"203 522 LINE",
"60 522 LINE",
"60 69 LINE",
"156 69 LINE",
"156 436 LINE",
"349 436 LINE",
"349 366 LINE",
"230 366 LINE",
"230 144 LINE",
"294 144 OFFCURVE",
"363 145 OFFCURVE",
"433 78 CURVE",
"479 86 LINE",
"438 166 OFFCURVE",
"378 220 OFFCURVE",
"316 230 CURVE",
"316 280 LINE",
"445 280 LINE",
"445 522 LINE",
"299 522 LINE",
"299 592 LINE",
"515 592 LINE",
"515 9 LINE",
"60 9 LINE",
"60 -206 LINE",
"515 -206 LINE",
"515 -276 LINE",
"60 -276 LINE",
"60 -362 LINE",
"611 -362 LINE",
"611 678 LINE",
"60 678 LINE"
);
},
{
closed = 1;
nodes = (
"515 -77 LINE",
"515 -120 LINE",
"110 -120 LINE",
"110 -77 LINE"
);
}
);
width = 671;
}
);
leftMetricsKey = ca_marc;
rightMetricsKey = ca_marc;
script = marc;
category = Letter;
},
{
glyphname = cha_aa_marc.sub;
lastChange = "2017-12-13 22:26:47 +0000";
layers = (
{
layerId = "76B3AF2C-89AC-4CB1-B1C9-F754B2D43151";
paths = (
{
closed = 1;
nodes = (
"156 436 LINE",
"366 436 LINE",
"366 366 LINE",
"226 366 LINE",
"226 280 LINE",
"260 280 LINE",
"189 147 LINE",
"201 101 LINE",
"225 120 OFFCURVE",
"264 137 OFFCURVE",
"313 137 CURVE SMOOTH",
"360 137 OFFCURVE",
"405 121 OFFCURVE",
"443 83 CURVE",
"489 91 LINE",
"448 170 OFFCURVE",
"368 216 OFFCURVE",
"306 216 CURVE SMOOTH",
"300 216 OFFCURVE",
"292 216 OFFCURVE",
"284 214 CURVE",
"319 280 LINE",
"462 280 LINE",
"462 522 LINE",
"306 522 LINE",
"306 592 LINE",
"462 592 LINE",
"462 678 LINE",
"60 678 LINE",
"60 592 LINE",
"210 592 LINE",
"210 522 LINE",
"60 522 LINE",
"60 78 LINE",
"156 78 LINE"
);
},
{
closed = 1;
nodes = (
"392 -68 LINE",
"392 -128 LINE",
"60 -128 LINE",
"60 -214 LINE",
"226 -214 LINE",
"226 -315 LINE",
"179 -293 OFFCURVE",
"117 -282 OFFCURVE",
"60 -285 CURVE",
"60 -442 LINE",
"156 -501 LINE",
"156 -369 LINE",
"180 -367 OFFCURVE",
"202 -372 OFFCURVE",
"226 -384 CURVE",
"226 -502 LINE",
"322 -561 LINE",
"322 -214 LINE",
"392 -214 LINE",
"392 -542 LINE",
"488 -601 LINE",
"488 18 LINE",
"60 18 LINE",
"60 -68 LINE"
);
}
);
width = 523;
}
);
leftMetricsKey = cha_marc;
script = marc;
category = Letter;
},
{
glyphname = cha_e_marc;
lastChange = "2017-12-13 22:26:47 +0000";
layers = (
{
layerId = "76B3AF2C-89AC-4CB1-B1C9-F754B2D43151";
paths = (
{
closed = 1;
nodes = (
"300 70 OFFCURVE",
"292 70 OFFCURVE",
"284 68 CURVE",
"319 134 LINE",
"432 134 LINE",
"432 376 LINE",
"291 376 LINE",
"291 446 LINE",
"432 446 LINE",
"432 678 LINE",
"60 678 LINE",
"60 592 LINE",
"336 592 LINE",
"336 532 LINE",
"60 532 LINE",
"60 446 LINE",
"195 446 LINE",
"195 376 LINE",
"60 376 LINE",
"60 -68 LINE",
"156 -68 LINE",
"156 290 LINE",
"336 290 LINE",
"336 220 LINE",
"226 220 LINE",
"226 134 LINE",
"260 134 LINE",
"189 1 LINE",
"201 -45 LINE",
"225 -26 OFFCURVE",
"264 -9 OFFCURVE",
"313 -9 CURVE SMOOTH",
"360 -9 OFFCURVE",
"405 -25 OFFCURVE",
"443 -63 CURVE",
"489 -55 LINE",
"448 24 OFFCURVE",
"368 70 OFFCURVE",
"306 70 CURVE SMOOTH"
);
}
);
width = 494;
}
);
leftMetricsKey = cha_marc;
rightMetricsKey = cha_marc;
script = marc;
category = Letter;
},
{
glyphname = cha_i_marc;
lastChange = "2017-12-13 22:26:47 +0000";
layers = (
{
layerId = "76B3AF2C-89AC-4CB1-B1C9-F754B2D43151";
paths = (
{
closed = 1;
nodes = (
"466 216 OFFCURVE",
"458 216 OFFCURVE",
"450 214 CURVE",
"485 280 LINE",
"598 280 LINE",
"598 522 LINE",
"457 522 LINE",
"457 592 LINE",
"598 592 LINE",
"598 678 LINE",
"417 678 LINE",
"380 759 OFFCURVE",
"302 869 OFFCURVE",
"190 869 CURVE SMOOTH",
"108 869 OFFCURVE",
"60 808 OFFCURVE",
"60 714 CURVE SMOOTH",
"60 79 LINE",
"156 20 LINE",
"156 717 LINE SMOOTH",
"156 768 OFFCURVE",
"169 797 OFFCURVE",
"218 797 CURVE SMOOTH",
"291 797 OFFCURVE",
"352 731 OFFCURVE",
"384 678 CURVE",
"226 678 LINE",
"226 592 LINE",
"361 592 LINE",
"361 522 LINE",
"226 522 LINE",
"226 77 LINE",
"322 18 LINE",
"322 436 LINE",
"502 436 LINE",
"502 366 LINE",
"392 366 LINE",
"392 280 LINE",
"426 280 LINE",
"355 147 LINE",
"367 101 LINE",
"391 120 OFFCURVE",
"430 137 OFFCURVE",
"479 137 CURVE SMOOTH",
"526 137 OFFCURVE",
"571 121 OFFCURVE",
"609 83 CURVE",
"655 91 LINE",
"614 170 OFFCURVE",
"534 216 OFFCURVE",
"472 216 CURVE SMOOTH"
);
}
);
width = 660;
}
);
leftMetricsKey = i_marc;
rightMetricsKey = cha_marc;
script = marc;
category = Letter;
},
{
glyphname = cha_o_marc;
lastChange = "2017-12-13 22:26:47 +0000";
layers = (
{
layerId = "76B3AF2C-89AC-4CB1-B1C9-F754B2D43151";
paths = (
{
closed = 1;
nodes = (
"61 592 LINE",
"512 592 LINE",
"512 -80 LINE",
"608 -139 LINE",
"608 678 LINE",
"61 678 LINE"
);
},
{
closed = 1;
nodes = (
"300 70 OFFCURVE",
"292 70 OFFCURVE",
"284 68 CURVE",
"319 134 LINE",
"432 134 LINE",
"432 376 LINE",
"291 376 LINE",
"291 446 LINE",
"432 446 LINE",
"432 532 LINE",
"60 532 LINE",
"60 446 LINE",
"195 446 LINE",
"195 376 LINE",
"60 376 LINE",
"60 -69 LINE",
"156 -128 LINE",
"156 290 LINE",
"336 290 LINE",
"336 220 LINE",
"226 220 LINE",
"226 134 LINE",
"260 134 LINE",
"189 1 LINE",
"201 -45 LINE",
"225 -26 OFFCURVE",
"264 -9 OFFCURVE",
"313 -9 CURVE SMOOTH",
"360 -9 OFFCURVE",
"405 -25 OFFCURVE",
"443 -63 CURVE",
"489 -55 LINE",
"448 24 OFFCURVE",
"368 70 OFFCURVE",
"306 70 CURVE SMOOTH"
);
}
);
width = 668;
}
);
leftMetricsKey = cha_marc;
rightMetricsKey = o_marc;
script = marc;
category = Letter;
},
{
glyphname = cha_u_marc;
lastChange = "2017-12-13 22:26:47 +0000";
layers = (
{
layerId = "76B3AF2C-89AC-4CB1-B1C9-F754B2D43151";
paths = (
{
closed = 1;
nodes = (
"226 366 LINE",
"226 280 LINE",
"277 280 LINE",
"206 147 LINE",
"218 101 LINE",
"242 120 OFFCURVE",
"281 137 OFFCURVE",
"330 137 CURVE SMOOTH",
"377 137 OFFCURVE",
"422 121 OFFCURVE",
"460 83 CURVE",
"506 91 LINE",
"465 170 OFFCURVE",
"385 216 OFFCURVE",
"323 216 CURVE SMOOTH",
"317 216 OFFCURVE",
"309 216 OFFCURVE",
"301 214 CURVE",
"336 280 LINE",
"450 280 LINE",
"450 522 LINE",
"300 522 LINE",
"300 592 LINE",
"450 592 LINE",
"450 678 LINE",
"60 678 LINE",
"60 592 LINE",
"204 592 LINE",
"204 522 LINE",
"60 522 LINE",
"60 39 LINE",
"156 -20 LINE",
"156 436 LINE",
"354 436 LINE",
"354 366 LINE"
);
},
{
closed = 1;
nodes = (
"205 -28 LINE",
"506 -28 LINE",
"506 58 LINE",
"205 58 LINE"
);
}
);
width = 518;
}
);
leftMetricsKey = cha_marc;
script = marc;
category = Letter;
},
{
glyphname = da_aa_marc.sub;
lastChange = "2017-12-13 22:26:47 +0000";
layers = (
{
layerId = "76B3AF2C-89AC-4CB1-B1C9-F754B2D43151";
paths = (
{
closed = 1;
nodes = (
"60 678 LINE",
"60 440 LINE",
"229 440 LINE",
"229 370 LINE",
"60 370 LINE",
"60 150 LINE",
"136 150 OFFCURVE",
"207 149 OFFCURVE",
"277 84 CURVE",
"323 92 LINE",
"280 172 OFFCURVE",
"216 226 OFFCURVE",
"146 236 CURVE",
"146 285 LINE",
"325 285 LINE",
"325 522 LINE",
"156 522 LINE",
"156 592 LINE",
"395 592 LINE",
"395 80 LINE",
"491 80 LINE",
"491 678 LINE"
);
},
{
closed = 1;
nodes = (
"395 -66 LINE",
"395 -126 LINE",
"63 -126 LINE",
"63 -212 LINE",
"229 -212 LINE",
"229 -313 LINE",
"182 -291 OFFCURVE",
"120 -280 OFFCURVE",
"63 -283 CURVE",
"63 -478 LINE",
"159 -537 LINE",
"159 -367 LINE",
"183 -365 OFFCURVE",
"205 -370 OFFCURVE",
"229 -382 CURVE",
"229 -520 LINE",
"325 -579 LINE",
"325 -212 LINE",
"395 -212 LINE",
"395 -550 LINE",
"491 -609 LINE",
"491 20 LINE",
"63 20 LINE",
"63 -66 LINE"
);
}
);
width = 551;
}
);
leftMetricsKey = da_marc;
rightMetricsKey = da_marc;
script = marc;
category = Letter;
},
{
glyphname = da_e_marc;
lastChange = "2017-12-13 22:26:47 +0000";
layers = (
{
layerId = "76B3AF2C-89AC-4CB1-B1C9-F754B2D43151";
paths = (
{
closed = 1;
nodes = (
"60 592 LINE",
"395 592 LINE",
"395 532 LINE",
"60 532 LINE",
"60 294 LINE",
"229 294 LINE",
"229 224 LINE",
"60 224 LINE",
"60 4 LINE",
"136 4 OFFCURVE",
"207 3 OFFCURVE",
"277 -62 CURVE",
"323 -54 LINE",
"280 26 OFFCURVE",
"216 80 OFFCURVE",
"146 90 CURVE",
"146 139 LINE",
"325 139 LINE",
"325 376 LINE",
"156 376 LINE",
"156 446 LINE",
"395 446 LINE",
"395 -7 LINE",
"491 -66 LINE",
"491 678 LINE",
"60 678 LINE"
);
}
);
width = 551;
}
);
leftMetricsKey = da_marc;
rightMetricsKey = da_marc;
script = marc;
category = Letter;
},
{
glyphname = da_ha.sub;
lastChange = "2017-12-13 22:26:47 +0000";
layers = (
{
layerId = "76B3AF2C-89AC-4CB1-B1C9-F754B2D43151";
paths = (
{
closed = 1;
nodes = (
"60 678 LINE",
"60 450 LINE",
"229 450 LINE",
"229 390 LINE",
"60 390 LINE",
"60 189 LINE",
"136 189 OFFCURVE",
"207 188 OFFCURVE",
"277 123 CURVE",
"323 131 LINE",
"280 211 OFFCURVE",
"216 265 OFFCURVE",
"146 275 CURVE",
"146 305 LINE",
"325 305 LINE",
"325 532 LINE",
"156 532 LINE",
"156 592 LINE",
"395 592 LINE",
"395 141 LINE",
"491 141 LINE",
"491 678 LINE"
);
},
{
closed = 1;
nodes = (
"238 -161 LINE",
"238 -231 LINE",
"61 -231 LINE",
"61 -317 LINE",
"324 -317 LINE",
"324 -161 LINE",
"394 -161 LINE",
"394 -427 LINE",
"490 -486 LINE",
"490 -75 LINE",
"157 -75 LINE",
"157 -5 LINE",
"490 -5 LINE",
"490 81 LINE",
"61 81 LINE",
"61 -161 LINE"
);
}
);
width = 551;
}
);
leftMetricsKey = da_marc;
rightMetricsKey = da_marc;
script = marc;
category = Letter;
},
{
glyphname = da_ha.sub_aa.sub_i_marc;
lastChange = "2017-12-13 22:26:47 +0000";
layers = (
{
layerId = "76B3AF2C-89AC-4CB1-B1C9-F754B2D43151";
paths = (
{
closed = 1;
nodes = (
"342 759 OFFCURVE",
"276 869 OFFCURVE",
"181 869 CURVE SMOOTH",
"108 869 OFFCURVE",
"60 808 OFFCURVE",
"60 714 CURVE SMOOTH",
"60 -530 LINE",
"156 -589 LINE",
"156 717 LINE SMOOTH",
"156 768 OFFCURVE",
"169 797 OFFCURVE",
"207 797 CURVE SMOOTH",
"266 797 OFFCURVE",
"314 731 OFFCURVE",
"342 678 CURVE",
"226 678 LINE",
"226 450 LINE",
"395 450 LINE",
"395 390 LINE",
"226 390 LINE",
"226 189 LINE",
"302 189 OFFCURVE",
"373 188 OFFCURVE",
"443 123 CURVE",
"489 131 LINE",
"446 211 OFFCURVE",
"382 265 OFFCURVE",
"312 275 CURVE",
"312 305 LINE",
"491 305 LINE",
"491 532 LINE",
"322 532 LINE",
"322 592 LINE",
"561 592 LINE",
"561 141 LINE",
"657 141 LINE",
"657 678 LINE",
"375 678 LINE"
);
},
{
closed = 1;
nodes = (
"227 -317 LINE",
"490 -317 LINE",
"490 -161 LINE",
"560 -161 LINE",
"560 -316 LINE",
"656 -316 LINE",
"656 -75 LINE",
"323 -75 LINE",
"323 -5 LINE",
"656 -5 LINE",
"656 81 LINE",
"227 81 LINE",
"227 -161 LINE",
"404 -161 LINE",
"404 -231 LINE",
"227 -231 LINE"
);
},
{
closed = 1;
nodes = (
"561 -462 LINE",
"561 -522 LINE",
"229 -522 LINE",
"229 -608 LINE",
"395 -608 LINE",
"395 -709 LINE",
"348 -687 OFFCURVE",
"286 -676 OFFCURVE",
"229 -679 CURVE",
"229 -874 LINE",
"325 -933 LINE",
"325 -763 LINE",
"349 -761 OFFCURVE",
"371 -766 OFFCURVE",
"395 -778 CURVE",
"395 -916 LINE",
"491 -975 LINE",
"491 -608 LINE",
"561 -608 LINE",
"561 -966 LINE",
"657 -1025 LINE",
"657 -376 LINE",
"229 -376 LINE",
"229 -462 LINE"
);
}
);
width = 717;
}
);
leftMetricsKey = i_marc;
rightMetricsKey = da_marc;
script = marc;
category = Letter;
},
{
glyphname = da_ha.sub_i_marc;
lastChange = "2017-12-13 22:26:47 +0000";
layers = (
{
layerId = "76B3AF2C-89AC-4CB1-B1C9-F754B2D43151";
paths = (
{
closed = 1;
nodes = (
"342 759 OFFCURVE",
"276 869 OFFCURVE",
"181 869 CURVE SMOOTH",
"108 869 OFFCURVE",
"60 808 OFFCURVE",
"60 714 CURVE SMOOTH",
"60 -109 LINE",
"156 -168 LINE",
"156 717 LINE SMOOTH",
"156 768 OFFCURVE",
"169 797 OFFCURVE",
"207 797 CURVE SMOOTH",
"266 797 OFFCURVE",
"314 731 OFFCURVE",
"342 678 CURVE",
"226 678 LINE",
"226 450 LINE",
"395 450 LINE",
"395 390 LINE",
"226 390 LINE",
"226 189 LINE",
"302 189 OFFCURVE",
"373 188 OFFCURVE",
"443 123 CURVE",
"489 131 LINE",
"446 211 OFFCURVE",
"382 265 OFFCURVE",
"312 275 CURVE",
"312 305 LINE",
"491 305 LINE",
"491 532 LINE",
"322 532 LINE",
"322 592 LINE",
"561 592 LINE",
"561 141 LINE",
"657 141 LINE",
"657 678 LINE",
"375 678 LINE"
);
},
{
closed = 1;
nodes = (
"404 -161 LINE",
"404 -231 LINE",
"227 -231 LINE",
"227 -317 LINE",
"490 -317 LINE",
"490 -161 LINE",
"560 -161 LINE",
"560 -427 LINE",
"656 -486 LINE",
"656 -75 LINE",
"323 -75 LINE",
"323 -5 LINE",
"656 -5 LINE",
"656 81 LINE",
"227 81 LINE",
"227 -161 LINE"
);
}
);
width = 717;
}
);
leftMetricsKey = i_marc;
rightMetricsKey = da_marc;
script = marc;
category = Letter;
},
{
glyphname = da_i_marc;
lastChange = "2017-12-13 22:26:47 +0000";
layers = (
{
layerId = "76B3AF2C-89AC-4CB1-B1C9-F754B2D43151";
paths = (
{
closed = 1;
nodes = (
"342 759 OFFCURVE",
"276 869 OFFCURVE",
"181 869 CURVE SMOOTH",
"108 869 OFFCURVE",
"60 808 OFFCURVE",
"60 714 CURVE SMOOTH",
"60 138 LINE",
"156 79 LINE",
"156 717 LINE SMOOTH",
"156 768 OFFCURVE",
"169 797 OFFCURVE",
"207 797 CURVE SMOOTH",
"266 797 OFFCURVE",
"314 731 OFFCURVE",
"342 678 CURVE",
"226 678 LINE",
"226 440 LINE",
"395 440 LINE",
"395 370 LINE",
"226 370 LINE",
"226 150 LINE",
"302 150 OFFCURVE",
"373 149 OFFCURVE",
"443 84 CURVE",
"489 92 LINE",
"446 172 OFFCURVE",
"382 226 OFFCURVE",
"312 236 CURVE",
"312 285 LINE",
"491 285 LINE",
"491 522 LINE",
"322 522 LINE",
"322 592 LINE",
"561 592 LINE",
"561 139 LINE",
"657 80 LINE",
"657 678 LINE",
"375 678 LINE"
);
}
);
width = 717;
}
);
leftMetricsKey = i_marc;
rightMetricsKey = da_marc;
script = marc;
category = Letter;
},
{
glyphname = da_ma.sub;
lastChange = "2017-12-13 22:26:47 +0000";
layers = (
{
layerId = "76B3AF2C-89AC-4CB1-B1C9-F754B2D43151";
paths = (
{
closed = 1;
nodes = (
"60 678 LINE",
"60 450 LINE",
"229 450 LINE",
"229 390 LINE",
"60 390 LINE",
"60 189 LINE",
"136 189 OFFCURVE",
"207 188 OFFCURVE",
"277 123 CURVE",
"323 131 LINE",
"280 211 OFFCURVE",
"216 265 OFFCURVE",
"146 275 CURVE",
"146 305 LINE",
"325 305 LINE",
"325 532 LINE",
"156 532 LINE",
"156 592 LINE",
"395 592 LINE",
"395 141 LINE",
"491 141 LINE",
"491 678 LINE"
);
},
{
closed = 1;
nodes = (
"163 5 LINE",
"163 -65 LINE",
"60 -65 LINE",
"60 -295 LINE",
"241 -295 LINE",
"241 -365 LINE",
"60 -365 LINE",
"60 -445 LINE",
"327 -445 LINE",
"327 -215 LINE",
"146 -215 LINE",
"146 -145 LINE",
"327 -145 LINE",
"327 -65 LINE",
"259 -65 LINE",
"259 5 LINE",
"395 5 LINE",
"395 -446 LINE",
"491 -505 LINE",
"491 91 LINE",
"60 91 LINE",
"60 5 LINE"
);
}
);
width = 551;
}
);
leftMetricsKey = da_marc;
rightMetricsKey = da_marc;
script = marc;
category = Letter;
},
{
glyphname = da_ma.sub_e_marc;
lastChange = "2017-12-13 22:26:47 +0000";
layers = (
{
layerId = "76B3AF2C-89AC-4CB1-B1C9-F754B2D43151";
paths = (
{
closed = 1;
nodes = (
"60 592 LINE",
"395 592 LINE",
"395 532 LINE",
"60 532 LINE",
"60 304 LINE",
"229 304 LINE",
"229 244 LINE",
"60 244 LINE",
"60 43 LINE",
"136 43 OFFCURVE",
"207 42 OFFCURVE",
"277 -23 CURVE",
"323 -15 LINE",
"280 65 OFFCURVE",
"216 119 OFFCURVE",
"146 129 CURVE",
"146 159 LINE",
"325 159 LINE",
"325 386 LINE",
"156 386 LINE",
"156 446 LINE",
"395 446 LINE",
"395 -5 LINE",
"491 -5 LINE",
"491 678 LINE",
"60 678 LINE"
);
},
{
closed = 1;
nodes = (
"163 -141 LINE",
"163 -211 LINE",
"60 -211 LINE",
"60 -441 LINE",
"241 -441 LINE",
"241 -511 LINE",
"60 -511 LINE",
"60 -591 LINE",
"327 -591 LINE",
"327 -361 LINE",
"146 -361 LINE",
"146 -291 LINE",
"327 -291 LINE",
"327 -211 LINE",
"259 -211 LINE",
"259 -141 LINE",
"395 -141 LINE",
"395 -592 LINE",
"491 -651 LINE",
"491 -55 LINE",
"60 -55 LINE",
"60 -141 LINE"
);
}
);
width = 551;
}
);
leftMetricsKey = da_marc;
rightMetricsKey = da_marc;
script = marc;
category = Letter;
},
{
glyphname = da_o_marc;
lastChange = "2017-12-13 22:26:47 +0000";
layers = (
{
layerId = "76B3AF2C-89AC-4CB1-B1C9-F754B2D43151";
paths = (
{
closed = 1;
nodes = (
"60 592 LINE",
"561 592 LINE",
"561 -65 LINE",
"657 -124 LINE",
"657 678 LINE",
"60 678 LINE"
);
},
{
closed = 1;
nodes = (
"60 532 LINE",
"60 294 LINE",
"229 294 LINE",
"229 224 LINE",
"60 224 LINE",
"60 4 LINE",
"136 4 OFFCURVE",
"207 3 OFFCURVE",
"277 -62 CURVE",
"323 -54 LINE",
"280 26 OFFCURVE",
"216 80 OFFCURVE",
"146 90 CURVE",
"146 139 LINE",
"325 139 LINE",
"325 376 LINE",
"156 376 LINE",
"156 446 LINE",
"395 446 LINE",
"395 -7 LINE",
"491 -66 LINE",
"491 532 LINE"
);
}
);
width = 717;
}
);
leftMetricsKey = da_marc;
rightMetricsKey = o_marc;
script = marc;
category = Letter;
},
{
glyphname = da_ra.sub;
lastChange = "2017-12-13 22:26:47 +0000";
layers = (
{
layerId = "76B3AF2C-89AC-4CB1-B1C9-F754B2D43151";
paths = (
{
closed = 1;
nodes = (
"60 678 LINE",
"60 440 LINE",
"229 440 LINE",
"229 370 LINE",
"60 370 LINE",
"60 150 LINE",
"136 150 OFFCURVE",
"207 149 OFFCURVE",
"277 84 CURVE",
"323 92 LINE",
"280 172 OFFCURVE",
"216 226 OFFCURVE",
"146 236 CURVE",
"146 285 LINE",
"325 285 LINE",
"325 522 LINE",
"156 522 LINE",
"156 592 LINE",
"395 592 LINE",
"395 -26 LINE",
"299 24 LINE",
"60 24 LINE",
"60 -62 LINE",
"491 -62 LINE",
"491 678 LINE"
);
}
);
width = 551;
}
);
leftMetricsKey = da_marc;
rightMetricsKey = da_marc;
script = marc;
category = Letter;
},
{
glyphname = da_ra.sub_e_marc;
lastChange = "2017-12-13 22:26:47 +0000";
layers = (
{
layerId = "76B3AF2C-89AC-4CB1-B1C9-F754B2D43151";
paths = (
{
closed = 1;
nodes = (
"60 592 LINE",
"395 592 LINE",
"395 532 LINE",
"60 532 LINE",
"60 294 LINE",
"229 294 LINE",
"229 224 LINE",
"60 224 LINE",
"60 4 LINE",
"136 4 OFFCURVE",
"207 3 OFFCURVE",
"277 -62 CURVE",
"323 -54 LINE",
"280 26 OFFCURVE",
"216 80 OFFCURVE",
"146 90 CURVE",
"146 139 LINE",
"325 139 LINE",
"325 376 LINE",
"156 376 LINE",
"156 446 LINE",
"395 446 LINE",
"395 -172 LINE",
"299 -122 LINE",
"60 -122 LINE",
"60 -208 LINE",
"491 -208 LINE",
"491 678 LINE",
"60 678 LINE"
);
}
);
width = 551;
}
);
leftMetricsKey = da_marc;
rightMetricsKey = da_marc;
script = marc;
category = Letter;
},
{
glyphname = da_ra.sub_i_marc;
lastChange = "2017-12-13 22:26:47 +0000";
layers = (
{
layerId = "76B3AF2C-89AC-4CB1-B1C9-F754B2D43151";
paths = (
{
closed = 1;
nodes = (
"342 759 OFFCURVE",
"276 869 OFFCURVE",
"181 869 CURVE SMOOTH",
"108 869 OFFCURVE",
"60 808 OFFCURVE",
"60 714 CURVE SMOOTH",
"60 17 LINE",
"156 -42 LINE",
"156 717 LINE SMOOTH",
"156 768 OFFCURVE",
"169 797 OFFCURVE",
"207 797 CURVE SMOOTH",
"266 797 OFFCURVE",
"314 731 OFFCURVE",
"342 678 CURVE",
"226 678 LINE",
"226 440 LINE",
"395 440 LINE",
"395 370 LINE",
"226 370 LINE",
"226 150 LINE",
"302 150 OFFCURVE",
"373 149 OFFCURVE",
"443 84 CURVE",
"489 92 LINE",
"446 172 OFFCURVE",
"382 226 OFFCURVE",
"312 236 CURVE",
"312 285 LINE",
"491 285 LINE",
"491 522 LINE",
"322 522 LINE",
"322 592 LINE",
"561 592 LINE",
"561 -26 LINE",
"465 24 LINE",
"226 24 LINE",
"226 -62 LINE",
"657 -62 LINE",
"657 678 LINE",
"375 678 LINE"
);
}
);
width = 717;
}
);
leftMetricsKey = i_marc;
rightMetricsKey = da_marc;
script = marc;
category = Letter;
},
{
glyphname = da_ra.sub_o_marc;
lastChange = "2017-12-13 22:26:47 +0000";
layers = (
{
layerId = "76B3AF2C-89AC-4CB1-B1C9-F754B2D43151";
paths = (
{
closed = 1;
nodes = (
"60 592 LINE",
"562 592 LINE",
"562 -209 LINE",
"658 -268 LINE",
"658 678 LINE",
"60 678 LINE"
);
},
{
closed = 1;
nodes = (
"61 532 LINE",
"61 294 LINE",
"230 294 LINE",
"230 224 LINE",
"61 224 LINE",
"61 4 LINE",
"137 4 OFFCURVE",
"208 3 OFFCURVE",
"278 -62 CURVE",
"324 -54 LINE",
"281 26 OFFCURVE",
"217 80 OFFCURVE",
"147 90 CURVE",
"147 139 LINE",
"326 139 LINE",
"326 376 LINE",
"157 376 LINE",
"157 446 LINE",
"396 446 LINE",
"396 -172 LINE",
"300 -122 LINE",
"60 -122 LINE",
"60 -208 LINE",
"492 -208 LINE",
"492 532 LINE"
);
}
);
width = 718;
}
);
leftMetricsKey = da_marc;
rightMetricsKey = o_marc;
script = marc;
category = Letter;
},
{
glyphname = da_ra.sub_u_marc;
lastChange = "2017-12-13 22:26:47 +0000";
layers = (
{
layerId = "76B3AF2C-89AC-4CB1-B1C9-F754B2D43151";
paths = (
{
closed = 1;
nodes = (
"60 678 LINE",
"60 440 LINE",
"229 440 LINE",
"229 370 LINE",
"60 370 LINE",
"60 150 LINE",
"136 150 OFFCURVE",
"207 149 OFFCURVE",
"277 84 CURVE",
"323 92 LINE",
"280 172 OFFCURVE",
"216 226 OFFCURVE",
"146 236 CURVE",
"146 285 LINE",
"325 285 LINE",
"325 522 LINE",
"156 522 LINE",
"156 592 LINE",
"395 592 LINE",
"395 -26 LINE",
"299 24 LINE",
"60 24 LINE",
"60 -62 LINE",
"395 -62 LINE",
"395 -132 LINE",
"60 -132 LINE",
"60 -218 LINE",
"491 -218 LINE",
"491 678 LINE"
);
}
);
width = 551;
}
);
leftMetricsKey = da_marc;
rightMetricsKey = da_marc;
script = marc;
category = Letter;
},
{
glyphname = da_ra.sub_wa.sub;
lastChange = "2017-12-13 22:26:47 +0000";
layers = (
{
layerId = "76B3AF2C-89AC-4CB1-B1C9-F754B2D43151";
paths = (
{
closed = 1;
nodes = (
"60 678 LINE",
"60 440 LINE",
"229 440 LINE",
"229 370 LINE",
"60 370 LINE",
"60 150 LINE",
"136 150 OFFCURVE",
"207 149 OFFCURVE",
"277 84 CURVE",
"323 92 LINE",
"280 172 OFFCURVE",
"216 226 OFFCURVE",
"146 236 CURVE",
"146 285 LINE",
"325 285 LINE",
"325 522 LINE",
"156 522 LINE",
"156 592 LINE",
"395 592 LINE",
"395 -26 LINE",
"299 24 LINE",
"60 24 LINE",
"60 -62 LINE",
"395 -62 LINE",
"395 -132 LINE",
"60 -132 LINE",
"60 -347 LINE",
"491 -347 LINE",
"491 678 LINE"
);
},
{
closed = 1;
nodes = (
"110 -261 LINE",
"110 -218 LINE",
"395 -218 LINE",
"395 -261 LINE"
);
}
);
width = 551;
}
);
leftMetricsKey = da_marc;
rightMetricsKey = da_marc;
script = marc;
category = Letter;
},
{
glyphname = da_u_marc;
lastChange = "2017-12-13 22:26:47 +0000";
layers = (
{
layerId = "76B3AF2C-89AC-4CB1-B1C9-F754B2D43151";
paths = (
{
closed = 1;
nodes = (
"61 678 LINE",
"61 440 LINE",
"230 440 LINE",
"230 370 LINE",
"61 370 LINE",
"61 150 LINE",
"137 150 OFFCURVE",
"208 149 OFFCURVE",
"278 84 CURVE",
"324 92 LINE",
"281 172 OFFCURVE",
"217 226 OFFCURVE",
"147 236 CURVE",
"147 285 LINE",
"326 285 LINE",
"326 522 LINE",
"157 522 LINE",
"157 592 LINE",
"396 592 LINE",
"396 24 LINE",
"60 24 LINE",
"60 -62 LINE",
"492 -62 LINE",
"492 678 LINE"
);
}
);
width = 552;
}
);
leftMetricsKey = da_marc;
rightMetricsKey = da_marc;
script = marc;
category = Letter;
},
{
glyphname = da_wa.sub;
lastChange = "2017-12-13 22:26:47 +0000";
layers = (
{
layerId = "76B3AF2C-89AC-4CB1-B1C9-F754B2D43151";
paths = (
{
closed = 1;
nodes = (
"60 678 LINE",
"60 440 LINE",
"229 440 LINE",
"229 370 LINE",
"60 370 LINE",
"60 150 LINE",
"136 150 OFFCURVE",
"207 149 OFFCURVE",
"277 84 CURVE",
"323 92 LINE",
"280 172 OFFCURVE",
"216 226 OFFCURVE",
"146 236 CURVE",
"146 285 LINE",
"325 285 LINE",
"325 522 LINE",
"156 522 LINE",
"156 592 LINE",
"395 592 LINE",
"395 47 LINE",
"61 47 LINE",
"61 -168 LINE",
"491 -168 LINE",
"491 678 LINE"
);
},
{
closed = 1;
nodes = (
"111 -82 LINE",
"111 -39 LINE",
"395 -39 LINE",
"395 -82 LINE"
);
}
);
width = 551;
}
);
leftMetricsKey = da_marc;
rightMetricsKey = da_marc;
script = marc;
category = Letter;
},
{
glyphname = da_wa.sub_e_marc;
lastChange = "2017-12-13 22:26:47 +0000";
layers = (
{
layerId = "76B3AF2C-89AC-4CB1-B1C9-F754B2D43151";
paths = (
{
closed = 1;
nodes = (
"60 592 LINE",
"395 592 LINE",
"395 532 LINE",
"60 532 LINE",
"60 294 LINE",
"229 294 LINE",
"229 224 LINE",
"60 224 LINE",
"60 4 LINE",
"136 4 OFFCURVE",
"207 3 OFFCURVE",
"277 -62 CURVE",
"323 -54 LINE",
"280 26 OFFCURVE",
"216 80 OFFCURVE",
"146 90 CURVE",
"146 139 LINE",
"325 139 LINE",
"325 376 LINE",
"156 376 LINE",
"156 446 LINE",
"395 446 LINE",
"395 -99 LINE",
"60 -99 LINE",
"60 -314 LINE",
"491 -314 LINE",
"491 678 LINE",
"60 678 LINE"
);
},
{
closed = 1;
nodes = (
"110 -228 LINE",
"110 -185 LINE",
"395 -185 LINE",
"395 -228 LINE"
);
}
);
width = 551;
}
);
leftMetricsKey = da_marc;
rightMetricsKey = da_marc;
script = marc;
category = Letter;
},
{
glyphname = da_wa.sub_i_marc;
lastChange = "2017-12-13 22:26:47 +0000";
layers = (
{
layerId = "76B3AF2C-89AC-4CB1-B1C9-F754B2D43151";
paths = (
{
closed = 1;
nodes = (
"342 759 OFFCURVE",
"276 869 OFFCURVE",
"181 869 CURVE SMOOTH",
"108 869 OFFCURVE",
"60 808 OFFCURVE",
"60 714 CURVE SMOOTH",
"60 -3 LINE",
"156 -62 LINE",
"156 717 LINE SMOOTH",
"156 768 OFFCURVE",
"169 797 OFFCURVE",
"207 797 CURVE SMOOTH",
"266 797 OFFCURVE",
"314 731 OFFCURVE",
"342 678 CURVE",
"226 678 LINE",
"226 440 LINE",
"395 440 LINE",
"395 370 LINE",
"226 370 LINE",
"226 150 LINE",
"302 150 OFFCURVE",
"373 149 OFFCURVE",
"443 84 CURVE",
"489 92 LINE",
"446 172 OFFCURVE",
"382 226 OFFCURVE",
"312 236 CURVE",
"312 285 LINE",
"491 285 LINE",
"491 522 LINE",
"322 522 LINE",
"322 592 LINE",
"561 592 LINE",
"561 47 LINE",
"226 47 LINE",
"226 -168 LINE",
"657 -168 LINE",
"657 678 LINE",
"375 678 LINE"
);
},
{
closed = 1;
nodes = (
"276 -82 LINE",
"276 -39 LINE",
"561 -39 LINE",
"561 -82 LINE"
);
}
);
width = 717;
}
);
leftMetricsKey = i_marc;
rightMetricsKey = da_marc;
script = marc;
category = Letter;
},
{
glyphname = da_wa.sub_o_marc;
lastChange = "2017-12-13 22:26:47 +0000";
layers = (
{
layerId = "76B3AF2C-89AC-4CB1-B1C9-F754B2D43151";
paths = (
{
closed = 1;
nodes = (
"62 592 LINE",
"561 592 LINE",
"561 -315 LINE",
"657 -374 LINE",
"657 678 LINE",
"62 678 LINE"
);
},
{
closed = 1;
nodes = (
"60 532 LINE",
"60 294 LINE",
"229 294 LINE",
"229 224 LINE",
"60 224 LINE",
"60 4 LINE",
"136 4 OFFCURVE",
"207 3 OFFCURVE",
"277 -62 CURVE",
"323 -54 LINE",
"280 26 OFFCURVE",
"216 80 OFFCURVE",
"146 90 CURVE",
"146 139 LINE",
"325 139 LINE",
"325 376 LINE",
"156 376 LINE",
"156 446 LINE",
"395 446 LINE",
"395 -99 LINE",
"60 -99 LINE",
"60 -314 LINE",
"491 -314 LINE",
"491 532 LINE"
);
},
{
closed = 1;
nodes = (
"110 -228 LINE",
"110 -185 LINE",
"395 -185 LINE",
"395 -228 LINE"
);
}
);
width = 717;
}
);
leftMetricsKey = da_marc;
rightMetricsKey = o_marc;
script = marc;
category = Letter;
},
{
glyphname = da_wa.sub_u_marc;
lastChange = "2017-12-13 22:26:47 +0000";
layers = (
{
layerId = "76B3AF2C-89AC-4CB1-B1C9-F754B2D43151";
paths = (
{
closed = 1;
nodes = (
"60 678 LINE",
"60 440 LINE",
"229 440 LINE",
"229 370 LINE",
"60 370 LINE",
"60 150 LINE",
"136 150 OFFCURVE",
"207 149 OFFCURVE",
"277 84 CURVE",
"323 92 LINE",
"280 172 OFFCURVE",
"216 226 OFFCURVE",
"146 236 CURVE",
"146 285 LINE",
"325 285 LINE",
"325 522 LINE",
"156 522 LINE",
"156 592 LINE",
"395 592 LINE",
"395 47 LINE",
"60 47 LINE",
"60 -168 LINE",
"395 -168 LINE",
"395 -238 LINE",
"60 -238 LINE",
"60 -324 LINE",
"491 -324 LINE",
"491 678 LINE"
);
},
{
closed = 1;
nodes = (
"395 -39 LINE",
"395 -82 LINE",
"110 -82 LINE",
"110 -39 LINE"
);
}
);
width = 551;
}
);
leftMetricsKey = da_marc;
rightMetricsKey = da_marc;
script = marc;
category = Letter;
},
{
glyphname = da_ya.sub;
lastChange = "2017-12-13 22:26:47 +0000";
layers = (
{
layerId = "76B3AF2C-89AC-4CB1-B1C9-F754B2D43151";
paths = (
{
closed = 1;
nodes = (
"561 152 LINE",
"491 152 LINE",
"491 678 LINE",
"60 678 LINE",
"60 440 LINE",
"229 440 LINE",
"229 370 LINE",
"60 370 LINE",
"60 150 LINE",
"136 150 OFFCURVE",
"207 149 OFFCURVE",
"277 84 CURVE",
"323 92 LINE",
"280 172 OFFCURVE",
"216 226 OFFCURVE",
"146 236 CURVE",
"146 285 LINE",
"325 285 LINE",
"325 522 LINE",
"156 522 LINE",
"156 592 LINE",
"395 592 LINE",
"395 78 LINE",
"657 78 LINE",
"657 678 LINE",
"561 678 LINE"
);
}
);
width = 717;
}
);
leftMetricsKey = da_marc;
rightMetricsKey = ya_marc.sub;
script = marc;
category = Letter;
},
{
glyphname = dza_aa_marc.sub;
lastChange = "2017-12-13 22:26:47 +0000";
layers = (
{
layerId = "76B3AF2C-89AC-4CB1-B1C9-F754B2D43151";
paths = (
{
closed = 1;
nodes = (
"474 442 LINE",
"492 522 LINE",
"388 522 LINE",
"388 592 LINE",
"491 592 LINE",
"491 678 LINE",
"60 678 LINE",
"60 79 LINE",
"156 79 LINE",
"156 592 LINE",
"292 592 LINE",
"292 522 LINE",
"226 522 LINE",
"226 292 LINE",
"405 292 LINE",
"405 200 LINE",
"341 218 OFFCURVE",
"285 225 OFFCURVE",
"226 225 CURVE",
"226 145 LINE",
"317 144 OFFCURVE",
"386 130 OFFCURVE",
"491 88 CURVE",
"491 372 LINE",
"312 372 LINE",
"312 442 LINE"
);
},
{
closed = 1;
nodes = (
"395 -67 LINE",
"395 -127 LINE",
"60 -127 LINE",
"60 -213 LINE",
"227 -213 LINE",
"227 -314 LINE",
"180 -292 OFFCURVE",
"117 -281 OFFCURVE",
"60 -284 CURVE",
"60 -479 LINE",
"156 -538 LINE",
"156 -368 LINE",
"180 -366 OFFCURVE",
"203 -371 OFFCURVE",
"227 -383 CURVE",
"227 -521 LINE",
"323 -580 LINE",
"323 -213 LINE",
"395 -213 LINE",
"395 -551 LINE",
"491 -610 LINE",
"491 19 LINE",
"60 19 LINE",
"60 -67 LINE"
);
}
);
width = 552;
}
);
leftMetricsKey = dza_marc;
rightMetricsKey = dza_marc;
script = marc;
category = Letter;
},
{
glyphname = dza_e_marc;
lastChange = "2017-12-13 22:26:47 +0000";
layers = (
{
layerId = "76B3AF2C-89AC-4CB1-B1C9-F754B2D43151";
paths = (
{
closed = 1;
nodes = (
"474 296 LINE",
"492 376 LINE",
"388 376 LINE",
"388 446 LINE",
"491 446 LINE",
"491 678 LINE",
"60 678 LINE",
"60 592 LINE",
"395 592 LINE",
"395 532 LINE",
"60 532 LINE",
"60 -8 LINE",
"156 -67 LINE",
"156 446 LINE",
"292 446 LINE",
"292 376 LINE",
"226 376 LINE",
"226 146 LINE",
"405 146 LINE",
"405 54 LINE",
"341 72 OFFCURVE",
"285 79 OFFCURVE",
"226 79 CURVE",
"226 -1 LINE",
"317 -2 OFFCURVE",
"386 -16 OFFCURVE",
"491 -58 CURVE",
"491 226 LINE",
"312 226 LINE",
"312 296 LINE"
);
}
);
width = 552;
}
);
leftMetricsKey = dza_marc;
rightMetricsKey = dza_marc;
script = marc;
category = Letter;
},
{
glyphname = dza_i_marc;
lastChange = "2017-12-13 22:26:47 +0000";
layers = (
{
layerId = "76B3AF2C-89AC-4CB1-B1C9-F754B2D43151";
paths = (
{
closed = 1;
nodes = (
"640 442 LINE",
"658 522 LINE",
"554 522 LINE",
"554 592 LINE",
"657 592 LINE",
"657 678 LINE",
"473 678 LINE",
"430 759 OFFCURVE",
"335 869 OFFCURVE",
"201 869 CURVE SMOOTH",
"108 869 OFFCURVE",
"60 808 OFFCURVE",
"60 714 CURVE SMOOTH",
"60 138 LINE",
"156 79 LINE",
"156 717 LINE SMOOTH",
"156 768 OFFCURVE",
"169 797 OFFCURVE",
"232 797 CURVE SMOOTH",
"324 797 OFFCURVE",
"401 731 OFFCURVE",
"440 678 CURVE",
"226 678 LINE",
"226 138 LINE",
"322 79 LINE",
"322 592 LINE",
"458 592 LINE",
"458 522 LINE",
"392 522 LINE",
"392 292 LINE",
"571 292 LINE",
"571 200 LINE",
"507 218 OFFCURVE",
"451 225 OFFCURVE",
"392 225 CURVE",
"392 145 LINE",
"483 144 OFFCURVE",
"552 130 OFFCURVE",
"657 88 CURVE",
"657 372 LINE",
"478 372 LINE",
"478 442 LINE"
);
}
);
width = 718;
}
);
leftMetricsKey = i_marc;
rightMetricsKey = dza_marc;
script = marc;
category = Letter;
},
{
glyphname = dza_o_marc;
lastChange = "2017-12-13 22:26:47 +0000";
layers = (
{
layerId = "76B3AF2C-89AC-4CB1-B1C9-F754B2D43151";
paths = (
{
closed = 1;
nodes = (
"60 592 LINE",
"561 592 LINE",
"561 -81 LINE",
"657 -140 LINE",
"657 678 LINE",
"60 678 LINE"
);
},
{
closed = 1;
nodes = (
"492 376 LINE",
"388 376 LINE",
"388 446 LINE",
"491 446 LINE",
"491 532 LINE",
"60 532 LINE",
"60 -8 LINE",
"156 -67 LINE",
"156 446 LINE",
"292 446 LINE",
"292 376 LINE",
"226 376 LINE",
"226 146 LINE",
"405 146 LINE",
"405 54 LINE",
"341 72 OFFCURVE",
"285 79 OFFCURVE",
"226 79 CURVE",
"226 -1 LINE",
"317 -2 OFFCURVE",
"386 -16 OFFCURVE",
"491 -58 CURVE",
"491 226 LINE",
"312 226 LINE",
"312 296 LINE",
"474 296 LINE"
);
}
);
width = 717;
}
);
leftMetricsKey = dza_marc;
rightMetricsKey = o_marc;
script = marc;
category = Letter;
},
{
glyphname = dza_ra.sub;
lastChange = "2017-12-13 22:26:47 +0000";
layers = (
{
layerId = "76B3AF2C-89AC-4CB1-B1C9-F754B2D43151";
paths = (
{
closed = 1;
nodes = (
"474 442 LINE",
"492 522 LINE",
"388 522 LINE",
"388 592 LINE",
"491 592 LINE",
"491 678 LINE",
"60 678 LINE",
"60 79 LINE",
"156 79 LINE",
"156 592 LINE",
"292 592 LINE",
"292 522 LINE",
"226 522 LINE",
"226 292 LINE",
"405 292 LINE",
"405 200 LINE",
"341 218 OFFCURVE",
"285 225 OFFCURVE",
"226 225 CURVE",
"226 145 LINE",
"286 144 OFFCURVE",
"337 138 OFFCURVE",
"395 121 CURVE",
"395 -41 LINE",
"299 9 LINE",
"60 9 LINE",
"60 -77 LINE",
"491 -77 LINE",
"491 372 LINE",
"312 372 LINE",
"312 442 LINE"
);
}
);
width = 552;
}
);
leftMetricsKey = dza_marc;
rightMetricsKey = dza_marc;
script = marc;
category = Letter;
},
{
glyphname = dza_ra.sub_e_marc;
lastChange = "2017-12-13 22:26:47 +0000";
layers = (
{
layerId = "76B3AF2C-89AC-4CB1-B1C9-F754B2D43151";
paths = (
{
closed = 1;
nodes = (
"474 296 LINE",
"492 376 LINE",
"388 376 LINE",
"388 446 LINE",
"491 446 LINE",
"491 678 LINE",
"60 678 LINE",
"60 592 LINE",
"395 592 LINE",
"395 532 LINE",
"60 532 LINE",
"60 -67 LINE",
"156 -67 LINE",
"156 446 LINE",
"292 446 LINE",
"292 376 LINE",
"226 376 LINE",
"226 146 LINE",
"405 146 LINE",
"405 54 LINE",
"341 72 OFFCURVE",
"285 79 OFFCURVE",
"226 79 CURVE",
"226 -1 LINE",
"286 -2 OFFCURVE",
"337 -8 OFFCURVE",
"395 -25 CURVE",
"395 -187 LINE",
"299 -137 LINE",
"60 -137 LINE",
"60 -223 LINE",
"491 -223 LINE",
"491 226 LINE",
"312 226 LINE",
"312 296 LINE"
);
}
);
width = 552;
}
);
leftMetricsKey = dza_marc;
rightMetricsKey = dza_marc;
script = marc;
category = Letter;
},
{
glyphname = dza_u_marc;
lastChange = "2017-12-13 22:26:47 +0000";
layers = (
{
layerId = "76B3AF2C-89AC-4CB1-B1C9-F754B2D43151";
paths = (
{
closed = 1;
nodes = (
"474 442 LINE",
"492 522 LINE",
"388 522 LINE",
"388 592 LINE",
"491 592 LINE",
"491 678 LINE",
"60 678 LINE",
"60 79 LINE",
"156 79 LINE",
"156 592 LINE",
"292 592 LINE",
"292 522 LINE",
"226 522 LINE",
"226 292 LINE",
"405 292 LINE",
"405 200 LINE",
"341 218 OFFCURVE",
"285 225 OFFCURVE",
"226 225 CURVE",
"226 145 LINE",
"286 144 OFFCURVE",
"337 138 OFFCURVE",
"395 121 CURVE",
"395 9 LINE",
"60 9 LINE",
"60 -77 LINE",
"491 -77 LINE",
"491 372 LINE",
"312 372 LINE",
"312 442 LINE"
);
}
);
width = 552;
}
);
leftMetricsKey = dza_marc;
rightMetricsKey = dza_marc;
script = marc;
category = Letter;
},
{
glyphname = dza_wa.sub;
lastChange = "2017-12-13 22:26:47 +0000";
layers = (
{
layerId = "76B3AF2C-89AC-4CB1-B1C9-F754B2D43151";
paths = (
{
closed = 1;
nodes = (
"474 442 LINE",
"492 522 LINE",
"388 522 LINE",
"388 592 LINE",
"491 592 LINE",
"491 678 LINE",
"60 678 LINE",
"60 79 LINE",
"156 79 LINE",
"156 592 LINE",
"292 592 LINE",
"292 522 LINE",
"226 522 LINE",
"226 292 LINE",
"405 292 LINE",
"405 200 LINE",
"341 218 OFFCURVE",
"285 225 OFFCURVE",
"226 225 CURVE",
"226 145 LINE",
"286 144 OFFCURVE",
"337 138 OFFCURVE",
"395 121 CURVE",
"395 9 LINE",
"60 9 LINE",
"60 -206 LINE",
"491 -206 LINE",
"491 372 LINE",
"312 372 LINE",
"312 442 LINE"
);
},
{
closed = 1;
nodes = (
"110 -120 LINE",
"110 -77 LINE",
"395 -77 LINE",
"395 -120 LINE"
);
}
);
width = 552;
}
);
leftMetricsKey = dza_marc;
rightMetricsKey = dza_marc;
script = marc;
category = Letter;
},
{
glyphname = ga_aa_marc.sub;
lastChange = "2017-12-13 22:26:47 +0000";
layers = (
{
layerId = "76B3AF2C-89AC-4CB1-B1C9-F754B2D43151";
paths = (
{
closed = 1;
nodes = (
"60 592 LINE",
"231 592 LINE",
"231 522 LINE",
"60 522 LINE",
"60 280 LINE",
"108 280 LINE",
"38 148 LINE",
"50 102 LINE",
"74 121 OFFCURVE",
"113 138 OFFCURVE",
"162 138 CURVE SMOOTH",
"209 138 OFFCURVE",
"254 122 OFFCURVE",
"292 84 CURVE",
"338 92 LINE",
"297 171 OFFCURVE",
"217 217 OFFCURVE",
"155 217 CURVE SMOOTH",
"149 217 OFFCURVE",
"141 217 OFFCURVE",
"133 215 CURVE",
"167 280 LINE",
"299 280 LINE",
"317 366 LINE",
"156 366 LINE",
"156 436 LINE",
"317 436 LINE",
"317 592 LINE",
"389 592 LINE",
"389 78 LINE",
"485 78 LINE",
"485 678 LINE",
"60 678 LINE"
);
},
{
closed = 1;
nodes = (
"389 -68 LINE",
"389 -128 LINE",
"48 -128 LINE",
"48 -214 LINE",
"218 -214 LINE",
"218 -315 LINE",
"171 -293 OFFCURVE",
"105 -282 OFFCURVE",
"48 -285 CURVE",
"48 -480 LINE",
"144 -539 LINE",
"144 -369 LINE",
"168 -367 OFFCURVE",
"194 -372 OFFCURVE",
"218 -384 CURVE",
"218 -522 LINE",
"314 -581 LINE",
"314 -214 LINE",
"389 -214 LINE",
"389 -552 LINE",
"485 -611 LINE",
"485 18 LINE",
"48 18 LINE",
"48 -68 LINE"
);
}
);
width = 545;
}
);
leftMetricsKey = ga_marc;
rightMetricsKey = ga_marc;
script = marc;
category = Letter;
},
{
glyphname = ga_e_marc;
lastChange = "2017-12-13 22:26:47 +0000";
layers = (
{
layerId = "76B3AF2C-89AC-4CB1-B1C9-F754B2D43151";
paths = (
{
closed = 1;
nodes = (
"60 592 LINE",
"382 592 LINE",
"382 532 LINE",
"60 532 LINE",
"60 446 LINE",
"226 446 LINE",
"226 376 LINE",
"60 376 LINE",
"60 134 LINE",
"108 134 LINE",
"38 2 LINE",
"50 -44 LINE",
"74 -25 OFFCURVE",
"113 -8 OFFCURVE",
"162 -8 CURVE SMOOTH",
"209 -8 OFFCURVE",
"254 -24 OFFCURVE",
"292 -62 CURVE",
"338 -54 LINE",
"297 25 OFFCURVE",
"217 71 OFFCURVE",
"155 71 CURVE SMOOTH",
"149 71 OFFCURVE",
"141 71 OFFCURVE",
"133 69 CURVE",
"167 134 LINE",
"293 134 LINE",
"311 220 LINE",
"156 220 LINE",
"156 290 LINE",
"312 290 LINE",
"312 446 LINE",
"382 446 LINE",
"382 -9 LINE",
"478 -68 LINE",
"478 678 LINE",
"60 678 LINE"
);
}
);
width = 538;
}
);
leftMetricsKey = ga_marc;
rightMetricsKey = ga_marc;
script = marc;
category = Letter;
},
{
glyphname = ga_i_marc;
lastChange = "2017-12-13 22:26:47 +0000";
layers = (
{
layerId = "76B3AF2C-89AC-4CB1-B1C9-F754B2D43151";
paths = (
{
closed = 1;
nodes = (
"391 759 OFFCURVE",
"309 869 OFFCURVE",
"192 869 CURVE SMOOTH",
"108 869 OFFCURVE",
"60 808 OFFCURVE",
"60 714 CURVE SMOOTH",
"60 138 LINE",
"156 79 LINE",
"156 717 LINE SMOOTH",
"156 768 OFFCURVE",
"169 797 OFFCURVE",
"221 797 CURVE SMOOTH",
"298 797 OFFCURVE",
"363 731 OFFCURVE",
"396 678 CURVE",
"226 678 LINE",
"226 592 LINE",
"392 592 LINE",
"392 522 LINE",
"226 522 LINE",
"226 280 LINE",
"274 280 LINE",
"204 148 LINE",
"216 102 LINE",
"240 121 OFFCURVE",
"279 138 OFFCURVE",
"328 138 CURVE SMOOTH",
"375 138 OFFCURVE",
"420 122 OFFCURVE",
"458 84 CURVE",
"504 92 LINE",
"463 171 OFFCURVE",
"383 217 OFFCURVE",
"321 217 CURVE SMOOTH",
"315 217 OFFCURVE",
"307 217 OFFCURVE",
"299 215 CURVE",
"333 280 LINE",
"459 280 LINE",
"477 366 LINE",
"322 366 LINE",
"322 436 LINE",
"478 436 LINE",
"478 592 LINE",
"548 592 LINE",
"548 137 LINE",
"644 78 LINE",
"644 678 LINE",
"430 678 LINE"
);
}
);
width = 704;
}
);
leftMetricsKey = i_marc;
rightMetricsKey = ga_marc;
script = marc;
category = Letter;
},
{
glyphname = ga_la.sub;
lastChange = "2017-12-13 22:26:47 +0000";
layers = (
{
layerId = "76B3AF2C-89AC-4CB1-B1C9-F754B2D43151";
paths = (
{
closed = 1;
nodes = (
"60 592 LINE",
"269 592 LINE",
"269 522 LINE",
"60 522 LINE",
"60 280 LINE",
"108 280 LINE",
"38 148 LINE",
"50 102 LINE",
"74 121 OFFCURVE",
"113 138 OFFCURVE",
"162 138 CURVE SMOOTH",
"209 138 OFFCURVE",
"254 122 OFFCURVE",
"292 84 CURVE",
"338 92 LINE",
"297 171 OFFCURVE",
"217 217 OFFCURVE",
"155 217 CURVE SMOOTH",
"149 217 OFFCURVE",
"141 217 OFFCURVE",
"133 215 CURVE",
"167 280 LINE",
"344 280 LINE",
"362 366 LINE",
"156 366 LINE",
"156 436 LINE",
"355 436 LINE",
"355 592 LINE",
"442 592 LINE",
"442 78 LINE",
"538 78 LINE",
"538 678 LINE",
"60 678 LINE"
);
},
{
closed = 1;
nodes = (
"157 -138 LINE",
"157 18 LINE",
"61 18 LINE",
"61 -224 LINE",
"275 -224 LINE",
"275 -294 LINE",
"61 -294 LINE",
"61 -380 LINE",
"371 -380 LINE",
"371 -138 LINE",
"323 -138 LINE",
"323 -68 LINE",
"441 -68 LINE",
"441 -460 LINE",
"537 -519 LINE",
"537 18 LINE",
"227 18 LINE",
"227 -138 LINE"
);
}
);
width = 598;
}
);
leftMetricsKey = ga_marc;
rightMetricsKey = ga_marc;
script = marc;
category = Letter;
},
{
glyphname = ga_la.sub_e_marc;
lastChange = "2017-12-13 22:26:47 +0000";
layers = (
{
layerId = "76B3AF2C-89AC-4CB1-B1C9-F754B2D43151";
paths = (
{
closed = 1;
nodes = (
"60 592 LINE",
"442 592 LINE",
"442 532 LINE",
"60 532 LINE",
"60 446 LINE",
"269 446 LINE",
"269 376 LINE",
"60 376 LINE",
"60 134 LINE",
"108 134 LINE",
"38 2 LINE",
"50 -44 LINE",
"74 -25 OFFCURVE",
"113 -8 OFFCURVE",
"162 -8 CURVE SMOOTH",
"209 -8 OFFCURVE",
"254 -24 OFFCURVE",
"292 -62 CURVE",
"338 -54 LINE",
"297 25 OFFCURVE",
"217 71 OFFCURVE",
"155 71 CURVE SMOOTH",
"149 71 OFFCURVE",
"141 71 OFFCURVE",
"133 69 CURVE",
"167 134 LINE",
"344 134 LINE",
"362 220 LINE",
"156 220 LINE",
"156 290 LINE",
"355 290 LINE",
"355 446 LINE",
"442 446 LINE",
"442 -68 LINE",
"538 -68 LINE",
"538 678 LINE",
"60 678 LINE"
);
},
{
closed = 1;
nodes = (
"157 -284 LINE",
"157 -128 LINE",
"61 -128 LINE",
"61 -370 LINE",
"275 -370 LINE",
"275 -440 LINE",
"61 -440 LINE",
"61 -526 LINE",
"371 -526 LINE",
"371 -284 LINE",
"323 -284 LINE",
"323 -214 LINE",
"441 -214 LINE",
"441 -606 LINE",
"537 -665 LINE",
"537 -128 LINE",
"227 -128 LINE",
"227 -284 LINE"
);
}
);
width = 598;
}
);
leftMetricsKey = ga_marc;
rightMetricsKey = ga_marc;
script = marc;
category = Letter;
},
{
glyphname = ga_la.sub_i_marc;
lastChange = "2017-12-13 22:26:47 +0000";
layers = (
{
layerId = "76B3AF2C-89AC-4CB1-B1C9-F754B2D43151";
paths = (
{
closed = 1;
nodes = (
"323 -138 LINE",
"323 18 LINE",
"227 18 LINE",
"227 -224 LINE",
"441 -224 LINE",
"441 -294 LINE",
"227 -294 LINE",
"227 -380 LINE",
"537 -380 LINE",
"537 -138 LINE",
"489 -138 LINE",
"489 -68 LINE",
"607 -68 LINE",
"607 -460 LINE",
"703 -519 LINE",
"703 18 LINE",
"393 18 LINE",
"393 -138 LINE"
);
},
{
closed = 1;
nodes = (
"430 759 OFFCURVE",
"335 869 OFFCURVE",
"201 869 CURVE SMOOTH",
"108 869 OFFCURVE",
"60 808 OFFCURVE",
"60 714 CURVE SMOOTH",
"60 -319 LINE",
"156 -378 LINE",
"156 717 LINE SMOOTH",
"156 768 OFFCURVE",
"169 797 OFFCURVE",
"232 797 CURVE SMOOTH",
"324 797 OFFCURVE",
"401 731 OFFCURVE",
"440 678 CURVE",
"226 678 LINE",
"226 592 LINE",
"435 592 LINE",
"435 522 LINE",
"226 522 LINE",
"226 280 LINE",
"274 280 LINE",
"204 148 LINE",
"216 102 LINE",
"240 121 OFFCURVE",
"279 138 OFFCURVE",
"328 138 CURVE SMOOTH",
"375 138 OFFCURVE",
"420 122 OFFCURVE",
"458 84 CURVE",
"504 92 LINE",
"463 171 OFFCURVE",
"383 217 OFFCURVE",
"321 217 CURVE SMOOTH",
"315 217 OFFCURVE",
"307 217 OFFCURVE",
"299 215 CURVE",
"333 280 LINE",
"510 280 LINE",
"528 366 LINE",
"322 366 LINE",
"322 436 LINE",
"521 436 LINE",
"521 592 LINE",
"608 592 LINE",
"608 78 LINE",
"704 78 LINE",
"704 678 LINE",
"473 678 LINE"
);
}
);
width = 764;
}
);
leftMetricsKey = i_marc;
rightMetricsKey = ga_marc;
script = marc;
category = Letter;
},
{
glyphname = ga_la.sub_i_marc_short;
lastChange = "2017-12-13 22:26:47 +0000";
layers = (
{
layerId = "76B3AF2C-89AC-4CB1-B1C9-F754B2D43151";
paths = (
{
closed = 1;
nodes = (
"430 759 OFFCURVE",
"335 869 OFFCURVE",
"201 869 CURVE SMOOTH",
"108 869 OFFCURVE",
"60 808 OFFCURVE",
"60 714 CURVE SMOOTH",
"60 138 LINE",
"156 79 LINE",
"156 717 LINE SMOOTH",
"156 768 OFFCURVE",
"169 797 OFFCURVE",
"232 797 CURVE SMOOTH",
"324 797 OFFCURVE",
"401 731 OFFCURVE",
"440 678 CURVE",
"226 678 LINE",
"226 592 LINE",
"435 592 LINE",
"435 522 LINE",
"226 522 LINE",
"226 280 LINE",
"274 280 LINE",
"204 148 LINE",
"216 102 LINE",
"240 121 OFFCURVE",
"279 138 OFFCURVE",
"328 138 CURVE SMOOTH",
"375 138 OFFCURVE",
"420 122 OFFCURVE",
"458 84 CURVE",
"504 92 LINE",
"463 171 OFFCURVE",
"383 217 OFFCURVE",
"321 217 CURVE SMOOTH",
"315 217 OFFCURVE",
"307 217 OFFCURVE",
"299 215 CURVE",
"333 280 LINE",
"510 280 LINE",
"528 366 LINE",
"322 366 LINE",
"322 436 LINE",
"521 436 LINE",
"521 592 LINE",
"608 592 LINE",
"608 78 LINE",
"704 78 LINE",
"704 678 LINE",
"473 678 LINE"
);
},
{
closed = 1;
nodes = (
"323 -138 LINE",
"323 18 LINE",
"227 18 LINE",
"227 -224 LINE",
"441 -224 LINE",
"441 -294 LINE",
"227 -294 LINE",
"227 -380 LINE",
"537 -380 LINE",
"537 -138 LINE",
"489 -138 LINE",
"489 -68 LINE",
"607 -68 LINE",
"607 -460 LINE",
"703 -519 LINE",
"703 18 LINE",
"393 18 LINE",
"393 -138 LINE"
);
}
);
width = 764;
}
);
leftMetricsKey = i_marc;
rightMetricsKey = ga_marc;
script = marc;
category = Letter;
},
{
glyphname = ga_la.sub_o_marc;
lastChange = "2017-12-13 22:26:47 +0000";
layers = (
{
layerId = "76B3AF2C-89AC-4CB1-B1C9-F754B2D43151";
paths = (
{
closed = 1;
nodes = (
"60 592 LINE",
"607 592 LINE",
"607 -667 LINE",
"703 -726 LINE",
"703 678 LINE",
"60 678 LINE"
);
},
{
closed = 1;
nodes = (
"269 446 LINE",
"269 376 LINE",
"60 376 LINE",
"60 134 LINE",
"108 134 LINE",
"38 2 LINE",
"50 -44 LINE",
"74 -25 OFFCURVE",
"113 -8 OFFCURVE",
"162 -8 CURVE SMOOTH",
"209 -8 OFFCURVE",
"254 -24 OFFCURVE",
"292 -62 CURVE",
"338 -54 LINE",
"297 25 OFFCURVE",
"217 71 OFFCURVE",
"155 71 CURVE SMOOTH",
"149 71 OFFCURVE",
"141 71 OFFCURVE",
"133 69 CURVE",
"167 134 LINE",
"344 134 LINE",
"362 220 LINE",
"156 220 LINE",
"156 290 LINE",
"355 290 LINE",
"355 446 LINE",
"442 446 LINE",
"442 -68 LINE",
"538 -68 LINE",
"538 532 LINE",
"60 532 LINE",
"60 446 LINE"
);
},
{
closed = 1;
nodes = (
"157 -284 LINE",
"157 -128 LINE",
"61 -128 LINE",
"61 -370 LINE",
"275 -370 LINE",
"275 -440 LINE",
"61 -440 LINE",
"61 -526 LINE",
"371 -526 LINE",
"371 -284 LINE",
"323 -284 LINE",
"323 -214 LINE",
"441 -214 LINE",
"441 -606 LINE",
"537 -665 LINE",
"537 -128 LINE",
"227 -128 LINE",
"227 -284 LINE"
);
}
);
width = 763;
}
);
leftMetricsKey = ga_marc;
rightMetricsKey = o_marc;
script = marc;
category = Letter;
},
{
glyphname = ga_la.sub_u_marc;
lastChange = "2017-12-13 22:26:47 +0000";
layers = (
{
layerId = "76B3AF2C-89AC-4CB1-B1C9-F754B2D43151";
paths = (
{
closed = 1;
nodes = (
"60 592 LINE",
"269 592 LINE",
"269 522 LINE",
"60 522 LINE",
"60 280 LINE",
"108 280 LINE",
"38 148 LINE",
"50 102 LINE",
"74 121 OFFCURVE",
"113 138 OFFCURVE",
"162 138 CURVE SMOOTH",
"209 138 OFFCURVE",
"254 122 OFFCURVE",
"292 84 CURVE",
"338 92 LINE",
"297 171 OFFCURVE",
"217 217 OFFCURVE",
"155 217 CURVE SMOOTH",
"149 217 OFFCURVE",
"141 217 OFFCURVE",
"133 215 CURVE",
"167 280 LINE",
"344 280 LINE",
"362 366 LINE",
"156 366 LINE",
"156 436 LINE",
"355 436 LINE",
"355 592 LINE",
"442 592 LINE",
"442 78 LINE",
"538 78 LINE",
"538 678 LINE",
"60 678 LINE"
);
},
{
closed = 1;
nodes = (
"157 -138 LINE",
"157 18 LINE",
"61 18 LINE",
"61 -224 LINE",
"275 -224 LINE",
"275 -294 LINE",
"61 -294 LINE",
"61 -380 LINE",
"371 -380 LINE",
"371 -138 LINE",
"323 -138 LINE",
"323 -68 LINE",
"441 -68 LINE",
"441 -450 LINE",
"60 -450 LINE",
"60 -536 LINE",
"537 -536 LINE",
"537 18 LINE",
"227 18 LINE",
"227 -138 LINE"
);
}
);
width = 598;
}
);
leftMetricsKey = ga_marc;
rightMetricsKey = ga_marc;
script = marc;
category = Letter;
},
{
glyphname = ga_o_marc;
lastChange = "2017-12-13 22:26:47 +0000";
layers = (
{
layerId = "76B3AF2C-89AC-4CB1-B1C9-F754B2D43151";
paths = (
{
closed = 1;
nodes = (
"60 592 LINE",
"548 592 LINE",
"548 -95 LINE",
"644 -154 LINE",
"644 678 LINE",
"60 678 LINE"
);
},
{
closed = 1;
nodes = (
"226 446 LINE",
"226 376 LINE",
"60 376 LINE",
"60 134 LINE",
"108 134 LINE",
"38 2 LINE",
"50 -44 LINE",
"74 -25 OFFCURVE",
"113 -8 OFFCURVE",
"162 -8 CURVE SMOOTH",
"209 -8 OFFCURVE",
"254 -24 OFFCURVE",
"292 -62 CURVE",
"338 -54 LINE",
"297 25 OFFCURVE",
"217 71 OFFCURVE",
"155 71 CURVE SMOOTH",
"149 71 OFFCURVE",
"141 71 OFFCURVE",
"133 69 CURVE",
"167 134 LINE",
"293 134 LINE",
"311 220 LINE",
"156 220 LINE",
"156 290 LINE",
"312 290 LINE",
"312 446 LINE",
"382 446 LINE",
"382 -9 LINE",
"478 -68 LINE",
"478 532 LINE",
"60 532 LINE",
"60 446 LINE"
);
}
);
width = 704;
}
);
leftMetricsKey = ga_marc;
rightMetricsKey = o_marc;
script = marc;
category = Letter;
},
{
glyphname = ga_ra.sub;
lastChange = "2017-12-13 22:26:47 +0000";
layers = (
{
layerId = "76B3AF2C-89AC-4CB1-B1C9-F754B2D43151";
paths = (
{
closed = 1;
nodes = (
"60 592 LINE",
"226 592 LINE",
"226 522 LINE",
"60 522 LINE",
"60 280 LINE",
"108 280 LINE",
"38 148 LINE",
"50 102 LINE",
"74 121 OFFCURVE",
"113 138 OFFCURVE",
"162 138 CURVE SMOOTH",
"209 138 OFFCURVE",
"254 122 OFFCURVE",
"292 84 CURVE",
"338 92 LINE",
"297 171 OFFCURVE",
"217 217 OFFCURVE",
"155 217 CURVE SMOOTH",
"149 217 OFFCURVE",
"141 217 OFFCURVE",
"133 215 CURVE",
"167 280 LINE",
"293 280 LINE",
"311 366 LINE",
"156 366 LINE",
"156 436 LINE",
"312 436 LINE",
"312 592 LINE",
"382 592 LINE",
"382 -26 LINE",
"286 24 LINE",
"60 24 LINE",
"60 -62 LINE",
"478 -62 LINE",
"478 678 LINE",
"60 678 LINE"
);
}
);
width = 538;
}
);
leftMetricsKey = ga_marc;
rightMetricsKey = ga_marc;
script = marc;
category = Letter;
},
{
glyphname = ga_ra.sub_e_marc;
lastChange = "2017-12-13 22:26:47 +0000";
layers = (
{
layerId = "76B3AF2C-89AC-4CB1-B1C9-F754B2D43151";
paths = (
{
closed = 1;
nodes = (
"60 592 LINE",
"382 592 LINE",
"382 532 LINE",
"60 532 LINE",
"60 446 LINE",
"226 446 LINE",
"226 376 LINE",
"60 376 LINE",
"60 134 LINE",
"108 134 LINE",
"38 2 LINE",
"50 -44 LINE",
"74 -25 OFFCURVE",
"113 -8 OFFCURVE",
"162 -8 CURVE SMOOTH",
"209 -8 OFFCURVE",
"254 -24 OFFCURVE",
"292 -62 CURVE",
"338 -54 LINE",
"297 25 OFFCURVE",
"217 71 OFFCURVE",
"155 71 CURVE SMOOTH",
"149 71 OFFCURVE",
"141 71 OFFCURVE",
"133 69 CURVE",
"167 134 LINE",
"293 134 LINE",
"311 220 LINE",
"156 220 LINE",
"156 290 LINE",
"312 290 LINE",
"312 446 LINE",
"382 446 LINE",
"382 -172 LINE",
"286 -122 LINE",
"60 -122 LINE",
"60 -208 LINE",
"478 -208 LINE",
"478 678 LINE",
"60 678 LINE"
);
}
);
width = 538;
}
);
leftMetricsKey = ga_marc;
rightMetricsKey = ga_marc;
script = marc;
category = Letter;
},
{
glyphname = ga_ra.sub_i_marc;
lastChange = "2017-12-13 22:26:47 +0000";
layers = (
{
layerId = "76B3AF2C-89AC-4CB1-B1C9-F754B2D43151";
paths = (
{
closed = 1;
nodes = (
"385 759 OFFCURVE",
"306 869 OFFCURVE",
"191 869 CURVE SMOOTH",
"108 869 OFFCURVE",
"60 808 OFFCURVE",
"60 714 CURVE SMOOTH",
"60 0 LINE",
"156 -59 LINE",
"156 717 LINE SMOOTH",
"156 768 OFFCURVE",
"169 797 OFFCURVE",
"219 797 CURVE SMOOTH",
"295 797 OFFCURVE",
"357 731 OFFCURVE",
"390 678 CURVE",
"226 678 LINE",
"226 592 LINE",
"392 592 LINE",
"392 522 LINE",
"226 522 LINE",
"226 280 LINE",
"274 280 LINE",
"204 148 LINE",
"216 102 LINE",
"240 121 OFFCURVE",
"279 138 OFFCURVE",
"328 138 CURVE SMOOTH",
"375 138 OFFCURVE",
"420 122 OFFCURVE",
"458 84 CURVE",
"504 92 LINE",
"463 171 OFFCURVE",
"383 217 OFFCURVE",
"321 217 CURVE SMOOTH",
"315 217 OFFCURVE",
"307 217 OFFCURVE",
"299 215 CURVE",
"333 280 LINE",
"459 280 LINE",
"477 366 LINE",
"322 366 LINE",
"322 436 LINE",
"478 436 LINE",
"478 592 LINE",
"548 592 LINE",
"548 -26 LINE",
"452 24 LINE",
"226 24 LINE",
"226 -62 LINE",
"644 -62 LINE",
"644 678 LINE",
"423 678 LINE"
);
}
);
width = 704;
}
);
leftMetricsKey = i_marc;
rightMetricsKey = ga_marc;
script = marc;
category = Letter;
},
{
glyphname = ga_ra.sub_o_marc;
lastChange = "2017-12-13 22:26:47 +0000";
layers = (
{
layerId = "76B3AF2C-89AC-4CB1-B1C9-F754B2D43151";
paths = (
{
closed = 1;
nodes = (
"61 592 LINE",
"548 592 LINE",
"548 -207 LINE",
"644 -266 LINE",
"644 678 LINE",
"61 678 LINE"
);
},
{
closed = 1;
nodes = (
"226 446 LINE",
"226 376 LINE",
"60 376 LINE",
"60 134 LINE",
"108 134 LINE",
"38 2 LINE",
"50 -44 LINE",
"74 -25 OFFCURVE",
"113 -8 OFFCURVE",
"162 -8 CURVE SMOOTH",
"209 -8 OFFCURVE",
"254 -24 OFFCURVE",
"292 -62 CURVE",
"338 -54 LINE",
"297 25 OFFCURVE",
"217 71 OFFCURVE",
"155 71 CURVE SMOOTH",
"149 71 OFFCURVE",
"141 71 OFFCURVE",
"133 69 CURVE",
"167 134 LINE",
"293 134 LINE",
"311 220 LINE",
"156 220 LINE",
"156 290 LINE",
"312 290 LINE",
"312 446 LINE",
"382 446 LINE",
"382 -172 LINE",
"286 -122 LINE",
"60 -122 LINE",
"60 -208 LINE",
"478 -208 LINE",
"478 532 LINE",
"60 532 LINE",
"60 446 LINE"
);
}
);
width = 704;
}
);
leftMetricsKey = ga_marc;
rightMetricsKey = o_marc;
script = marc;
category = Letter;
},
{
glyphname = ga_ra.sub_u_marc;
lastChange = "2017-12-13 22:26:47 +0000";
layers = (
{
layerId = "76B3AF2C-89AC-4CB1-B1C9-F754B2D43151";
paths = (
{
closed = 1;
nodes = (
"60 592 LINE",
"226 592 LINE",
"226 522 LINE",
"60 522 LINE",
"60 280 LINE",
"108 280 LINE",
"38 148 LINE",
"50 102 LINE",
"74 121 OFFCURVE",
"113 138 OFFCURVE",
"162 138 CURVE SMOOTH",
"209 138 OFFCURVE",
"254 122 OFFCURVE",
"292 84 CURVE",
"338 92 LINE",
"297 171 OFFCURVE",
"217 217 OFFCURVE",
"155 217 CURVE SMOOTH",
"149 217 OFFCURVE",
"141 217 OFFCURVE",
"133 215 CURVE",
"167 280 LINE",
"293 280 LINE",
"311 366 LINE",
"156 366 LINE",
"156 436 LINE",
"312 436 LINE",
"312 592 LINE",
"382 592 LINE",
"382 -26 LINE",
"286 24 LINE",
"60 24 LINE",
"60 -62 LINE",
"382 -62 LINE",
"382 -132 LINE",
"60 -132 LINE",
"60 -218 LINE",
"478 -218 LINE",
"478 678 LINE",
"60 678 LINE"
);
}
);
width = 538;
}
);
leftMetricsKey = ga_marc;
rightMetricsKey = ga_marc;
script = marc;
category = Letter;
},
{
glyphname = ga_ra.sub_wa.sub;
lastChange = "2017-12-13 22:26:47 +0000";
layers = (
{
layerId = "76B3AF2C-89AC-4CB1-B1C9-F754B2D43151";
paths = (
{
closed = 1;
nodes = (
"60 592 LINE",
"226 592 LINE",
"226 522 LINE",
"60 522 LINE",
"60 280 LINE",
"108 280 LINE",
"38 148 LINE",
"50 102 LINE",
"74 121 OFFCURVE",
"113 138 OFFCURVE",
"162 138 CURVE SMOOTH",
"209 138 OFFCURVE",
"254 122 OFFCURVE",
"292 84 CURVE",
"338 92 LINE",
"297 171 OFFCURVE",
"217 217 OFFCURVE",
"155 217 CURVE SMOOTH",
"149 217 OFFCURVE",
"141 217 OFFCURVE",
"133 215 CURVE",
"167 280 LINE",
"293 280 LINE",
"311 366 LINE",
"156 366 LINE",
"156 436 LINE",
"312 436 LINE",
"312 592 LINE",
"382 592 LINE",
"382 -26 LINE",
"286 24 LINE",
"60 24 LINE",
"60 -62 LINE",
"382 -62 LINE",
"382 -132 LINE",
"60 -132 LINE",
"60 -347 LINE",
"478 -347 LINE",
"478 678 LINE",
"60 678 LINE"
);
},
{
closed = 1;
nodes = (
"110 -261 LINE",
"110 -218 LINE",
"382 -218 LINE",
"382 -261 LINE"
);
}
);
width = 538;
}
);
leftMetricsKey = ga_marc;
rightMetricsKey = ga_marc;
script = marc;
category = Letter;
},
{
glyphname = ga_u_marc;
lastChange = "2017-12-13 22:26:47 +0000";
layers = (
{
layerId = "76B3AF2C-89AC-4CB1-B1C9-F754B2D43151";
paths = (
{
closed = 1;
nodes = (
"60 592 LINE",
"226 592 LINE",
"226 522 LINE",
"60 522 LINE",
"60 280 LINE",
"108 280 LINE",
"38 148 LINE",
"50 102 LINE",
"74 121 OFFCURVE",
"113 138 OFFCURVE",
"162 138 CURVE SMOOTH",
"209 138 OFFCURVE",
"254 122 OFFCURVE",
"292 84 CURVE",
"338 92 LINE",
"297 171 OFFCURVE",
"217 217 OFFCURVE",
"155 217 CURVE SMOOTH",
"149 217 OFFCURVE",
"141 217 OFFCURVE",
"133 215 CURVE",
"167 280 LINE",
"293 280 LINE",
"311 366 LINE",
"156 366 LINE",
"156 436 LINE",
"312 436 LINE",
"312 592 LINE",
"382 592 LINE",
"382 15 LINE",
"60 15 LINE",
"60 -71 LINE",
"478 -71 LINE",
"478 678 LINE",
"60 678 LINE"
);
}
);
width = 538;
}
);
leftMetricsKey = ga_marc;
rightMetricsKey = ga_marc;
script = marc;
category = Letter;
},
{
glyphname = ga_wa.sub;
lastChange = "2017-12-13 22:26:47 +0000";
layers = (
{
layerId = "76B3AF2C-89AC-4CB1-B1C9-F754B2D43151";
paths = (
{
closed = 1;
nodes = (
"60 592 LINE",
"226 592 LINE",
"226 522 LINE",
"60 522 LINE",
"60 280 LINE",
"108 280 LINE",
"38 148 LINE",
"50 102 LINE",
"74 121 OFFCURVE",
"113 138 OFFCURVE",
"162 138 CURVE SMOOTH",
"209 138 OFFCURVE",
"254 122 OFFCURVE",
"292 84 CURVE",
"338 92 LINE",
"297 171 OFFCURVE",
"217 217 OFFCURVE",
"155 217 CURVE SMOOTH",
"149 217 OFFCURVE",
"141 217 OFFCURVE",
"133 215 CURVE",
"167 280 LINE",
"293 280 LINE",
"311 366 LINE",
"156 366 LINE",
"156 436 LINE",
"312 436 LINE",
"312 592 LINE",
"382 592 LINE",
"382 37 LINE",
"55 37 LINE",
"55 -178 LINE",
"478 -178 LINE",
"478 678 LINE",
"60 678 LINE"
);
},
{
closed = 1;
nodes = (
"105 -92 LINE",
"105 -49 LINE",
"382 -49 LINE",
"382 -92 LINE"
);
}
);
width = 538;
}
);
leftMetricsKey = ga_marc;
rightMetricsKey = ga_marc;
script = marc;
category = Letter;
},
{
glyphname = ga_wa.sub_e_marc;
lastChange = "2017-12-13 22:26:47 +0000";
layers = (
{
layerId = "76B3AF2C-89AC-4CB1-B1C9-F754B2D43151";
paths = (
{
closed = 1;
nodes = (
"60 592 LINE",
"382 592 LINE",
"382 532 LINE",
"60 532 LINE",
"60 446 LINE",
"226 446 LINE",
"226 376 LINE",
"60 376 LINE",
"60 134 LINE",
"108 134 LINE",
"38 2 LINE",
"50 -44 LINE",
"74 -25 OFFCURVE",
"113 -8 OFFCURVE",
"162 -8 CURVE SMOOTH",
"209 -8 OFFCURVE",
"254 -24 OFFCURVE",
"292 -62 CURVE",
"338 -54 LINE",
"297 25 OFFCURVE",
"217 71 OFFCURVE",
"155 71 CURVE SMOOTH",
"149 71 OFFCURVE",
"141 71 OFFCURVE",
"133 69 CURVE",
"167 134 LINE",
"293 134 LINE",
"311 220 LINE",
"156 220 LINE",
"156 290 LINE",
"312 290 LINE",
"312 446 LINE",
"382 446 LINE",
"382 -109 LINE",
"55 -109 LINE",
"55 -324 LINE",
"478 -324 LINE",
"478 678 LINE",
"60 678 LINE"
);
},
{
closed = 1;
nodes = (
"105 -238 LINE",
"105 -195 LINE",
"382 -195 LINE",
"382 -238 LINE"
);
}
);
width = 538;
}
);
leftMetricsKey = ga_marc;
rightMetricsKey = ga_marc;
script = marc;
category = Letter;
},
{
glyphname = ga_wa.sub_i_marc;
lastChange = "2017-12-13 22:26:47 +0000";
layers = (
{
layerId = "76B3AF2C-89AC-4CB1-B1C9-F754B2D43151";
paths = (
{
closed = 1;
nodes = (
"384 759 OFFCURVE",
"305 869 OFFCURVE",
"191 869 CURVE SMOOTH",
"108 869 OFFCURVE",
"60 808 OFFCURVE",
"60 714 CURVE SMOOTH",
"60 -14 LINE",
"156 -73 LINE",
"156 717 LINE SMOOTH",
"156 768 OFFCURVE",
"169 797 OFFCURVE",
"219 797 CURVE SMOOTH",
"294 797 OFFCURVE",
"356 731 OFFCURVE",
"389 678 CURVE",
"226 678 LINE",
"226 592 LINE",
"392 592 LINE",
"392 522 LINE",
"226 522 LINE",
"226 280 LINE",
"274 280 LINE",
"204 148 LINE",
"216 102 LINE",
"240 121 OFFCURVE",
"279 138 OFFCURVE",
"328 138 CURVE SMOOTH",
"375 138 OFFCURVE",
"420 122 OFFCURVE",
"458 84 CURVE",
"504 92 LINE",
"463 171 OFFCURVE",
"383 217 OFFCURVE",
"321 217 CURVE SMOOTH",
"315 217 OFFCURVE",
"307 217 OFFCURVE",
"299 215 CURVE",
"333 280 LINE",
"459 280 LINE",
"477 366 LINE",
"322 366 LINE",
"322 436 LINE",
"478 436 LINE",
"478 592 LINE",
"548 592 LINE",
"548 37 LINE",
"221 37 LINE",
"221 -178 LINE",
"644 -178 LINE",
"644 678 LINE",
"422 678 LINE"
);
},
{
closed = 1;
nodes = (
"271 -92 LINE",
"271 -49 LINE",
"548 -49 LINE",
"548 -92 LINE"
);
}
);
width = 704;
}
);
leftMetricsKey = i_marc;
rightMetricsKey = ga_marc;
script = marc;
category = Letter;
},
{
glyphname = ga_wa.sub_o_marc;
lastChange = "2017-12-13 22:26:47 +0000";
layers = (
{
layerId = "76B3AF2C-89AC-4CB1-B1C9-F754B2D43151";
paths = (
{
closed = 1;
nodes = (
"61 592 LINE",
"548 592 LINE",
"548 -321 LINE",
"644 -380 LINE",
"644 678 LINE",
"61 678 LINE"
);
},
{
closed = 1;
nodes = (
"226 446 LINE",
"226 376 LINE",
"60 376 LINE",
"60 134 LINE",
"108 134 LINE",
"38 2 LINE",
"50 -44 LINE",
"74 -25 OFFCURVE",
"113 -8 OFFCURVE",
"162 -8 CURVE SMOOTH",
"209 -8 OFFCURVE",
"254 -24 OFFCURVE",
"292 -62 CURVE",
"338 -54 LINE",
"297 25 OFFCURVE",
"217 71 OFFCURVE",
"155 71 CURVE SMOOTH",
"149 71 OFFCURVE",
"141 71 OFFCURVE",
"133 69 CURVE",
"167 134 LINE",
"293 134 LINE",
"311 220 LINE",
"156 220 LINE",
"156 290 LINE",
"312 290 LINE",
"312 446 LINE",
"382 446 LINE",
"382 -109 LINE",
"55 -109 LINE",
"55 -324 LINE",
"478 -324 LINE",
"478 532 LINE",
"60 532 LINE",
"60 446 LINE"
);
},
{
closed = 1;
nodes = (
"105 -238 LINE",
"105 -195 LINE",
"382 -195 LINE",
"382 -238 LINE"
);
}
);
width = 704;
}
);
leftMetricsKey = ga_marc;
rightMetricsKey = o_marc;
script = marc;
category = Letter;
},
{
glyphname = ga_wa.sub_u_marc;
lastChange = "2017-12-13 22:26:47 +0000";
layers = (
{
layerId = "76B3AF2C-89AC-4CB1-B1C9-F754B2D43151";
paths = (
{
closed = 1;
nodes = (
"60 592 LINE",
"226 592 LINE",
"226 522 LINE",
"60 522 LINE",
"60 280 LINE",
"108 280 LINE",
"38 148 LINE",
"50 102 LINE",
"74 121 OFFCURVE",
"113 138 OFFCURVE",
"162 138 CURVE SMOOTH",
"209 138 OFFCURVE",
"254 122 OFFCURVE",
"292 84 CURVE",
"338 92 LINE",
"297 171 OFFCURVE",
"217 217 OFFCURVE",
"155 217 CURVE SMOOTH",
"149 217 OFFCURVE",
"141 217 OFFCURVE",
"133 215 CURVE",
"167 280 LINE",
"293 280 LINE",
"311 366 LINE",
"156 366 LINE",
"156 436 LINE",
"312 436 LINE",
"312 592 LINE",
"382 592 LINE",
"382 37 LINE",
"55 37 LINE",
"55 -178 LINE",
"382 -178 LINE",
"382 -248 LINE",
"55 -248 LINE",
"55 -334 LINE",
"478 -334 LINE",
"478 678 LINE",
"60 678 LINE"
);
},
{
closed = 1;
nodes = (
"382 -49 LINE",
"382 -92 LINE",
"105 -92 LINE",
"105 -49 LINE"
);
}
);
width = 538;
}
);
leftMetricsKey = ga_marc;
rightMetricsKey = ga_marc;
script = marc;
category = Letter;
},
{
glyphname = ga_ya.sub;
lastChange = "2017-12-13 22:26:47 +0000";
layers = (
{
layerId = "76B3AF2C-89AC-4CB1-B1C9-F754B2D43151";
paths = (
{
closed = 1;
nodes = (
"548 152 LINE",
"478 152 LINE",
"478 678 LINE",
"60 678 LINE",
"60 592 LINE",
"226 592 LINE",
"226 522 LINE",
"60 522 LINE",
"60 280 LINE",
"108 280 LINE",
"38 148 LINE",
"50 102 LINE",
"74 121 OFFCURVE",
"113 138 OFFCURVE",
"162 138 CURVE SMOOTH",
"209 138 OFFCURVE",
"254 122 OFFCURVE",
"292 84 CURVE",
"338 92 LINE",
"297 171 OFFCURVE",
"217 217 OFFCURVE",
"155 217 CURVE SMOOTH",
"149 217 OFFCURVE",
"141 217 OFFCURVE",
"133 215 CURVE",
"167 280 LINE",
"293 280 LINE",
"311 366 LINE",
"156 366 LINE",
"156 436 LINE",
"312 436 LINE",
"312 592 LINE",
"382 592 LINE",
"382 78 LINE",
"644 78 LINE",
"644 678 LINE",
"548 678 LINE"
);
}
);
width = 704;
}
);
leftMetricsKey = ga_marc;
rightMetricsKey = ya_marc.sub;
script = marc;
category = Letter;
},
{
glyphname = ga_ya.sub_e_marc;
lastChange = "2017-12-13 22:26:47 +0000";
layers = (
{
layerId = "76B3AF2C-89AC-4CB1-B1C9-F754B2D43151";
paths = (
{
closed = 1;
nodes = (
"548 6 LINE",
"478 6 LINE",
"478 678 LINE",
"60 678 LINE",
"60 592 LINE",
"382 592 LINE",
"382 532 LINE",
"60 532 LINE",
"60 446 LINE",
"226 446 LINE",
"226 376 LINE",
"60 376 LINE",
"60 134 LINE",
"108 134 LINE",
"38 2 LINE",
"50 -44 LINE",
"74 -25 OFFCURVE",
"113 -8 OFFCURVE",
"162 -8 CURVE SMOOTH",
"209 -8 OFFCURVE",
"254 -24 OFFCURVE",
"292 -62 CURVE",
"338 -54 LINE",
"297 25 OFFCURVE",
"217 71 OFFCURVE",
"155 71 CURVE SMOOTH",
"149 71 OFFCURVE",
"141 71 OFFCURVE",
"133 69 CURVE",
"167 134 LINE",
"293 134 LINE",
"311 220 LINE",
"156 220 LINE",
"156 290 LINE",
"312 290 LINE",
"312 446 LINE",
"382 446 LINE",
"382 -68 LINE",
"644 -68 LINE",
"644 678 LINE",
"548 678 LINE"
);
}
);
width = 704;
}
);
leftMetricsKey = ga_marc;
rightMetricsKey = ya_marc.sub;
script = marc;
category = Letter;
},
{
glyphname = ga_ya.sub_i_marc;
lastChange = "2017-12-13 22:26:47 +0000";
layers = (
{
layerId = "76B3AF2C-89AC-4CB1-B1C9-F754B2D43151";
paths = (
{
closed = 1;
nodes = (
"714 152 LINE",
"644 152 LINE",
"644 678 LINE",
"423 678 LINE",
"385 759 OFFCURVE",
"305 869 OFFCURVE",
"191 869 CURVE SMOOTH",
"108 869 OFFCURVE",
"60 808 OFFCURVE",
"60 714 CURVE SMOOTH",
"60 138 LINE",
"156 79 LINE",
"156 717 LINE SMOOTH",
"156 768 OFFCURVE",
"169 797 OFFCURVE",
"219 797 CURVE SMOOTH",
"294 797 OFFCURVE",
"357 731 OFFCURVE",
"390 678 CURVE",
"226 678 LINE",
"226 592 LINE",
"392 592 LINE",
"392 522 LINE",
"226 522 LINE",
"226 280 LINE",
"274 280 LINE",
"204 148 LINE",
"216 102 LINE",
"240 121 OFFCURVE",
"279 138 OFFCURVE",
"328 138 CURVE SMOOTH",
"375 138 OFFCURVE",
"420 122 OFFCURVE",
"458 84 CURVE",
"504 92 LINE",
"463 171 OFFCURVE",
"383 217 OFFCURVE",
"321 217 CURVE SMOOTH",
"315 217 OFFCURVE",
"307 217 OFFCURVE",
"299 215 CURVE",
"333 280 LINE",
"459 280 LINE",
"477 366 LINE",
"322 366 LINE",
"322 436 LINE",
"478 436 LINE",
"478 592 LINE",
"548 592 LINE",
"548 78 LINE",
"810 78 LINE",
"810 678 LINE",
"714 678 LINE"
);
}
);
width = 870;
}
);
leftMetricsKey = i_marc;
rightMetricsKey = ga_marc;
script = marc;
category = Letter;
},
{
glyphname = ga_ya.sub_o_marc;
lastChange = "2017-12-13 22:26:47 +0000";
layers = (
{
layerId = "76B3AF2C-89AC-4CB1-B1C9-F754B2D43151";
paths = (
{
closed = 1;
nodes = (
"61 592 LINE",
"714 592 LINE",
"714 -73 LINE",
"810 -132 LINE",
"810 678 LINE",
"61 678 LINE"
);
},
{
closed = 1;
nodes = (
"478 6 LINE",
"478 532 LINE",
"60 532 LINE",
"60 446 LINE",
"226 446 LINE",
"226 376 LINE",
"60 376 LINE",
"60 134 LINE",
"108 134 LINE",
"38 2 LINE",
"50 -44 LINE",
"74 -25 OFFCURVE",
"113 -8 OFFCURVE",
"162 -8 CURVE SMOOTH",
"209 -8 OFFCURVE",
"254 -24 OFFCURVE",
"292 -62 CURVE",
"338 -54 LINE",
"297 25 OFFCURVE",
"217 71 OFFCURVE",
"155 71 CURVE SMOOTH",
"149 71 OFFCURVE",
"141 71 OFFCURVE",
"133 69 CURVE",
"167 134 LINE",
"293 134 LINE",
"311 220 LINE",
"156 220 LINE",
"156 290 LINE",
"312 290 LINE",
"312 446 LINE",
"382 446 LINE",
"382 -68 LINE",
"644 -68 LINE",
"644 532 LINE",
"548 532 LINE",
"548 6 LINE"
);
}
);
width = 870;
}
);
leftMetricsKey = ga_marc;
rightMetricsKey = o_marc;
script = marc;
category = Letter;
},
{
glyphname = ga_ya.sub_u_marc;
lastChange = "2017-12-13 22:26:47 +0000";
layers = (
{
layerId = "76B3AF2C-89AC-4CB1-B1C9-F754B2D43151";
paths = (
{
closed = 1;
nodes = (
"548 152 LINE",
"478 152 LINE",
"478 678 LINE",
"60 678 LINE",
"60 592 LINE",
"226 592 LINE",
"226 522 LINE",
"60 522 LINE",
"60 280 LINE",
"108 280 LINE",
"38 148 LINE",
"50 102 LINE",
"74 121 OFFCURVE",
"113 138 OFFCURVE",
"162 138 CURVE SMOOTH",
"209 138 OFFCURVE",
"254 122 OFFCURVE",
"292 84 CURVE",
"338 92 LINE",
"297 171 OFFCURVE",
"217 217 OFFCURVE",
"155 217 CURVE SMOOTH",
"149 217 OFFCURVE",
"141 217 OFFCURVE",
"133 215 CURVE",
"167 280 LINE",
"293 280 LINE",
"311 366 LINE",
"156 366 LINE",
"156 436 LINE",
"312 436 LINE",
"312 592 LINE",
"382 592 LINE",
"382 78 LINE",
"548 78 LINE",
"548 8 LINE",
"61 8 LINE",
"61 -78 LINE",
"644 -78 LINE",
"644 678 LINE",
"548 678 LINE"
);
}
);
width = 704;
}
);
rightMetricsKey = ya_marc.sub;
script = marc;
category = Letter;
},
{
glyphname = ha_aa_marc.sub;
lastChange = "2017-12-13 22:26:47 +0000";
layers = (
{
layerId = "76B3AF2C-89AC-4CB1-B1C9-F754B2D43151";
paths = (
{
closed = 1;
nodes = (
"497 678 LINE",
"60 678 LINE",
"60 436 LINE",
"245 436 LINE",
"245 366 LINE",
"60 366 LINE",
"60 280 LINE",
"331 280 LINE",
"331 436 LINE",
"401 436 LINE",
"401 280 LINE",
"497 280 LINE",
"497 522 LINE",
"156 522 LINE",
"156 592 LINE",
"497 592 LINE"
);
},
{
closed = 1;
nodes = (
"401 134 LINE",
"401 74 LINE",
"60 74 LINE",
"60 -12 LINE",
"230 -12 LINE",
"230 -113 LINE",
"183 -91 OFFCURVE",
"117 -80 OFFCURVE",
"60 -83 CURVE",
"60 -278 LINE",
"156 -337 LINE",
"156 -167 LINE",
"180 -165 OFFCURVE",
"206 -170 OFFCURVE",
"230 -182 CURVE",
"230 -320 LINE",
"326 -379 LINE",
"326 -12 LINE",
"401 -12 LINE",
"401 -350 LINE",
"497 -409 LINE",
"497 220 LINE",
"60 220 LINE",
"60 134 LINE"
);
}
);
width = 557;
}
);
leftMetricsKey = ha_marc;
rightMetricsKey = ha_marc;
script = marc;
category = Letter;
},
{
glyphname = ha_aa_u_marc;
lastChange = "2017-12-13 22:26:47 +0000";
layers = (
{
layerId = "76B3AF2C-89AC-4CB1-B1C9-F754B2D43151";
paths = (
{
closed = 1;
nodes = (
"497 678 LINE",
"60 678 LINE",
"60 436 LINE",
"245 436 LINE",
"245 366 LINE",
"60 366 LINE",
"60 280 LINE",
"331 280 LINE",
"331 436 LINE",
"401 436 LINE",
"401 280 LINE",
"497 280 LINE",
"497 522 LINE",
"156 522 LINE",
"156 592 LINE",
"497 592 LINE"
);
},
{
closed = 1;
nodes = (
"60 134 LINE",
"401 134 LINE",
"401 74 LINE",
"60 74 LINE",
"60 -12 LINE",
"230 -12 LINE",
"230 -113 LINE",
"183 -91 OFFCURVE",
"117 -80 OFFCURVE",
"60 -83 CURVE",
"60 -278 LINE",
"156 -337 LINE",
"156 -167 LINE",
"180 -165 OFFCURVE",
"206 -170 OFFCURVE",
"230 -182 CURVE",
"230 -320 LINE",
"326 -379 LINE",
"326 -12 LINE",
"401 -12 LINE",
"401 -448 LINE",
"61 -448 LINE",
"61 -534 LINE",
"497 -534 LINE",
"497 220 LINE",
"60 220 LINE"
);
}
);
width = 557;
}
);
leftMetricsKey = ha_marc;
rightMetricsKey = ha_marc;
script = marc;
category = Letter;
},
{
glyphname = ha_e_marc;
lastChange = "2017-12-13 22:26:47 +0000";
layers = (
{
layerId = "76B3AF2C-89AC-4CB1-B1C9-F754B2D43151";
paths = (
{
closed = 1;
nodes = (
"60 592 LINE",
"385 592 LINE",
"385 532 LINE",
"60 532 LINE",
"60 290 LINE",
"229 290 LINE",
"229 220 LINE",
"60 220 LINE",
"60 134 LINE",
"315 134 LINE",
"315 290 LINE",
"385 290 LINE",
"385 54 LINE",
"481 -5 LINE",
"481 376 LINE",
"156 376 LINE",
"156 446 LINE",
"481 446 LINE",
"481 678 LINE",
"60 678 LINE"
);
}
);
width = 541;
}
);
leftMetricsKey = ha_marc;
rightMetricsKey = ha_marc;
script = marc;
category = Letter;
},
{
glyphname = ha_i_marc;
lastChange = "2017-12-13 22:26:47 +0000";
layers = (
{
layerId = "76B3AF2C-89AC-4CB1-B1C9-F754B2D43151";
paths = (
{
closed = 1;
nodes = (
"647 678 LINE",
"375 678 LINE",
"342 759 OFFCURVE",
"276 869 OFFCURVE",
"181 869 CURVE SMOOTH",
"108 869 OFFCURVE",
"60 808 OFFCURVE",
"60 714 CURVE SMOOTH",
"60 138 LINE",
"156 79 LINE",
"156 717 LINE SMOOTH",
"156 768 OFFCURVE",
"169 797 OFFCURVE",
"207 797 CURVE SMOOTH",
"266 797 OFFCURVE",
"314 731 OFFCURVE",
"342 678 CURVE",
"226 678 LINE",
"226 436 LINE",
"395 436 LINE",
"395 366 LINE",
"226 366 LINE",
"226 280 LINE",
"481 280 LINE",
"481 436 LINE",
"551 436 LINE",
"551 200 LINE",
"647 141 LINE",
"647 522 LINE",
"322 522 LINE",
"322 592 LINE",
"647 592 LINE"
);
}
);
width = 707;
}
);
leftMetricsKey = i_marc;
rightMetricsKey = ha_marc;
script = marc;
category = Letter;
},
{
glyphname = ha_o_marc;
lastChange = "2017-12-13 22:26:47 +0000";
layers = (
{
layerId = "76B3AF2C-89AC-4CB1-B1C9-F754B2D43151";
paths = (
{
closed = 1;
nodes = (
"60 592 LINE",
"553 592 LINE",
"553 -41 LINE",
"649 -100 LINE",
"649 678 LINE",
"60 678 LINE"
);
},
{
closed = 1;
nodes = (
"231 290 LINE",
"231 220 LINE",
"62 220 LINE",
"62 134 LINE",
"317 134 LINE",
"317 290 LINE",
"387 290 LINE",
"387 54 LINE",
"483 -5 LINE",
"483 376 LINE",
"158 376 LINE",
"158 446 LINE",
"483 446 LINE",
"483 532 LINE",
"62 532 LINE",
"62 290 LINE"
);
}
);
width = 709;
}
);
leftMetricsKey = ha_marc;
rightMetricsKey = o_marc;
script = marc;
category = Letter;
},
{
glyphname = ha_ra.sub;
lastChange = "2017-12-13 22:26:47 +0000";
layers = (
{
layerId = "76B3AF2C-89AC-4CB1-B1C9-F754B2D43151";
paths = (
{
closed = 1;
nodes = (
"481 678 LINE",
"60 678 LINE",
"60 436 LINE",
"229 436 LINE",
"229 366 LINE",
"60 366 LINE",
"60 280 LINE",
"315 280 LINE",
"315 436 LINE",
"385 436 LINE",
"385 130 LINE",
"289 180 LINE",
"60 180 LINE",
"60 94 LINE",
"481 94 LINE",
"481 522 LINE",
"156 522 LINE",
"156 592 LINE",
"481 592 LINE"
);
}
);
width = 541;
}
);
leftMetricsKey = ha_marc;
rightMetricsKey = ha_marc;
script = marc;
category = Letter;
},
{
glyphname = ha_ra.sub_aa_i_marc;
lastChange = "2017-12-13 22:26:47 +0000";
layers = (
{
layerId = "76B3AF2C-89AC-4CB1-B1C9-F754B2D43151";
paths = (
{
closed = 1;
nodes = (
"663 678 LINE",
"375 678 LINE",
"342 759 OFFCURVE",
"276 869 OFFCURVE",
"181 869 CURVE SMOOTH",
"108 869 OFFCURVE",
"60 808 OFFCURVE",
"60 714 CURVE SMOOTH",
"60 -456 LINE",
"156 -515 LINE",
"156 717 LINE SMOOTH",
"156 768 OFFCURVE",
"169 797 OFFCURVE",
"207 797 CURVE SMOOTH",
"266 797 OFFCURVE",
"314 731 OFFCURVE",
"342 678 CURVE",
"226 678 LINE",
"226 436 LINE",
"411 436 LINE",
"411 366 LINE",
"226 366 LINE",
"226 280 LINE",
"497 280 LINE",
"497 436 LINE",
"567 436 LINE",
"567 280 LINE",
"663 280 LINE",
"663 522 LINE",
"322 522 LINE",
"322 592 LINE",
"663 592 LINE"
);
},
{
closed = 1;
nodes = (
"226 134 LINE",
"567 134 LINE",
"567 74 LINE",
"226 74 LINE",
"226 -12 LINE",
"396 -12 LINE",
"396 -113 LINE",
"349 -91 OFFCURVE",
"283 -80 OFFCURVE",
"226 -83 CURVE",
"226 -278 LINE",
"322 -337 LINE",
"322 -167 LINE",
"346 -165 OFFCURVE",
"372 -170 OFFCURVE",
"396 -182 CURVE",
"396 -320 LINE",
"492 -379 LINE",
"492 -12 LINE",
"567 -12 LINE",
"567 -471 LINE",
"471 -421 LINE",
"226 -421 LINE",
"226 -507 LINE",
"663 -507 LINE",
"663 220 LINE",
"226 220 LINE"
);
}
);
width = 723;
}
);
leftMetricsKey = i_marc;
rightMetricsKey = ha_marc;
script = marc;
category = Letter;
},
{
glyphname = ha_ra.sub_e_marc;
lastChange = "2017-12-13 22:26:47 +0000";
layers = (
{
layerId = "76B3AF2C-89AC-4CB1-B1C9-F754B2D43151";
paths = (
{
closed = 1;
nodes = (
"60 592 LINE",
"385 592 LINE",
"385 532 LINE",
"60 532 LINE",
"60 290 LINE",
"229 290 LINE",
"229 220 LINE",
"60 220 LINE",
"60 134 LINE",
"315 134 LINE",
"315 290 LINE",
"385 290 LINE",
"385 -16 LINE",
"289 34 LINE",
"61 34 LINE",
"61 -52 LINE",
"481 -52 LINE",
"481 376 LINE",
"156 376 LINE",
"156 446 LINE",
"481 446 LINE",
"481 678 LINE",
"60 678 LINE"
);
}
);
width = 541;
}
);
leftMetricsKey = ha_marc;
rightMetricsKey = ha_marc;
script = marc;
category = Letter;
},
{
glyphname = ha_ra.sub_i_marc;
lastChange = "2017-12-13 22:26:47 +0000";
layers = (
{
layerId = "76B3AF2C-89AC-4CB1-B1C9-F754B2D43151";
paths = (
{
closed = 1;
nodes = (
"647 678 LINE",
"375 678 LINE",
"342 759 OFFCURVE",
"276 869 OFFCURVE",
"181 869 CURVE SMOOTH",
"108 869 OFFCURVE",
"60 808 OFFCURVE",
"60 714 CURVE SMOOTH",
"60 138 LINE",
"156 79 LINE",
"156 717 LINE SMOOTH",
"156 768 OFFCURVE",
"169 797 OFFCURVE",
"207 797 CURVE SMOOTH",
"266 797 OFFCURVE",
"314 731 OFFCURVE",
"342 678 CURVE",
"226 678 LINE",
"226 436 LINE",
"395 436 LINE",
"395 366 LINE",
"226 366 LINE",
"226 280 LINE",
"481 280 LINE",
"481 436 LINE",
"551 436 LINE",
"551 130 LINE",
"455 180 LINE",
"227 180 LINE",
"227 94 LINE",
"647 94 LINE",
"647 522 LINE",
"322 522 LINE",
"322 592 LINE",
"647 592 LINE"
);
}
);
width = 707;
}
);
leftMetricsKey = i_marc;
rightMetricsKey = ha_marc;
script = marc;
category = Letter;
},
{
glyphname = ha_ra.sub_o_marc;
lastChange = "2017-12-13 22:26:47 +0000";
layers = (
{
layerId = "76B3AF2C-89AC-4CB1-B1C9-F754B2D43151";
paths = (
{
closed = 1;
nodes = (
"61 592 LINE",
"551 592 LINE",
"551 -51 LINE",
"647 -110 LINE",
"647 678 LINE",
"61 678 LINE"
);
},
{
closed = 1;
nodes = (
"229 290 LINE",
"229 220 LINE",
"60 220 LINE",
"60 134 LINE",
"315 134 LINE",
"315 290 LINE",
"385 290 LINE",
"385 -16 LINE",
"289 34 LINE",
"61 34 LINE",
"61 -52 LINE",
"481 -52 LINE",
"481 376 LINE",
"156 376 LINE",
"156 446 LINE",
"481 446 LINE",
"481 532 LINE",
"60 532 LINE",
"60 290 LINE"
);
}
);
width = 707;
}
);
leftMetricsKey = ha_marc;
rightMetricsKey = o_marc;
script = marc;
category = Letter;
},
{
glyphname = ha_ra.sub_u_marc;
lastChange = "2017-12-13 22:26:47 +0000";
layers = (
{
layerId = "76B3AF2C-89AC-4CB1-B1C9-F754B2D43151";
paths = (
{
closed = 1;
nodes = (
"481 678 LINE",
"60 678 LINE",
"60 436 LINE",
"229 436 LINE",
"229 366 LINE",
"60 366 LINE",
"60 280 LINE",
"315 280 LINE",
"315 436 LINE",
"385 436 LINE",
"385 130 LINE",
"289 180 LINE",
"60 180 LINE",
"60 94 LINE",
"385 94 LINE",
"385 24 LINE",
"60 24 LINE",
"60 -62 LINE",
"481 -62 LINE",
"481 522 LINE",
"156 522 LINE",
"156 592 LINE",
"481 592 LINE"
);
}
);
width = 541;
}
);
leftMetricsKey = ha_marc;
rightMetricsKey = ha_marc;
script = marc;
category = Letter;
},
{
glyphname = ha_u_marc;
lastChange = "2017-12-13 22:26:47 +0000";
layers = (
{
layerId = "76B3AF2C-89AC-4CB1-B1C9-F754B2D43151";
paths = (
{
closed = 1;
nodes = (
"481 678 LINE",
"60 678 LINE",
"60 436 LINE",
"229 436 LINE",
"229 366 LINE",
"60 366 LINE",
"60 280 LINE",
"315 280 LINE",
"315 436 LINE",
"385 436 LINE",
"385 165 LINE",
"60 165 LINE",
"60 79 LINE",
"481 79 LINE",
"481 522 LINE",
"156 522 LINE",
"156 592 LINE",
"481 592 LINE"
);
}
);
width = 541;
}
);
leftMetricsKey = ha_marc;
rightMetricsKey = ha_marc;
script = marc;
category = Letter;
},
{
glyphname = ha_wa.sub;
lastChange = "2017-12-13 22:26:47 +0000";
layers = (
{
layerId = "76B3AF2C-89AC-4CB1-B1C9-F754B2D43151";
paths = (
{
closed = 1;
nodes = (
"481 678 LINE",
"60 678 LINE",
"60 436 LINE",
"229 436 LINE",
"229 366 LINE",
"60 366 LINE",
"60 280 LINE",
"315 280 LINE",
"315 436 LINE",
"385 436 LINE",
"385 210 LINE",
"60 210 LINE",
"60 -5 LINE",
"481 -5 LINE",
"481 522 LINE",
"156 522 LINE",
"156 592 LINE",
"481 592 LINE"
);
},
{
closed = 1;
nodes = (
"110 81 LINE",
"110 124 LINE",
"385 124 LINE",
"385 81 LINE"
);
}
);
width = 541;
}
);
leftMetricsKey = ha_marc;
rightMetricsKey = ha_marc;
script = marc;
category = Letter;
},
{
glyphname = ha_wa.sub_e_marc;
lastChange = "2017-12-13 22:26:47 +0000";
layers = (
{
layerId = "76B3AF2C-89AC-4CB1-B1C9-F754B2D43151";
paths = (
{
closed = 1;
nodes = (
"60 592 LINE",
"385 592 LINE",
"385 532 LINE",
"60 532 LINE",
"60 290 LINE",
"229 290 LINE",
"229 220 LINE",
"60 220 LINE",
"60 134 LINE",
"315 134 LINE",
"315 290 LINE",
"385 290 LINE",
"385 74 LINE",
"60 74 LINE",
"60 -141 LINE",
"481 -141 LINE",
"481 376 LINE",
"156 376 LINE",
"156 446 LINE",
"481 446 LINE",
"481 678 LINE",
"60 678 LINE"
);
},
{
closed = 1;
nodes = (
"110 -55 LINE",
"110 -12 LINE",
"385 -12 LINE",
"385 -55 LINE"
);
}
);
width = 541;
}
);
leftMetricsKey = ha_marc;
rightMetricsKey = ha_marc;
script = marc;
category = Letter;
},
{
glyphname = ha_wa.sub_i_marc;
lastChange = "2017-12-13 22:26:47 +0000";
layers = (
{
layerId = "76B3AF2C-89AC-4CB1-B1C9-F754B2D43151";
paths = (
{
closed = 1;
nodes = (
"647 678 LINE",
"375 678 LINE",
"342 759 OFFCURVE",
"276 869 OFFCURVE",
"181 869 CURVE SMOOTH",
"108 869 OFFCURVE",
"60 808 OFFCURVE",
"60 714 CURVE SMOOTH",
"60 138 LINE",
"156 79 LINE",
"156 717 LINE SMOOTH",
"156 768 OFFCURVE",
"169 797 OFFCURVE",
"207 797 CURVE SMOOTH",
"266 797 OFFCURVE",
"314 731 OFFCURVE",
"342 678 CURVE",
"226 678 LINE",
"226 436 LINE",
"395 436 LINE",
"395 366 LINE",
"226 366 LINE",
"226 280 LINE",
"481 280 LINE",
"481 436 LINE",
"551 436 LINE",
"551 210 LINE",
"226 210 LINE",
"226 -5 LINE",
"647 -5 LINE",
"647 522 LINE",
"322 522 LINE",
"322 592 LINE",
"647 592 LINE"
);
},
{
closed = 1;
nodes = (
"276 81 LINE",
"276 124 LINE",
"551 124 LINE",
"551 81 LINE"
);
}
);
width = 707;
}
);
leftMetricsKey = i_marc;
rightMetricsKey = ha_marc;
script = marc;
category = Letter;
},
{
glyphname = ha_wa.sub_o_marc;
lastChange = "2017-12-13 22:26:47 +0000";
layers = (
{
layerId = "76B3AF2C-89AC-4CB1-B1C9-F754B2D43151";
paths = (
{
closed = 1;
nodes = (
"60 592 LINE",
"551 592 LINE",
"551 -173 LINE",
"647 -232 LINE",
"647 678 LINE",
"60 678 LINE"
);
},
{
closed = 1;
nodes = (
"229 290 LINE",
"229 220 LINE",
"60 220 LINE",
"60 134 LINE",
"315 134 LINE",
"315 290 LINE",
"385 290 LINE",
"385 64 LINE",
"60 64 LINE",
"60 -151 LINE",
"481 -151 LINE",
"481 376 LINE",
"156 376 LINE",
"156 446 LINE",
"481 446 LINE",
"481 532 LINE",
"60 532 LINE",
"60 290 LINE"
);
},
{
closed = 1;
nodes = (
"110 -65 LINE",
"110 -22 LINE",
"385 -22 LINE",
"385 -65 LINE"
);
}
);
width = 707;
}
);
leftMetricsKey = ha_marc;
rightMetricsKey = o_marc;
script = marc;
category = Letter;
},
{
glyphname = ha_wa.sub_u_marc;
lastChange = "2017-12-13 22:26:47 +0000";
layers = (
{
layerId = "76B3AF2C-89AC-4CB1-B1C9-F754B2D43151";
paths = (
{
closed = 1;
nodes = (
"481 678 LINE",
"60 678 LINE",
"60 436 LINE",
"229 436 LINE",
"229 366 LINE",
"60 366 LINE",
"60 280 LINE",
"315 280 LINE",
"315 436 LINE",
"385 436 LINE",
"385 210 LINE",
"60 210 LINE",
"60 -5 LINE",
"385 -5 LINE",
"385 -75 LINE",
"60 -75 LINE",
"60 -161 LINE",
"481 -161 LINE",
"481 522 LINE",
"156 522 LINE",
"156 592 LINE",
"481 592 LINE"
);
},
{
closed = 1;
nodes = (
"385 124 LINE",
"385 81 LINE",
"110 81 LINE",
"110 124 LINE"
);
}
);
width = 541;
}
);
leftMetricsKey = ha_marc;
rightMetricsKey = ha_marc;
script = marc;
category = Letter;
},
{
glyphname = ja_aa_marc.sub;
lastChange = "2017-12-13 22:26:47 +0000";
layers = (
{
layerId = "76B3AF2C-89AC-4CB1-B1C9-F754B2D43151";
paths = (
{
closed = 1;
nodes = (
"382 436 LINE",
"382 366 LINE",
"70 366 LINE",
"70 78 LINE",
"166 78 LINE",
"166 280 LINE",
"278 280 LINE",
"209 150 LINE",
"221 104 LINE",
"245 123 OFFCURVE",
"284 140 OFFCURVE",
"333 140 CURVE SMOOTH",
"380 140 OFFCURVE",
"425 124 OFFCURVE",
"463 86 CURVE",
"509 94 LINE",
"468 173 OFFCURVE",
"388 219 OFFCURVE",
"326 219 CURVE SMOOTH",
"320 219 OFFCURVE",
"312 219 OFFCURVE",
"304 217 CURVE",
"337 280 LINE",
"478 280 LINE",
"478 522 LINE",
"205 522 LINE",
"205 592 LINE",
"478 592 LINE",
"478 678 LINE",
"60 678 LINE",
"60 592 LINE",
"109 592 LINE",
"109 436 LINE"
);
},
{
closed = 1;
nodes = (
"69 -68 LINE",
"419 -68 LINE",
"419 -128 LINE",
"69 -128 LINE",
"69 -214 LINE",
"244 -214 LINE",
"244 -315 LINE",
"197 -293 OFFCURVE",
"126 -282 OFFCURVE",
"69 -285 CURVE",
"69 -480 LINE",
"165 -539 LINE",
"165 -369 LINE",
"189 -367 OFFCURVE",
"220 -372 OFFCURVE",
"244 -384 CURVE",
"244 -522 LINE",
"340 -581 LINE",
"340 -214 LINE",
"419 -214 LINE",
"419 -552 LINE",
"515 -611 LINE",
"515 18 LINE",
"69 18 LINE"
);
}
);
width = 575;
}
);
leftMetricsKey = ja_marc;
rightMetricsKey = aa_marc;
script = marc;
category = Letter;
},
{
glyphname = ja_e_marc;
lastChange = "2017-12-13 22:26:47 +0000";
layers = (
{
layerId = "76B3AF2C-89AC-4CB1-B1C9-F754B2D43151";
paths = (
{
closed = 1;
nodes = (
"320 73 OFFCURVE",
"312 73 OFFCURVE",
"304 71 CURVE",
"337 134 LINE",
"451 134 LINE",
"451 376 LINE",
"205 376 LINE",
"205 446 LINE",
"451 446 LINE",
"451 678 LINE",
"60 678 LINE",
"60 592 LINE",
"355 592 LINE",
"355 532 LINE",
"60 532 LINE",
"60 446 LINE",
"109 446 LINE",
"109 290 LINE",
"355 290 LINE",
"355 220 LINE",
"70 220 LINE",
"70 -68 LINE",
"166 -68 LINE",
"166 134 LINE",
"278 134 LINE",
"209 4 LINE",
"221 -42 LINE",
"245 -23 OFFCURVE",
"284 -6 OFFCURVE",
"333 -6 CURVE SMOOTH",
"380 -6 OFFCURVE",
"425 -22 OFFCURVE",
"463 -60 CURVE",
"509 -52 LINE",
"468 27 OFFCURVE",
"388 73 OFFCURVE",
"326 73 CURVE SMOOTH"
);
}
);
width = 513;
}
);
leftMetricsKey = ja_marc;
rightMetricsKey = ja_marc;
script = marc;
category = Letter;
},
{
glyphname = ja_i_marc;
lastChange = "2017-12-13 22:26:47 +0000";
layers = (
{
layerId = "76B3AF2C-89AC-4CB1-B1C9-F754B2D43151";
paths = (
{
closed = 1;
nodes = (
"476 219 OFFCURVE",
"468 219 OFFCURVE",
"460 217 CURVE",
"493 280 LINE",
"607 280 LINE",
"607 522 LINE",
"361 522 LINE",
"361 592 LINE",
"607 592 LINE",
"607 678 LINE",
"375 678 LINE",
"342 759 OFFCURVE",
"276 869 OFFCURVE",
"181 869 CURVE SMOOTH",
"108 869 OFFCURVE",
"60 808 OFFCURVE",
"60 714 CURVE SMOOTH",
"60 138 LINE",
"156 79 LINE",
"156 717 LINE SMOOTH",
"156 768 OFFCURVE",
"169 797 OFFCURVE",
"207 797 CURVE SMOOTH",
"266 797 OFFCURVE",
"314 731 OFFCURVE",
"342 678 CURVE",
"216 678 LINE",
"216 592 LINE",
"265 592 LINE",
"265 436 LINE",
"511 436 LINE",
"511 366 LINE",
"226 366 LINE",
"226 78 LINE",
"322 78 LINE",
"322 280 LINE",
"434 280 LINE",
"365 150 LINE",
"377 104 LINE",
"401 123 OFFCURVE",
"440 140 OFFCURVE",
"489 140 CURVE SMOOTH",
"536 140 OFFCURVE",
"581 124 OFFCURVE",
"619 86 CURVE",
"665 94 LINE",
"624 173 OFFCURVE",
"544 219 OFFCURVE",
"482 219 CURVE SMOOTH"
);
}
);
width = 669;
}
);
leftMetricsKey = i_marc;
rightMetricsKey = ja_marc;
script = marc;
category = Letter;
},
{
glyphname = ja_o_marc;
lastChange = "2017-12-13 22:26:47 +0000";
layers = (
{
layerId = "76B3AF2C-89AC-4CB1-B1C9-F754B2D43151";
paths = (
{
closed = 1;
nodes = (
"63 592 LINE",
"521 592 LINE",
"521 -89 LINE",
"617 -148 LINE",
"617 678 LINE",
"63 678 LINE"
);
},
{
closed = 1;
nodes = (
"310 73 OFFCURVE",
"302 73 OFFCURVE",
"294 71 CURVE",
"327 134 LINE",
"451 134 LINE",
"451 376 LINE",
"205 376 LINE",
"205 446 LINE",
"451 446 LINE",
"451 532 LINE",
"60 532 LINE",
"60 446 LINE",
"109 446 LINE",
"109 290 LINE",
"355 290 LINE",
"355 220 LINE",
"70 220 LINE",
"70 -68 LINE",
"166 -68 LINE",
"166 134 LINE",
"268 134 LINE",
"199 4 LINE",
"211 -42 LINE",
"235 -23 OFFCURVE",
"274 -6 OFFCURVE",
"323 -6 CURVE SMOOTH",
"370 -6 OFFCURVE",
"415 -22 OFFCURVE",
"453 -60 CURVE",
"499 -52 LINE",
"458 27 OFFCURVE",
"378 73 OFFCURVE",
"316 73 CURVE SMOOTH"
);
}
);
width = 677;
}
);
leftMetricsKey = ja_marc;
rightMetricsKey = o_marc;
script = marc;
category = Letter;
},
{
glyphname = ja_u_marc;
lastChange = "2017-12-13 22:26:47 +0000";
layers = (
{
layerId = "76B3AF2C-89AC-4CB1-B1C9-F754B2D43151";
paths = (
{
closed = 1;
nodes = (
"221 152 LINE",
"245 171 OFFCURVE",
"284 188 OFFCURVE",
"333 188 CURVE SMOOTH",
"380 188 OFFCURVE",
"425 172 OFFCURVE",
"463 134 CURVE",
"509 142 LINE",
"468 221 OFFCURVE",
"388 267 OFFCURVE",
"326 267 CURVE SMOOTH",
"320 267 OFFCURVE",
"312 267 OFFCURVE",
"304 265 CURVE",
"322 300 LINE",
"478 300 LINE",
"478 532 LINE",
"205 532 LINE",
"205 592 LINE",
"478 592 LINE",
"478 678 LINE",
"60 678 LINE",
"60 592 LINE",
"109 592 LINE",
"109 446 LINE",
"382 446 LINE",
"382 386 LINE",
"70 386 LINE",
"70 91 LINE",
"72 91 LINE",
"103 71 OFFCURVE",
"135 53 OFFCURVE",
"166 33 CURVE",
"166 300 LINE",
"263 300 LINE",
"209 198 LINE"
);
},
{
closed = 1;
nodes = (
"209 33 LINE",
"507 33 LINE",
"507 119 LINE",
"209 119 LINE"
);
}
);
width = 513;
}
);
leftMetricsKey = ja_marc;
rightMetricsKey = ja_marc;
script = marc;
category = Letter;
},
{
glyphname = ka_aa_marc.sub;
lastChange = "2017-12-13 22:26:47 +0000";
layers = (
{
layerId = "76B3AF2C-89AC-4CB1-B1C9-F754B2D43151";
paths = (
{
closed = 1;
nodes = (
"156 417 LINE",
"180 419 OFFCURVE",
"202 414 OFFCURVE",
"226 402 CURVE",
"226 141 LINE",
"322 141 LINE",
"322 592 LINE",
"392 592 LINE",
"392 141 LINE",
"488 141 LINE",
"488 678 LINE",
"60 678 LINE",
"60 592 LINE",
"226 592 LINE",
"226 471 LINE",
"179 493 OFFCURVE",
"117 504 OFFCURVE",
"60 501 CURVE",
"60 141 LINE",
"156 141 LINE"
);
},
{
closed = 1;
nodes = (
"61 -5 LINE",
"393 -5 LINE",
"393 -65 LINE",
"61 -65 LINE",
"61 -151 LINE",
"227 -151 LINE",
"227 -252 LINE",
"180 -230 OFFCURVE",
"118 -219 OFFCURVE",
"61 -222 CURVE",
"61 -417 LINE",
"157 -476 LINE",
"157 -306 LINE",
"181 -304 OFFCURVE",
"203 -309 OFFCURVE",
"227 -321 CURVE",
"227 -459 LINE",
"323 -518 LINE",
"323 -151 LINE",
"393 -151 LINE",
"393 -489 LINE",
"489 -548 LINE",
"489 81 LINE",
"61 81 LINE"
);
}
);
width = 549;
}
);
leftMetricsKey = ka_marc;
rightMetricsKey = ka_marc;
script = marc;
category = Letter;
},
{
glyphname = ka_e_marc;
lastChange = "2017-12-13 22:26:47 +0000";
layers = (
{
layerId = "76B3AF2C-89AC-4CB1-B1C9-F754B2D43151";
paths = (
{
closed = 1;
nodes = (
"60 592 LINE",
"392 592 LINE",
"392 532 LINE",
"60 532 LINE",
"60 446 LINE",
"226 446 LINE",
"226 325 LINE",
"179 347 OFFCURVE",
"117 358 OFFCURVE",
"60 355 CURVE",
"60 54 LINE",
"156 -5 LINE",
"156 271 LINE",
"180 273 OFFCURVE",
"202 268 OFFCURVE",
"226 256 CURVE",
"226 14 LINE",
"322 -45 LINE",
"322 446 LINE",
"392 446 LINE",
"392 -34 LINE",
"488 -93 LINE",
"488 678 LINE",
"60 678 LINE"
);
}
);
width = 548;
}
);
leftMetricsKey = ka_marc;
rightMetricsKey = ka_marc;
script = marc;
category = Letter;
},
{
glyphname = ka_i_marc;
lastChange = "2017-12-13 22:26:47 +0000";
layers = (
{
layerId = "76B3AF2C-89AC-4CB1-B1C9-F754B2D43151";
paths = (
{
closed = 1;
nodes = (
"408 759 OFFCURVE",
"320 869 OFFCURVE",
"196 869 CURVE SMOOTH",
"108 869 OFFCURVE",
"60 808 OFFCURVE",
"60 714 CURVE SMOOTH",
"60 138 LINE",
"156 79 LINE",
"156 717 LINE SMOOTH",
"156 768 OFFCURVE",
"169 797 OFFCURVE",
"226 797 CURVE SMOOTH",
"309 797 OFFCURVE",
"379 731 OFFCURVE",
"414 678 CURVE",
"226 678 LINE",
"226 592 LINE",
"392 592 LINE",
"392 471 LINE",
"345 493 OFFCURVE",
"283 504 OFFCURVE",
"226 501 CURVE",
"226 200 LINE",
"322 141 LINE",
"322 417 LINE",
"346 419 OFFCURVE",
"368 414 OFFCURVE",
"392 402 CURVE",
"392 160 LINE",
"488 101 LINE",
"488 592 LINE",
"558 592 LINE",
"558 112 LINE",
"654 53 LINE",
"654 678 LINE",
"448 678 LINE"
);
}
);
width = 714;
}
);
leftMetricsKey = i_marc;
rightMetricsKey = ka_marc;
script = marc;
category = Letter;
},
{
glyphname = ka_la.sub;
lastChange = "2017-12-13 22:26:47 +0000";
layers = (
{
layerId = "76B3AF2C-89AC-4CB1-B1C9-F754B2D43151";
paths = (
{
closed = 1;
nodes = (
"60 592 LINE",
"248 592 LINE",
"248 471 LINE",
"201 493 OFFCURVE",
"117 504 OFFCURVE",
"60 501 CURVE",
"60 141 LINE",
"156 141 LINE",
"156 417 LINE",
"180 419 OFFCURVE",
"224 414 OFFCURVE",
"248 402 CURVE",
"248 141 LINE",
"344 141 LINE",
"344 592 LINE",
"436 592 LINE",
"436 141 LINE",
"532 141 LINE",
"532 678 LINE",
"60 678 LINE"
);
},
{
closed = 1;
nodes = (
"156 -75 LINE",
"156 81 LINE",
"60 81 LINE",
"60 -161 LINE",
"274 -161 LINE",
"274 -231 LINE",
"60 -231 LINE",
"60 -317 LINE",
"370 -317 LINE",
"370 -75 LINE",
"320 -75 LINE",
"320 -5 LINE",
"436 -5 LINE",
"436 -397 LINE",
"532 -456 LINE",
"532 81 LINE",
"224 81 LINE",
"224 -75 LINE"
);
}
);
width = 592;
}
);
leftMetricsKey = ka_marc;
rightMetricsKey = ka_marc;
script = marc;
category = Letter;
},
{
glyphname = ka_la.sub_e_marc;
lastChange = "2017-12-13 22:26:47 +0000";
layers = (
{
layerId = "76B3AF2C-89AC-4CB1-B1C9-F754B2D43151";
paths = (
{
closed = 1;
nodes = (
"60 592 LINE",
"436 592 LINE",
"436 532 LINE",
"60 532 LINE",
"60 446 LINE",
"248 446 LINE",
"248 325 LINE",
"201 347 OFFCURVE",
"117 358 OFFCURVE",
"60 355 CURVE",
"60 -5 LINE",
"156 -5 LINE",
"156 271 LINE",
"180 273 OFFCURVE",
"224 268 OFFCURVE",
"248 256 CURVE",
"248 -5 LINE",
"344 -5 LINE",
"344 446 LINE",
"436 446 LINE",
"436 -5 LINE",
"532 -5 LINE",
"532 678 LINE",
"60 678 LINE"
);
},
{
closed = 1;
nodes = (
"156 -221 LINE",
"156 -65 LINE",
"60 -65 LINE",
"60 -307 LINE",
"274 -307 LINE",
"274 -377 LINE",
"60 -377 LINE",
"60 -463 LINE",
"370 -463 LINE",
"370 -221 LINE",
"320 -221 LINE",
"320 -151 LINE",
"436 -151 LINE",
"436 -543 LINE",
"532 -602 LINE",
"532 -65 LINE",
"224 -65 LINE",
"224 -221 LINE"
);
}
);
width = 592;
}
);
leftMetricsKey = ka_marc;
rightMetricsKey = ka_marc;
script = marc;
category = Letter;
},
{
glyphname = ka_la.sub_i_marc;
lastChange = "2017-12-13 22:26:47 +0000";
layers = (
{
layerId = "76B3AF2C-89AC-4CB1-B1C9-F754B2D43151";
paths = (
{
closed = 1;
nodes = (
"424 759 OFFCURVE",
"331 869 OFFCURVE",
"200 869 CURVE SMOOTH",
"108 869 OFFCURVE",
"60 808 OFFCURVE",
"60 714 CURVE SMOOTH",
"60 -341 LINE",
"156 -400 LINE",
"156 717 LINE SMOOTH",
"156 768 OFFCURVE",
"169 797 OFFCURVE",
"230 797 CURVE SMOOTH",
"320 797 OFFCURVE",
"395 731 OFFCURVE",
"434 678 CURVE",
"226 678 LINE",
"226 592 LINE",
"414 592 LINE",
"414 471 LINE",
"367 493 OFFCURVE",
"283 504 OFFCURVE",
"226 501 CURVE",
"226 141 LINE",
"322 141 LINE",
"322 417 LINE",
"346 419 OFFCURVE",
"390 414 OFFCURVE",
"414 402 CURVE",
"414 141 LINE",
"510 141 LINE",
"510 592 LINE",
"602 592 LINE",
"602 141 LINE",
"698 141 LINE",
"698 678 LINE",
"467 678 LINE"
);
},
{
closed = 1;
nodes = (
"322 -75 LINE",
"322 81 LINE",
"226 81 LINE",
"226 -161 LINE",
"440 -161 LINE",
"440 -231 LINE",
"226 -231 LINE",
"226 -317 LINE",
"536 -317 LINE",
"536 -75 LINE",
"486 -75 LINE",
"486 -5 LINE",
"602 -5 LINE",
"602 -397 LINE",
"698 -456 LINE",
"698 81 LINE",
"390 81 LINE",
"390 -75 LINE"
);
}
);
width = 758;
}
);
leftMetricsKey = i_marc;
rightMetricsKey = ka_marc;
script = marc;
category = Letter;
},
{
glyphname = ka_la.sub_i_marc_short;
lastChange = "2017-12-13 22:26:47 +0000";
layers = (
{
layerId = "76B3AF2C-89AC-4CB1-B1C9-F754B2D43151";
paths = (
{
closed = 1;
nodes = (
"428 759 OFFCURVE",
"334 869 OFFCURVE",
"201 869 CURVE SMOOTH",
"108 869 OFFCURVE",
"60 808 OFFCURVE",
"60 714 CURVE SMOOTH",
"60 138 LINE",
"156 79 LINE",
"156 717 LINE SMOOTH",
"156 768 OFFCURVE",
"169 797 OFFCURVE",
"231 797 CURVE SMOOTH",
"323 797 OFFCURVE",
"399 731 OFFCURVE",
"438 678 CURVE",
"226 678 LINE",
"226 592 LINE",
"414 592 LINE",
"414 471 LINE",
"367 493 OFFCURVE",
"283 504 OFFCURVE",
"226 501 CURVE",
"226 141 LINE",
"322 141 LINE",
"322 417 LINE",
"346 419 OFFCURVE",
"390 414 OFFCURVE",
"414 402 CURVE",
"414 141 LINE",
"510 141 LINE",
"510 592 LINE",
"602 592 LINE",
"602 141 LINE",
"698 141 LINE",
"698 678 LINE",
"471 678 LINE"
);
},
{
closed = 1;
nodes = (
"322 -75 LINE",
"322 81 LINE",
"226 81 LINE",
"226 -161 LINE",
"440 -161 LINE",
"440 -231 LINE",
"226 -231 LINE",
"226 -317 LINE",
"536 -317 LINE",
"536 -75 LINE",
"486 -75 LINE",
"486 -5 LINE",
"602 -5 LINE",
"602 -397 LINE",
"698 -456 LINE",
"698 81 LINE",
"390 81 LINE",
"390 -75 LINE"
);
}
);
width = 758;
}
);
leftMetricsKey = i_marc;
rightMetricsKey = ka_marc;
script = marc;
category = Letter;
},
{
glyphname = ka_la.sub_o_marc;
lastChange = "2017-12-13 22:26:47 +0000";
layers = (
{
layerId = "76B3AF2C-89AC-4CB1-B1C9-F754B2D43151";
paths = (
{
closed = 1;
nodes = (
"61 592 LINE",
"602 592 LINE",
"602 -609 LINE",
"698 -668 LINE",
"698 678 LINE",
"61 678 LINE"
);
},
{
closed = 1;
nodes = (
"248 446 LINE",
"248 325 LINE",
"201 347 OFFCURVE",
"117 358 OFFCURVE",
"60 355 CURVE",
"60 -5 LINE",
"156 -5 LINE",
"156 271 LINE",
"180 273 OFFCURVE",
"224 268 OFFCURVE",
"248 256 CURVE",
"248 -5 LINE",
"344 -5 LINE",
"344 446 LINE",
"436 446 LINE",
"436 -5 LINE",
"532 -5 LINE",
"532 532 LINE",
"60 532 LINE",
"60 446 LINE"
);
},
{
closed = 1;
nodes = (
"156 -221 LINE",
"156 -65 LINE",
"60 -65 LINE",
"60 -307 LINE",
"274 -307 LINE",
"274 -377 LINE",
"60 -377 LINE",
"60 -463 LINE",
"370 -463 LINE",
"370 -221 LINE",
"320 -221 LINE",
"320 -151 LINE",
"436 -151 LINE",
"436 -543 LINE",
"532 -602 LINE",
"532 -65 LINE",
"224 -65 LINE",
"224 -221 LINE"
);
}
);
width = 758;
}
);
leftMetricsKey = ka_marc;
rightMetricsKey = o_marc;
script = marc;
category = Letter;
},
{
glyphname = ka_la.sub_u_marc;
lastChange = "2017-12-13 22:26:47 +0000";
layers = (
{
layerId = "76B3AF2C-89AC-4CB1-B1C9-F754B2D43151";
paths = (
{
closed = 1;
nodes = (
"61 592 LINE",
"249 592 LINE",
"249 471 LINE",
"202 493 OFFCURVE",
"118 504 OFFCURVE",
"61 501 CURVE",
"61 141 LINE",
"157 141 LINE",
"157 417 LINE",
"181 419 OFFCURVE",
"225 414 OFFCURVE",
"249 402 CURVE",
"249 141 LINE",
"345 141 LINE",
"345 592 LINE",
"437 592 LINE",
"437 141 LINE",
"533 141 LINE",
"533 678 LINE",
"61 678 LINE"
);
},
{
closed = 1;
nodes = (
"157 -75 LINE",
"157 81 LINE",
"61 81 LINE",
"61 -161 LINE",
"275 -161 LINE",
"275 -231 LINE",
"61 -231 LINE",
"61 -317 LINE",
"371 -317 LINE",
"371 -75 LINE",
"321 -75 LINE",
"321 -5 LINE",
"437 -5 LINE",
"437 -387 LINE",
"60 -387 LINE",
"60 -473 LINE",
"533 -473 LINE",
"533 81 LINE",
"225 81 LINE",
"225 -75 LINE"
);
}
);
width = 593;
}
);
leftMetricsKey = ka_marc;
rightMetricsKey = ka_marc;
script = marc;
category = Letter;
},
{
glyphname = ka_o_marc;
lastChange = "2017-12-13 22:26:47 +0000";
layers = (
{
layerId = "76B3AF2C-89AC-4CB1-B1C9-F754B2D43151";
paths = (
{
closed = 1;
nodes = (
"60 592 LINE",
"558 592 LINE",
"558 -73 LINE",
"654 -132 LINE",
"654 678 LINE",
"60 678 LINE"
);
},
{
closed = 1;
nodes = (
"226 446 LINE",
"226 325 LINE",
"179 347 OFFCURVE",
"117 358 OFFCURVE",
"60 355 CURVE",
"60 54 LINE",
"156 -5 LINE",
"156 271 LINE",
"180 273 OFFCURVE",
"202 268 OFFCURVE",
"226 256 CURVE",
"226 14 LINE",
"322 -45 LINE",
"322 446 LINE",
"392 446 LINE",
"392 -9 LINE",
"488 -68 LINE",
"488 532 LINE",
"60 532 LINE",
"60 446 LINE"
);
}
);
width = 714;
}
);
leftMetricsKey = ka_marc;
rightMetricsKey = o_marc;
script = marc;
category = Letter;
},
{
glyphname = ka_ra.sub;
lastChange = "2017-12-13 22:26:47 +0000";
layers = (
{
layerId = "76B3AF2C-89AC-4CB1-B1C9-F754B2D43151";
paths = (
{
closed = 1;
nodes = (
"60 592 LINE",
"226 592 LINE",
"226 471 LINE",
"179 493 OFFCURVE",
"117 504 OFFCURVE",
"60 501 CURVE",
"60 200 LINE",
"156 141 LINE",
"156 417 LINE",
"180 419 OFFCURVE",
"202 414 OFFCURVE",
"226 402 CURVE",
"226 160 LINE",
"322 101 LINE",
"322 592 LINE",
"392 592 LINE",
"392 11 LINE",
"296 61 LINE",
"60 61 LINE",
"60 -25 LINE",
"488 -25 LINE",
"488 678 LINE",
"60 678 LINE"
);
}
);
width = 548;
}
);
leftMetricsKey = ka_marc;
rightMetricsKey = ka_marc;
script = marc;
category = Letter;
},
{
glyphname = ka_ra.sub_e_marc;
lastChange = "2017-12-13 22:26:47 +0000";
layers = (
{
layerId = "76B3AF2C-89AC-4CB1-B1C9-F754B2D43151";
paths = (
{
closed = 1;
nodes = (
"60 592 LINE",
"392 592 LINE",
"392 532 LINE",
"60 532 LINE",
"60 446 LINE",
"226 446 LINE",
"226 325 LINE",
"179 347 OFFCURVE",
"117 358 OFFCURVE",
"60 355 CURVE",
"60 54 LINE",
"156 -5 LINE",
"156 271 LINE",
"180 273 OFFCURVE",
"202 268 OFFCURVE",
"226 256 CURVE",
"226 14 LINE",
"322 -45 LINE",
"322 446 LINE",
"392 446 LINE",
"392 -135 LINE",
"296 -85 LINE",
"60 -85 LINE",
"60 -171 LINE",
"488 -171 LINE",
"488 678 LINE",
"60 678 LINE"
);
}
);
width = 548;
}
);
leftMetricsKey = ka_marc;
rightMetricsKey = ka_marc;
script = marc;
category = Letter;
},
{
glyphname = ka_ra.sub_i_marc;
lastChange = "2017-12-13 22:26:47 +0000";
layers = (
{
layerId = "76B3AF2C-89AC-4CB1-B1C9-F754B2D43151";
paths = (
{
closed = 1;
nodes = (
"409 759 OFFCURVE",
"321 869 OFFCURVE",
"196 869 CURVE SMOOTH",
"108 869 OFFCURVE",
"60 808 OFFCURVE",
"60 714 CURVE SMOOTH",
"60 138 LINE",
"156 79 LINE",
"156 717 LINE SMOOTH",
"156 768 OFFCURVE",
"169 797 OFFCURVE",
"226 797 CURVE SMOOTH",
"310 797 OFFCURVE",
"381 731 OFFCURVE",
"417 678 CURVE",
"226 678 LINE",
"226 592 LINE",
"392 592 LINE",
"392 471 LINE",
"345 493 OFFCURVE",
"283 504 OFFCURVE",
"226 501 CURVE",
"226 200 LINE",
"322 141 LINE",
"322 417 LINE",
"346 419 OFFCURVE",
"368 414 OFFCURVE",
"392 402 CURVE",
"392 160 LINE",
"488 101 LINE",
"488 592 LINE",
"558 592 LINE",
"558 11 LINE",
"462 61 LINE",
"226 61 LINE",
"226 -25 LINE",
"654 -25 LINE",
"654 678 LINE",
"451 678 LINE"
);
}
);
width = 714;
}
);
leftMetricsKey = i_marc;
rightMetricsKey = ka_marc;
script = marc;
category = Letter;
},
{
glyphname = ka_ra.sub_o_marc;
lastChange = "2017-12-13 22:26:47 +0000";
layers = (
{
layerId = "76B3AF2C-89AC-4CB1-B1C9-F754B2D43151";
paths = (
{
closed = 1;
nodes = (
"61 592 LINE",
"558 592 LINE",
"558 -171 LINE",
"654 -230 LINE",
"654 678 LINE",
"61 678 LINE"
);
},
{
closed = 1;
nodes = (
"226 446 LINE",
"226 325 LINE",
"179 347 OFFCURVE",
"117 358 OFFCURVE",
"60 355 CURVE",
"60 54 LINE",
"156 -5 LINE",
"156 271 LINE",
"180 273 OFFCURVE",
"202 268 OFFCURVE",
"226 256 CURVE",
"226 14 LINE",
"322 -45 LINE",
"322 446 LINE",
"392 446 LINE",
"392 -135 LINE",
"296 -85 LINE",
"60 -85 LINE",
"60 -171 LINE",
"488 -171 LINE",
"488 532 LINE",
"60 532 LINE",
"60 446 LINE"
);
}
);
width = 714;
}
);
leftMetricsKey = ka_marc;
rightMetricsKey = o_marc;
script = marc;
category = Letter;
},
{
glyphname = ka_ra.sub_u_marc;
lastChange = "2017-12-13 22:26:47 +0000";
layers = (
{
layerId = "76B3AF2C-89AC-4CB1-B1C9-F754B2D43151";
paths = (
{
closed = 1;
nodes = (
"60 592 LINE",
"226 592 LINE",
"226 471 LINE",
"179 493 OFFCURVE",
"117 504 OFFCURVE",
"60 501 CURVE",
"60 200 LINE",
"156 141 LINE",
"156 417 LINE",
"180 419 OFFCURVE",
"202 414 OFFCURVE",
"226 402 CURVE",
"226 160 LINE",
"322 101 LINE",
"322 592 LINE",
"392 592 LINE",
"392 11 LINE",
"296 61 LINE",
"60 61 LINE",
"60 -25 LINE",
"392 -25 LINE",
"392 -95 LINE",
"60 -95 LINE",
"60 -181 LINE",
"488 -181 LINE",
"488 678 LINE",
"60 678 LINE"
);
}
);
width = 548;
}
);
leftMetricsKey = ka_marc;
rightMetricsKey = ka_marc;
script = marc;
category = Letter;
},
{
glyphname = ka_u_marc;
lastChange = "2017-12-13 22:26:47 +0000";
layers = (
{
layerId = "76B3AF2C-89AC-4CB1-B1C9-F754B2D43151";
paths = (
{
closed = 1;
nodes = (
"60 592 LINE",
"226 592 LINE",
"226 471 LINE",
"179 493 OFFCURVE",
"117 504 OFFCURVE",
"60 501 CURVE",
"60 200 LINE",
"156 141 LINE",
"156 417 LINE",
"180 419 OFFCURVE",
"202 414 OFFCURVE",
"226 402 CURVE",
"226 160 LINE",
"322 101 LINE",
"322 592 LINE",
"392 592 LINE",
"392 41 LINE",
"60 41 LINE",
"60 -45 LINE",
"488 -45 LINE",
"488 678 LINE",
"60 678 LINE"
);
}
);
width = 548;
}
);
leftMetricsKey = ka_marc;
rightMetricsKey = ka_marc;
script = marc;
category = Letter;
},
{
glyphname = ka_wa.sub;
lastChange = "2017-12-13 22:26:47 +0000";
layers = (
{
layerId = "76B3AF2C-89AC-4CB1-B1C9-F754B2D43151";
paths = (
{
closed = 1;
nodes = (
"60 592 LINE",
"226 592 LINE",
"226 471 LINE",
"179 493 OFFCURVE",
"117 504 OFFCURVE",
"60 501 CURVE",
"60 200 LINE",
"156 141 LINE",
"156 417 LINE",
"180 419 OFFCURVE",
"202 414 OFFCURVE",
"226 402 CURVE",
"226 160 LINE",
"322 101 LINE",
"322 592 LINE",
"392 592 LINE",
"392 66 LINE",
"60 66 LINE",
"60 -149 LINE",
"488 -149 LINE",
"488 678 LINE",
"60 678 LINE"
);
},
{
closed = 1;
nodes = (
"110 -63 LINE",
"110 -20 LINE",
"392 -20 LINE",
"392 -63 LINE"
);
}
);
width = 548;
}
);
leftMetricsKey = ka_marc;
rightMetricsKey = ka_marc;
script = marc;
category = Letter;
},
{
glyphname = ka_wa.sub_e_marc;
lastChange = "2017-12-13 22:26:47 +0000";
layers = (
{
layerId = "76B3AF2C-89AC-4CB1-B1C9-F754B2D43151";
paths = (
{
closed = 1;
nodes = (
"60 592 LINE",
"392 592 LINE",
"392 532 LINE",
"60 532 LINE",
"60 446 LINE",
"226 446 LINE",
"226 325 LINE",
"179 347 OFFCURVE",
"117 358 OFFCURVE",
"60 355 CURVE",
"60 54 LINE",
"156 -5 LINE",
"156 271 LINE",
"180 273 OFFCURVE",
"202 268 OFFCURVE",
"226 256 CURVE",
"226 14 LINE",
"322 -45 LINE",
"322 446 LINE",
"392 446 LINE",
"392 -80 LINE",
"60 -80 LINE",
"60 -295 LINE",
"488 -295 LINE",
"488 678 LINE",
"60 678 LINE"
);
},
{
closed = 1;
nodes = (
"110 -209 LINE",
"110 -166 LINE",
"392 -166 LINE",
"392 -209 LINE"
);
}
);
width = 548;
}
);
leftMetricsKey = ka_marc;
rightMetricsKey = ka_marc;
script = marc;
category = Letter;
},
{
glyphname = ka_wa.sub_i_marc;
lastChange = "2017-12-13 22:26:47 +0000";
layers = (
{
layerId = "76B3AF2C-89AC-4CB1-B1C9-F754B2D43151";
paths = (
{
closed = 1;
nodes = (
"388 759 OFFCURVE",
"307 869 OFFCURVE",
"191 869 CURVE SMOOTH",
"108 869 OFFCURVE",
"60 808 OFFCURVE",
"60 714 CURVE SMOOTH",
"60 15 LINE",
"156 -44 LINE",
"156 717 LINE SMOOTH",
"156 768 OFFCURVE",
"169 797 OFFCURVE",
"220 797 CURVE SMOOTH",
"296 797 OFFCURVE",
"360 731 OFFCURVE",
"393 678 CURVE",
"226 678 LINE",
"226 592 LINE",
"392 592 LINE",
"392 471 LINE",
"345 493 OFFCURVE",
"283 504 OFFCURVE",
"226 501 CURVE",
"226 200 LINE",
"322 141 LINE",
"322 417 LINE",
"346 419 OFFCURVE",
"368 414 OFFCURVE",
"392 402 CURVE",
"392 160 LINE",
"488 101 LINE",
"488 592 LINE",
"558 592 LINE",
"558 66 LINE",
"226 66 LINE",
"226 -149 LINE",
"654 -149 LINE",
"654 678 LINE",
"426 678 LINE"
);
},
{
closed = 1;
nodes = (
"276 -63 LINE",
"276 -20 LINE",
"558 -20 LINE",
"558 -63 LINE"
);
}
);
width = 714;
}
);
leftMetricsKey = i_marc;
rightMetricsKey = ka_marc;
script = marc;
category = Letter;
},
{
glyphname = ka_wa.sub_o_marc;
lastChange = "2017-12-13 22:26:47 +0000";
layers = (
{
layerId = "76B3AF2C-89AC-4CB1-B1C9-F754B2D43151";
paths = (
{
closed = 1;
nodes = (
"61 592 LINE",
"558 592 LINE",
"558 -309 LINE",
"654 -368 LINE",
"654 678 LINE",
"61 678 LINE"
);
},
{
closed = 1;
nodes = (
"226 446 LINE",
"226 325 LINE",
"179 347 OFFCURVE",
"117 358 OFFCURVE",
"60 355 CURVE",
"60 54 LINE",
"156 -5 LINE",
"156 271 LINE",
"180 273 OFFCURVE",
"202 268 OFFCURVE",
"226 256 CURVE",
"226 14 LINE",
"322 -45 LINE",
"322 446 LINE",
"392 446 LINE",
"392 -95 LINE",
"60 -95 LINE",
"60 -310 LINE",
"488 -310 LINE",
"488 532 LINE",
"60 532 LINE",
"60 446 LINE"
);
},
{
closed = 1;
nodes = (
"110 -224 LINE",
"110 -181 LINE",
"392 -181 LINE",
"392 -224 LINE"
);
}
);
width = 714;
}
);
leftMetricsKey = ka_marc;
rightMetricsKey = o_marc;
script = marc;
category = Letter;
},
{
glyphname = ka_wa.sub_u_marc;
lastChange = "2017-12-13 22:26:47 +0000";
layers = (
{
layerId = "76B3AF2C-89AC-4CB1-B1C9-F754B2D43151";
paths = (
{
closed = 1;
nodes = (
"60 592 LINE",
"226 592 LINE",
"226 471 LINE",
"179 493 OFFCURVE",
"117 504 OFFCURVE",
"60 501 CURVE",
"60 200 LINE",
"156 141 LINE",
"156 417 LINE",
"180 419 OFFCURVE",
"202 414 OFFCURVE",
"226 402 CURVE",
"226 160 LINE",
"322 101 LINE",
"322 592 LINE",
"392 592 LINE",
"392 66 LINE",
"60 66 LINE",
"60 -149 LINE",
"392 -149 LINE",
"392 -219 LINE",
"60 -219 LINE",
"60 -305 LINE",
"488 -305 LINE",
"488 678 LINE",
"60 678 LINE"
);
},
{
closed = 1;
nodes = (
"392 -20 LINE",
"392 -63 LINE",
"110 -63 LINE",
"110 -20 LINE"
);
}
);
width = 548;
}
);
leftMetricsKey = ka_marc;
rightMetricsKey = ka_marc;
script = marc;
category = Letter;
},
{
glyphname = ka_ya.sub;
lastChange = "2017-12-13 22:26:47 +0000";
layers = (
{
layerId = "76B3AF2C-89AC-4CB1-B1C9-F754B2D43151";
paths = (
{
closed = 1;
nodes = (
"558 152 LINE",
"488 152 LINE",
"488 678 LINE",
"60 678 LINE",
"60 592 LINE",
"226 592 LINE",
"226 471 LINE",
"179 493 OFFCURVE",
"117 504 OFFCURVE",
"60 501 CURVE",
"60 200 LINE",
"156 141 LINE",
"156 417 LINE",
"180 419 OFFCURVE",
"202 414 OFFCURVE",
"226 402 CURVE",
"226 160 LINE",
"322 101 LINE",
"322 592 LINE",
"392 592 LINE",
"392 78 LINE",
"654 78 LINE",
"654 678 LINE",
"558 678 LINE"
);
}
);
width = 714;
}
);
leftMetricsKey = ka_marc;
rightMetricsKey = ya_marc.sub;
script = marc;
category = Letter;
},
{
glyphname = ka_ya.sub_e_marc;
lastChange = "2017-12-13 22:26:47 +0000";
layers = (
{
layerId = "76B3AF2C-89AC-4CB1-B1C9-F754B2D43151";
paths = (
{
closed = 1;
nodes = (
"558 6 LINE",
"488 6 LINE",
"488 678 LINE",
"60 678 LINE",
"60 592 LINE",
"392 592 LINE",
"392 532 LINE",
"60 532 LINE",
"60 446 LINE",
"226 446 LINE",
"226 325 LINE",
"179 347 OFFCURVE",
"117 358 OFFCURVE",
"60 355 CURVE",
"60 54 LINE",
"156 -5 LINE",
"156 271 LINE",
"180 273 OFFCURVE",
"202 268 OFFCURVE",
"226 256 CURVE",
"226 14 LINE",
"322 -45 LINE",
"322 446 LINE",
"392 446 LINE",
"392 -68 LINE",
"654 -68 LINE",
"654 678 LINE",
"558 678 LINE"
);
}
);
width = 714;
}
);
leftMetricsKey = ka_marc;
rightMetricsKey = ya_marc.sub;
script = marc;
category = Letter;
},
{
glyphname = ka_ya.sub_i_marc;
lastChange = "2017-12-13 22:26:47 +0000";
layers = (
{
layerId = "76B3AF2C-89AC-4CB1-B1C9-F754B2D43151";
paths = (
{
closed = 1;
nodes = (
"724 152 LINE",
"654 152 LINE",
"654 678 LINE",
"449 678 LINE",
"408 759 OFFCURVE",
"320 869 OFFCURVE",
"196 869 CURVE SMOOTH",
"108 869 OFFCURVE",
"60 808 OFFCURVE",
"60 714 CURVE SMOOTH",
"60 138 LINE",
"156 79 LINE",
"156 717 LINE SMOOTH",
"156 768 OFFCURVE",
"169 797 OFFCURVE",
"226 797 CURVE SMOOTH",
"309 797 OFFCURVE",
"380 731 OFFCURVE",
"415 678 CURVE",
"226 678 LINE",
"226 592 LINE",
"392 592 LINE",
"392 471 LINE",
"345 493 OFFCURVE",
"283 504 OFFCURVE",
"226 501 CURVE",
"226 200 LINE",
"322 141 LINE",
"322 417 LINE",
"346 419 OFFCURVE",
"368 414 OFFCURVE",
"392 402 CURVE",
"392 160 LINE",
"488 101 LINE",
"488 592 LINE",
"558 592 LINE",
"558 78 LINE",
"820 78 LINE",
"820 678 LINE",
"724 678 LINE"
);
}
);
width = 880;
}
);
leftMetricsKey = i_marc;
rightMetricsKey = ka_marc;
script = marc;
category = Letter;
},
{
glyphname = ka_ya.sub_o_marc;
lastChange = "2017-12-13 22:26:47 +0000";
layers = (
{
layerId = "76B3AF2C-89AC-4CB1-B1C9-F754B2D43151";
paths = (
{
closed = 1;
nodes = (
"60 592 LINE",
"724 592 LINE",
"724 -65 LINE",
"820 -124 LINE",
"820 678 LINE",
"60 678 LINE"
);
},
{
closed = 1;
nodes = (
"488 6 LINE",
"488 532 LINE",
"60 532 LINE",
"60 446 LINE",
"226 446 LINE",
"226 325 LINE",
"179 347 OFFCURVE",
"117 358 OFFCURVE",
"60 355 CURVE",
"60 54 LINE",
"156 -5 LINE",
"156 271 LINE",
"180 273 OFFCURVE",
"202 268 OFFCURVE",
"226 256 CURVE",
"226 14 LINE",
"322 -45 LINE",
"322 446 LINE",
"392 446 LINE",
"392 -68 LINE",
"654 -68 LINE",
"654 532 LINE",
"558 532 LINE",
"558 6 LINE"
);
}
);
width = 880;
}
);
leftMetricsKey = ka_marc;
rightMetricsKey = o_marc;
script = marc;
category = Letter;
},
{
glyphname = ka_ya.sub_u_marc;
lastChange = "2017-12-13 22:26:47 +0000";
layers = (
{
layerId = "76B3AF2C-89AC-4CB1-B1C9-F754B2D43151";
paths = (
{
closed = 1;
nodes = (
"559 152 LINE",
"489 152 LINE",
"489 678 LINE",
"61 678 LINE",
"61 592 LINE",
"227 592 LINE",
"227 471 LINE",
"180 493 OFFCURVE",
"118 504 OFFCURVE",
"61 501 CURVE",
"61 200 LINE",
"157 141 LINE",
"157 417 LINE",
"181 419 OFFCURVE",
"203 414 OFFCURVE",
"227 402 CURVE",
"227 160 LINE",
"323 101 LINE",
"323 592 LINE",
"393 592 LINE",
"393 78 LINE",
"559 78 LINE",
"559 8 LINE",
"60 8 LINE",
"60 -78 LINE",
"655 -78 LINE",
"655 678 LINE",
"559 678 LINE"
);
}
);
width = 715;
}
);
leftMetricsKey = ka_marc;
rightMetricsKey = ya_marc.sub;
script = marc;
category = Letter;
},
